G04 Layer: TopSilkLayer*
G04 EasyEDA v6.2.44, 2019-10-04T11:08:35+02:00*
G04 41162be0d33c4ba8b269e90eca5c5aeb,6fbb11cf78c9446ebbc1c763f74fa548,10*
G04 Gerber Generator version 0.2*
G04 Scale: 100 percent, Rotated: No, Reflected: No *
G04 Dimensions in millimeters *
G04 leading zeros omitted , absolute positions ,3 integer and 3 decimal *
%FSLAX33Y33*%
%MOMM*%
G90*
G71D02*

%ADD10C,0.254000*%
%ADD18C,0.152400*%
%ADD19C,0.203200*%

%LPD*%

%LPD*%
G36*
G01X58976Y19659D02*
G01X58846Y19709D01*
G01X58722Y19437D01*
G01X58676Y19328D01*
G01X58643Y19231D01*
G01X58626Y19156D01*
G01X58628Y19116D01*
G01X58677Y19073D01*
G01X58734Y19069D01*
G01X58789Y19100D01*
G01X58826Y19163D01*
G01X58857Y19260D01*
G01X59149Y19202D01*
G01X59149Y19275D01*
G01X59140Y19307D01*
G01X59116Y19342D01*
G01X59080Y19375D01*
G01X59037Y19402D01*
G01X58925Y19456D01*
G01X59080Y19429D01*
G01X59143Y19423D01*
G01X59199Y19425D01*
G01X59243Y19436D01*
G01X59268Y19454D01*
G01X59274Y19474D01*
G01X59269Y19496D01*
G01X59252Y19519D01*
G01X59222Y19543D01*
G01X59180Y19569D01*
G01X59125Y19597D01*
G01X59057Y19627D01*
G01X58976Y19659D01*
G37*

%LPD*%
G36*
G01X59511Y19246D02*
G01X59426Y19261D01*
G01X59363Y19250D01*
G01X59322Y19214D01*
G01X59315Y19193D01*
G01X59319Y19173D01*
G01X59333Y19155D01*
G01X59356Y19143D01*
G01X59466Y19107D01*
G01X59510Y19085D01*
G01X59491Y19074D01*
G01X59411Y19070D01*
G01X59348Y19064D01*
G01X59292Y19053D01*
G01X59249Y19038D01*
G01X59226Y19020D01*
G01X59211Y18953D01*
G01X59238Y18884D01*
G01X59301Y18824D01*
G01X59389Y18786D01*
G01X59445Y18770D01*
G01X59500Y18750D01*
G01X59547Y18728D01*
G01X59581Y18707D01*
G01X59642Y18659D01*
G01X59689Y18782D01*
G01X59721Y18873D01*
G01X59742Y18950D01*
G01X59752Y19013D01*
G01X59749Y19066D01*
G01X59735Y19110D01*
G01X59708Y19147D01*
G01X59669Y19178D01*
G01X59616Y19206D01*
G01X59511Y19246D01*
G37*

%LPD*%
G36*
G01X60164Y19140D02*
G01X60134Y19152D01*
G01X60093Y19146D01*
G01X60051Y19108D01*
G01X60008Y19037D01*
G01X59960Y18932D01*
G01X59923Y18837D01*
G01X59890Y18755D01*
G01X59865Y18694D01*
G01X59852Y18662D01*
G01X59858Y18643D01*
G01X59888Y18616D01*
G01X59935Y18585D01*
G01X59994Y18552D01*
G01X60057Y18521D01*
G01X60120Y18496D01*
G01X60176Y18478D01*
G01X60219Y18472D01*
G01X60258Y18481D01*
G01X60297Y18509D01*
G01X60334Y18550D01*
G01X60367Y18600D01*
G01X60394Y18656D01*
G01X60411Y18712D01*
G01X60419Y18766D01*
G01X60412Y18813D01*
G01X60393Y18854D01*
G01X60364Y18891D01*
G01X60328Y18922D01*
G01X60290Y18941D01*
G01X60255Y18958D01*
G01X60228Y18986D01*
G01X60211Y19018D01*
G01X60206Y19053D01*
G01X60203Y19086D01*
G01X60188Y19116D01*
G01X60164Y19140D01*
G37*

%LPC*%
G36*
G01X60221Y18815D02*
G01X60183Y18816D01*
G01X60139Y18790D01*
G01X60106Y18741D01*
G01X60094Y18674D01*
G01X60112Y18633D01*
G01X60147Y18629D01*
G01X60190Y18671D01*
G01X60208Y18702D01*
G01X60223Y18733D01*
G01X60233Y18761D01*
G01X60237Y18781D01*
G01X60221Y18815D01*
G37*

%LPD*%
G36*
G01X60807Y18885D02*
G01X60769Y18887D01*
G01X60728Y18862D01*
G01X60686Y18809D01*
G01X60640Y18730D01*
G01X60602Y18650D01*
G01X60565Y18570D01*
G01X60535Y18498D01*
G01X60516Y18444D01*
G01X60485Y18342D01*
G01X60660Y18258D01*
G01X60733Y18226D01*
G01X60805Y18199D01*
G01X60866Y18181D01*
G01X60908Y18174D01*
G01X60944Y18180D01*
G01X60968Y18195D01*
G01X60978Y18218D01*
G01X60976Y18246D01*
G01X60963Y18277D01*
G01X60938Y18308D01*
G01X60903Y18337D01*
G01X60858Y18362D01*
G01X60736Y18418D01*
G01X60809Y18592D01*
G01X60860Y18725D01*
G01X60877Y18807D01*
G01X60859Y18855D01*
G01X60807Y18885D01*
G37*

%LPD*%
G36*
G01X61384Y18468D02*
G01X61342Y18468D01*
G01X61304Y18460D01*
G01X61272Y18443D01*
G01X61249Y18416D01*
G01X61240Y18392D01*
G01X61242Y18366D01*
G01X61254Y18343D01*
G01X61275Y18324D01*
G01X61295Y18306D01*
G01X61295Y18290D01*
G01X61274Y18275D01*
G01X61232Y18260D01*
G01X61181Y18240D01*
G01X61147Y18213D01*
G01X61132Y18180D01*
G01X61134Y18143D01*
G01X61154Y18104D01*
G01X61189Y18066D01*
G01X61241Y18029D01*
G01X61308Y17996D01*
G01X61386Y17966D01*
G01X61451Y17948D01*
G01X61504Y17944D01*
G01X61547Y17952D01*
G01X61582Y17974D01*
G01X61610Y18011D01*
G01X61632Y18063D01*
G01X61650Y18131D01*
G01X61685Y18292D01*
G01X61575Y18382D01*
G01X61527Y18416D01*
G01X61478Y18442D01*
G01X61430Y18459D01*
G01X61384Y18468D01*
G37*

%LPD*%
G36*
G01X58539Y20501D02*
G01X58532Y20501D01*
G01X58484Y20495D01*
G01X58433Y20476D01*
G01X58385Y20448D01*
G01X58348Y20415D01*
G01X58313Y20364D01*
G01X58270Y20290D01*
G01X58224Y20202D01*
G01X58182Y20112D01*
G01X58089Y19896D01*
G01X58182Y19827D01*
G01X58236Y19792D01*
G01X58282Y19771D01*
G01X58324Y19764D01*
G01X58361Y19771D01*
G01X58396Y19793D01*
G01X58429Y19831D01*
G01X58462Y19884D01*
G01X58495Y19954D01*
G01X58579Y20149D01*
G01X60188Y19481D01*
G01X60336Y19419D01*
G01X60411Y19388D01*
G01X60485Y19357D01*
G01X60634Y19295D01*
G01X60709Y19264D01*
G01X60783Y19234D01*
G01X60856Y19203D01*
G01X60930Y19173D01*
G01X61074Y19113D01*
G01X61145Y19083D01*
G01X61216Y19054D01*
G01X61285Y19025D01*
G01X61354Y18997D01*
G01X61421Y18969D01*
G01X61487Y18942D01*
G01X61551Y18915D01*
G01X61615Y18889D01*
G01X61676Y18863D01*
G01X61736Y18838D01*
G01X61795Y18814D01*
G01X61851Y18791D01*
G01X61905Y18768D01*
G01X61958Y18746D01*
G01X62009Y18726D01*
G01X62057Y18705D01*
G01X62103Y18687D01*
G01X62146Y18669D01*
G01X62187Y18651D01*
G01X62225Y18636D01*
G01X62261Y18621D01*
G01X62294Y18608D01*
G01X62324Y18595D01*
G01X62350Y18584D01*
G01X62904Y18356D01*
G01X62746Y17962D01*
G01X62838Y17895D01*
G01X62890Y17861D01*
G01X62935Y17840D01*
G01X62974Y17836D01*
G01X63010Y17847D01*
G01X63044Y17877D01*
G01X63077Y17925D01*
G01X63113Y17993D01*
G01X63152Y18082D01*
G01X63196Y18194D01*
G01X63228Y18287D01*
G01X63246Y18364D01*
G01X63251Y18427D01*
G01X63241Y18479D01*
G01X63219Y18523D01*
G01X63183Y18563D01*
G01X63133Y18600D01*
G01X63123Y18606D01*
G01X63110Y18613D01*
G01X63048Y18644D01*
G01X63021Y18657D01*
G01X62991Y18671D01*
G01X62957Y18687D01*
G01X62920Y18703D01*
G01X62881Y18721D01*
G01X62839Y18740D01*
G01X62793Y18760D01*
G01X62746Y18781D01*
G01X62695Y18803D01*
G01X62642Y18826D01*
G01X62587Y18850D01*
G01X62529Y18874D01*
G01X62470Y18900D01*
G01X62408Y18927D01*
G01X62344Y18954D01*
G01X62278Y18982D01*
G01X62211Y19011D01*
G01X62142Y19040D01*
G01X62071Y19071D01*
G01X61999Y19101D01*
G01X61925Y19132D01*
G01X61851Y19164D01*
G01X61697Y19228D01*
G01X61539Y19294D01*
G01X61459Y19328D01*
G01X61379Y19361D01*
G01X61215Y19429D01*
G01X61133Y19464D01*
G01X60967Y19532D01*
G01X60801Y19601D01*
G01X60718Y19635D01*
G01X60634Y19670D01*
G01X60552Y19704D01*
G01X60469Y19738D01*
G01X60387Y19772D01*
G01X60225Y19838D01*
G01X60145Y19871D01*
G01X60065Y19903D01*
G01X59909Y19967D01*
G01X59833Y19998D01*
G01X59758Y20028D01*
G01X59684Y20058D01*
G01X59611Y20088D01*
G01X59540Y20116D01*
G01X59471Y20144D01*
G01X59403Y20171D01*
G01X59337Y20197D01*
G01X59273Y20223D01*
G01X59211Y20248D01*
G01X59151Y20271D01*
G01X59093Y20294D01*
G01X59037Y20316D01*
G01X58984Y20338D01*
G01X58933Y20357D01*
G01X58885Y20376D01*
G01X58839Y20393D01*
G01X58796Y20410D01*
G01X58756Y20425D01*
G01X58719Y20439D01*
G01X58685Y20452D01*
G01X58654Y20463D01*
G01X58626Y20473D01*
G01X58563Y20494D01*
G01X58549Y20498D01*
G01X58539Y20501D01*
G37*

%LPD*%
G36*
G01X62060Y18362D02*
G01X61978Y18378D01*
G01X61875Y18147D01*
G01X61835Y18052D01*
G01X61802Y17966D01*
G01X61780Y17899D01*
G01X61773Y17858D01*
G01X61783Y17833D01*
G01X61810Y17804D01*
G01X61852Y17774D01*
G01X61902Y17745D01*
G01X61959Y17719D01*
G01X62018Y17698D01*
G01X62075Y17684D01*
G01X62127Y17679D01*
G01X62171Y17687D01*
G01X62210Y17708D01*
G01X62244Y17741D01*
G01X62271Y17781D01*
G01X62293Y17828D01*
G01X62307Y17878D01*
G01X62313Y17929D01*
G01X62312Y17979D01*
G01X62302Y18024D01*
G01X62283Y18063D01*
G01X62254Y18093D01*
G01X62216Y18111D01*
G01X62172Y18129D01*
G01X62143Y18157D01*
G01X62129Y18194D01*
G01X62129Y18286D01*
G01X62118Y18322D01*
G01X62094Y18348D01*
G01X62060Y18362D01*
G37*

%LPC*%
G36*
G01X62111Y17975D02*
G01X62086Y18006D01*
G01X62056Y17994D01*
G01X62030Y17950D01*
G01X62020Y17884D01*
G01X62020Y17808D01*
G01X62075Y17863D01*
G01X62095Y17889D01*
G01X62108Y17919D01*
G01X62114Y17949D01*
G01X62111Y17975D01*
G37*

%LPD*%
G36*
G01X47259Y20394D02*
G01X47135Y20394D01*
G01X47073Y20392D01*
G01X47011Y20389D01*
G01X46949Y20385D01*
G01X46888Y20381D01*
G01X46826Y20375D01*
G01X46765Y20368D01*
G01X46645Y20350D01*
G01X46585Y20340D01*
G01X46525Y20329D01*
G01X46465Y20316D01*
G01X46406Y20303D01*
G01X46348Y20289D01*
G01X46289Y20275D01*
G01X46231Y20259D01*
G01X46115Y20225D01*
G01X46058Y20206D01*
G01X46000Y20187D01*
G01X45944Y20167D01*
G01X45887Y20147D01*
G01X45775Y20103D01*
G01X45720Y20079D01*
G01X45665Y20056D01*
G01X45555Y20006D01*
G01X45502Y19979D01*
G01X45448Y19952D01*
G01X45395Y19925D01*
G01X45291Y19867D01*
G01X45239Y19837D01*
G01X45137Y19775D01*
G01X45087Y19743D01*
G01X45037Y19710D01*
G01X44988Y19676D01*
G01X44940Y19642D01*
G01X44891Y19607D01*
G01X44797Y19535D01*
G01X44751Y19498D01*
G01X44705Y19460D01*
G01X44660Y19422D01*
G01X44616Y19382D01*
G01X44572Y19343D01*
G01X44529Y19303D01*
G01X44487Y19262D01*
G01X44444Y19220D01*
G01X44385Y19159D01*
G01X44326Y19095D01*
G01X44268Y19030D01*
G01X44211Y18965D01*
G01X44155Y18899D01*
G01X44102Y18833D01*
G01X44052Y18769D01*
G01X44005Y18706D01*
G01X43961Y18646D01*
G01X43922Y18590D01*
G01X43887Y18536D01*
G01X43858Y18488D01*
G01X43834Y18444D01*
G01X43817Y18407D01*
G01X43806Y18376D01*
G01X43802Y18352D01*
G01X43815Y18324D01*
G01X43847Y18288D01*
G01X43896Y18250D01*
G01X43955Y18212D01*
G01X44107Y18125D01*
G01X45024Y18751D01*
G01X45329Y18601D01*
G01X45634Y18450D01*
G01X45634Y18311D01*
G01X45636Y18257D01*
G01X45641Y18205D01*
G01X45650Y18154D01*
G01X45664Y18103D01*
G01X45680Y18055D01*
G01X45701Y18007D01*
G01X45725Y17960D01*
G01X45753Y17915D01*
G01X45784Y17871D01*
G01X45819Y17829D01*
G01X45857Y17787D01*
G01X45899Y17747D01*
G01X45944Y17709D01*
G01X45992Y17672D01*
G01X46044Y17637D01*
G01X46100Y17603D01*
G01X46158Y17571D01*
G01X46219Y17541D01*
G01X46284Y17512D01*
G01X46352Y17485D01*
G01X46627Y17382D01*
G01X47506Y17382D01*
G01X47818Y17544D01*
G01X47892Y17584D01*
G01X47963Y17627D01*
G01X48029Y17673D01*
G01X48092Y17720D01*
G01X48151Y17770D01*
G01X48205Y17820D01*
G01X48254Y17872D01*
G01X48298Y17926D01*
G01X48466Y18147D01*
G01X48443Y18381D01*
G01X48437Y18432D01*
G01X48427Y18482D01*
G01X48414Y18531D01*
G01X48398Y18579D01*
G01X48378Y18625D01*
G01X48356Y18670D01*
G01X48331Y18714D01*
G01X48303Y18757D01*
G01X48273Y18798D01*
G01X48240Y18837D01*
G01X48204Y18876D01*
G01X48167Y18913D01*
G01X48126Y18948D01*
G01X48084Y18981D01*
G01X48040Y19013D01*
G01X47993Y19043D01*
G01X47945Y19072D01*
G01X47894Y19098D01*
G01X47842Y19123D01*
G01X47788Y19146D01*
G01X47733Y19167D01*
G01X47676Y19185D01*
G01X47617Y19203D01*
G01X47557Y19217D01*
G01X47497Y19230D01*
G01X47435Y19241D01*
G01X47372Y19249D01*
G01X47308Y19255D01*
G01X47243Y19259D01*
G01X47177Y19261D01*
G01X47111Y19260D01*
G01X47044Y19257D01*
G01X46976Y19251D01*
G01X46908Y19243D01*
G01X46840Y19232D01*
G01X46772Y19218D01*
G01X46505Y19162D01*
G01X46292Y19274D01*
G01X46209Y19320D01*
G01X46142Y19361D01*
G01X46096Y19394D01*
G01X46079Y19412D01*
G01X46089Y19423D01*
G01X46117Y19446D01*
G01X46163Y19479D01*
G01X46221Y19520D01*
G01X46294Y19569D01*
G01X46376Y19623D01*
G01X46467Y19682D01*
G01X46564Y19745D01*
G01X47048Y20053D01*
G01X50164Y18467D01*
G01X50324Y18543D01*
G01X50387Y18577D01*
G01X50438Y18616D01*
G01X50472Y18653D01*
G01X50485Y18685D01*
G01X50482Y18704D01*
G01X50470Y18728D01*
G01X50453Y18759D01*
G01X50429Y18794D01*
G01X50400Y18833D01*
G01X50365Y18877D01*
G01X50326Y18924D01*
G01X50283Y18973D01*
G01X50236Y19025D01*
G01X50186Y19078D01*
G01X50134Y19133D01*
G01X50080Y19188D01*
G01X50024Y19243D01*
G01X49967Y19298D01*
G01X49910Y19352D01*
G01X49853Y19403D01*
G01X49796Y19453D01*
G01X49740Y19500D01*
G01X49686Y19545D01*
G01X49634Y19585D01*
G01X49582Y19623D01*
G01X49531Y19660D01*
G01X49478Y19696D01*
G01X49424Y19731D01*
G01X49371Y19766D01*
G01X49316Y19800D01*
G01X49261Y19832D01*
G01X49205Y19864D01*
G01X49150Y19895D01*
G01X49093Y19926D01*
G01X49036Y19955D01*
G01X48978Y19983D01*
G01X48862Y20037D01*
G01X48803Y20063D01*
G01X48744Y20087D01*
G01X48684Y20111D01*
G01X48624Y20134D01*
G01X48564Y20156D01*
G01X48503Y20177D01*
G01X48443Y20197D01*
G01X48381Y20216D01*
G01X48259Y20252D01*
G01X48197Y20268D01*
G01X48135Y20283D01*
G01X48011Y20311D01*
G01X47948Y20323D01*
G01X47886Y20335D01*
G01X47823Y20345D01*
G01X47761Y20355D01*
G01X47635Y20371D01*
G01X47572Y20377D01*
G01X47510Y20383D01*
G01X47447Y20387D01*
G01X47384Y20390D01*
G01X47322Y20393D01*
G01X47259Y20394D01*
G37*

%LPD*%
G36*
G01X58106Y19438D02*
G01X57957Y19516D01*
G01X57699Y18952D01*
G01X57788Y18699D01*
G01X58456Y18418D01*
G01X58485Y18406D01*
G01X58516Y18392D01*
G01X58550Y18378D01*
G01X58585Y18363D01*
G01X58623Y18347D01*
G01X58663Y18330D01*
G01X58706Y18313D01*
G01X58750Y18294D01*
G01X58796Y18275D01*
G01X58844Y18255D01*
G01X58893Y18234D01*
G01X58945Y18213D01*
G01X58998Y18191D01*
G01X59052Y18168D01*
G01X59108Y18144D01*
G01X59165Y18121D01*
G01X59224Y18096D01*
G01X59284Y18071D01*
G01X59345Y18046D01*
G01X59407Y18020D01*
G01X59470Y17994D01*
G01X59534Y17967D01*
G01X59664Y17913D01*
G01X59730Y17885D01*
G01X59797Y17858D01*
G01X59864Y17830D01*
G01X59932Y17802D01*
G01X60000Y17773D01*
G01X60069Y17745D01*
G01X60207Y17687D01*
G01X60276Y17659D01*
G01X60345Y17630D01*
G01X60483Y17573D01*
G01X60552Y17545D01*
G01X60688Y17488D01*
G01X60755Y17460D01*
G01X62387Y16783D01*
G01X62503Y16812D01*
G01X62533Y16823D01*
G01X62562Y16840D01*
G01X62592Y16865D01*
G01X62621Y16897D01*
G01X62650Y16936D01*
G01X62680Y16983D01*
G01X62710Y17038D01*
G01X62740Y17100D01*
G01X62790Y17208D01*
G01X62825Y17293D01*
G01X62846Y17358D01*
G01X62852Y17406D01*
G01X62844Y17444D01*
G01X62821Y17473D01*
G01X62784Y17499D01*
G01X62731Y17525D01*
G01X62681Y17548D01*
G01X62644Y17563D01*
G01X62616Y17568D01*
G01X62594Y17561D01*
G01X62574Y17540D01*
G01X62553Y17502D01*
G01X62529Y17444D01*
G01X62496Y17366D01*
G01X62418Y17177D01*
G01X62308Y17212D01*
G01X62296Y17216D01*
G01X62279Y17222D01*
G01X62259Y17230D01*
G01X62235Y17239D01*
G01X62207Y17249D01*
G01X62176Y17262D01*
G01X62141Y17276D01*
G01X62103Y17291D01*
G01X62061Y17308D01*
G01X62016Y17326D01*
G01X61968Y17345D01*
G01X61918Y17366D01*
G01X61864Y17388D01*
G01X61808Y17410D01*
G01X61749Y17435D01*
G01X61689Y17460D01*
G01X61625Y17486D01*
G01X61559Y17513D01*
G01X61492Y17540D01*
G01X61423Y17569D01*
G01X61352Y17599D01*
G01X61279Y17629D01*
G01X61204Y17660D01*
G01X61128Y17692D01*
G01X61051Y17724D01*
G01X60893Y17790D01*
G01X60812Y17823D01*
G01X60731Y17858D01*
G01X60649Y17892D01*
G01X60483Y17962D01*
G01X60315Y18032D01*
G01X60148Y18103D01*
G01X59980Y18173D01*
G01X59897Y18209D01*
G01X59814Y18243D01*
G01X59732Y18278D01*
G01X59650Y18312D01*
G01X59570Y18347D01*
G01X59490Y18380D01*
G01X59412Y18414D01*
G01X59334Y18446D01*
G01X59258Y18479D01*
G01X59184Y18511D01*
G01X59110Y18542D01*
G01X59039Y18572D01*
G01X58970Y18602D01*
G01X58902Y18631D01*
G01X58837Y18659D01*
G01X58773Y18686D01*
G01X58712Y18712D01*
G01X58653Y18738D01*
G01X58597Y18762D01*
G01X58543Y18785D01*
G01X58492Y18807D01*
G01X58444Y18828D01*
G01X58399Y18848D01*
G01X58358Y18866D01*
G01X58319Y18883D01*
G01X58283Y18899D01*
G01X58252Y18913D01*
G01X58223Y18926D01*
G01X58199Y18937D01*
G01X58179Y18947D01*
G01X58162Y18954D01*
G01X58149Y18961D01*
G01X58141Y18965D01*
G01X58137Y18968D01*
G01X58123Y18999D01*
G01X58124Y19048D01*
G01X58141Y19112D01*
G01X58173Y19188D01*
G01X58255Y19361D01*
G01X58106Y19438D01*
G37*

%LPD*%
G36*
G01X60843Y15056D02*
G01X60530Y15056D01*
G01X60409Y14934D01*
G01X60362Y14880D01*
G01X60323Y14820D01*
G01X60297Y14764D01*
G01X60287Y14717D01*
G01X60292Y14669D01*
G01X60305Y14624D01*
G01X60326Y14580D01*
G01X60353Y14540D01*
G01X60389Y14502D01*
G01X60430Y14468D01*
G01X60476Y14437D01*
G01X60528Y14410D01*
G01X60585Y14387D01*
G01X60645Y14369D01*
G01X60708Y14354D01*
G01X60774Y14345D01*
G01X60842Y14341D01*
G01X60911Y14343D01*
G01X60982Y14349D01*
G01X61053Y14362D01*
G01X61134Y14384D01*
G01X61201Y14413D01*
G01X61257Y14447D01*
G01X61302Y14488D01*
G01X61335Y14538D01*
G01X61358Y14596D01*
G01X61372Y14663D01*
G01X61376Y14740D01*
G01X61373Y14795D01*
G01X61364Y14844D01*
G01X61348Y14887D01*
G01X61324Y14924D01*
G01X61294Y14957D01*
G01X61255Y14984D01*
G01X61209Y15007D01*
G01X61154Y15025D01*
G01X61090Y15039D01*
G01X61017Y15048D01*
G01X60935Y15054D01*
G01X60843Y15056D01*
G37*

%LPC*%
G36*
G01X61132Y14858D02*
G01X60581Y14858D01*
G01X60550Y14776D01*
G01X60536Y14723D01*
G01X60538Y14675D01*
G01X60555Y14634D01*
G01X60587Y14599D01*
G01X60633Y14572D01*
G01X60694Y14552D01*
G01X60769Y14540D01*
G01X60856Y14536D01*
G01X60944Y14540D01*
G01X61019Y14552D01*
G01X61080Y14572D01*
G01X61126Y14599D01*
G01X61158Y14634D01*
G01X61175Y14675D01*
G01X61177Y14723D01*
G01X61163Y14776D01*
G01X61132Y14858D01*
G37*

%LPD*%
G36*
G01X57965Y15056D02*
G01X57708Y15056D01*
G01X57738Y14338D01*
G01X57935Y14338D01*
G01X57965Y15056D01*
G37*

%LPD*%
G36*
G01X59841Y15041D02*
G01X59841Y15105D01*
G01X59532Y15104D01*
G01X59468Y15102D01*
G01X59405Y15099D01*
G01X59345Y15094D01*
G01X59288Y15088D01*
G01X59237Y15080D01*
G01X59194Y15072D01*
G01X59160Y15062D01*
G01X59136Y15052D01*
G01X59095Y15022D01*
G01X59067Y14990D01*
G01X59053Y14957D01*
G01X59052Y14926D01*
G01X59063Y14899D01*
G01X59087Y14878D01*
G01X59123Y14863D01*
G01X59171Y14858D01*
G01X59292Y14858D01*
G01X59322Y14338D01*
G01X59520Y14338D01*
G01X59550Y14858D01*
G01X59636Y14858D01*
G01X59711Y14873D01*
G01X59777Y14915D01*
G01X59824Y14974D01*
G01X59841Y15041D01*
G37*

%LPD*%
G36*
G01X56426Y15056D02*
G01X55777Y15056D01*
G01X55656Y14934D01*
G01X55618Y14892D01*
G01X55588Y14850D01*
G01X55567Y14807D01*
G01X55551Y14766D01*
G01X55543Y14724D01*
G01X55542Y14683D01*
G01X55547Y14643D01*
G01X55558Y14604D01*
G01X55575Y14567D01*
G01X55598Y14532D01*
G01X55625Y14498D01*
G01X55658Y14467D01*
G01X55695Y14438D01*
G01X55736Y14412D01*
G01X55781Y14389D01*
G01X55830Y14370D01*
G01X55883Y14353D01*
G01X55938Y14341D01*
G01X55996Y14333D01*
G01X56057Y14329D01*
G01X56120Y14329D01*
G01X56185Y14334D01*
G01X56252Y14345D01*
G01X56320Y14361D01*
G01X56375Y14379D01*
G01X56425Y14402D01*
G01X56470Y14428D01*
G01X56509Y14459D01*
G01X56544Y14494D01*
G01X56573Y14531D01*
G01X56596Y14571D01*
G01X56614Y14612D01*
G01X56625Y14656D01*
G01X56631Y14699D01*
G01X56630Y14744D01*
G01X56622Y14788D01*
G01X56609Y14832D01*
G01X56588Y14876D01*
G01X56560Y14917D01*
G01X56525Y14957D01*
G01X56426Y15056D01*
G37*

%LPC*%
G36*
G01X56370Y14858D02*
G01X55829Y14858D01*
G01X55798Y14776D01*
G01X55785Y14725D01*
G01X55787Y14678D01*
G01X55803Y14637D01*
G01X55834Y14601D01*
G01X55879Y14571D01*
G01X55936Y14547D01*
G01X56006Y14531D01*
G01X56089Y14521D01*
G01X56176Y14519D01*
G01X56251Y14528D01*
G01X56312Y14544D01*
G01X56359Y14570D01*
G01X56392Y14605D01*
G01X56410Y14647D01*
G01X56413Y14698D01*
G01X56402Y14756D01*
G01X56370Y14858D01*
G37*

%LPD*%
G36*
G01X57544Y15096D02*
G01X57488Y15098D01*
G01X57417Y15094D01*
G01X57328Y15086D01*
G01X57223Y15075D01*
G01X57100Y15058D01*
G01X57036Y15048D01*
G01X56979Y15034D01*
G01X56928Y15017D01*
G01X56883Y14997D01*
G01X56844Y14974D01*
G01X56811Y14947D01*
G01X56783Y14916D01*
G01X56761Y14882D01*
G01X56744Y14842D01*
G01X56732Y14799D01*
G01X56725Y14752D01*
G01X56723Y14700D01*
G01X56726Y14653D01*
G01X56735Y14609D01*
G01X56750Y14568D01*
G01X56771Y14529D01*
G01X56798Y14494D01*
G01X56831Y14461D01*
G01X56868Y14432D01*
G01X56911Y14406D01*
G01X56960Y14383D01*
G01X57013Y14364D01*
G01X57072Y14348D01*
G01X57135Y14337D01*
G01X57225Y14326D01*
G01X57306Y14322D01*
G01X57377Y14324D01*
G01X57439Y14334D01*
G01X57490Y14350D01*
G01X57532Y14373D01*
G01X57563Y14403D01*
G01X57583Y14439D01*
G01X57611Y14511D01*
G01X57321Y14511D01*
G01X57215Y14514D01*
G01X57126Y14524D01*
G01X57054Y14542D01*
G01X56999Y14566D01*
G01X56959Y14598D01*
G01X56935Y14638D01*
G01X56925Y14687D01*
G01X56930Y14744D01*
G01X56946Y14833D01*
G01X57233Y14858D01*
G01X57324Y14869D01*
G01X57402Y14884D01*
G01X57468Y14903D01*
G01X57520Y14926D01*
G01X57560Y14954D01*
G01X57589Y14987D01*
G01X57607Y15025D01*
G01X57613Y15068D01*
G01X57606Y15082D01*
G01X57583Y15091D01*
G01X57544Y15096D01*
G37*

%LPD*%
G36*
G01X54324Y14959D02*
G01X54411Y15056D01*
G01X54020Y15054D01*
G01X53939Y15053D01*
G01X53861Y15050D01*
G01X53787Y15045D01*
G01X53718Y15038D01*
G01X53658Y15030D01*
G01X53607Y15022D01*
G01X53568Y15012D01*
G01X53542Y15002D01*
G01X53507Y14976D01*
G01X53481Y14942D01*
G01X53465Y14904D01*
G01X53458Y14864D01*
G01X53461Y14823D01*
G01X53474Y14782D01*
G01X53496Y14744D01*
G01X53528Y14710D01*
G01X53548Y14698D01*
G01X53579Y14685D01*
G01X53619Y14672D01*
G01X53667Y14660D01*
G01X53720Y14649D01*
G01X53777Y14639D01*
G01X53837Y14630D01*
G01X53899Y14624D01*
G01X53989Y14614D01*
G01X54063Y14603D01*
G01X54119Y14591D01*
G01X54159Y14578D01*
G01X54182Y14566D01*
G01X54189Y14554D01*
G01X54179Y14542D01*
G01X54152Y14532D01*
G01X54109Y14523D01*
G01X54050Y14517D01*
G01X53974Y14513D01*
G01X53882Y14511D01*
G01X53565Y14511D01*
G01X53535Y14433D01*
G01X53523Y14400D01*
G01X53514Y14370D01*
G01X53507Y14344D01*
G01X53505Y14327D01*
G01X53519Y14321D01*
G01X53558Y14318D01*
G01X53617Y14318D01*
G01X53693Y14321D01*
G01X53780Y14326D01*
G01X53873Y14333D01*
G01X53969Y14342D01*
G01X54062Y14351D01*
G01X54148Y14362D01*
G01X54223Y14373D01*
G01X54282Y14383D01*
G01X54319Y14393D01*
G01X54357Y14413D01*
G01X54386Y14440D01*
G01X54406Y14473D01*
G01X54418Y14511D01*
G01X54421Y14553D01*
G01X54413Y14598D01*
G01X54397Y14644D01*
G01X54371Y14691D01*
G01X54295Y14808D01*
G01X53728Y14826D01*
G01X53982Y14845D01*
G01X54100Y14858D01*
G01X54196Y14882D01*
G01X54270Y14915D01*
G01X54324Y14959D01*
G37*

%LPD*%
G36*
G01X60188Y15105D02*
G01X59990Y15105D01*
G01X59990Y14313D01*
G01X60188Y14313D01*
G01X60188Y15105D01*
G37*

%LPD*%
G36*
G01X55224Y15097D02*
G01X55165Y15097D01*
G01X55101Y15096D01*
G01X55035Y15093D01*
G01X54967Y15089D01*
G01X54898Y15084D01*
G01X54832Y15077D01*
G01X54768Y15069D01*
G01X54704Y15056D01*
G01X54648Y15041D01*
G01X54601Y15020D01*
G01X54563Y14996D01*
G01X54533Y14967D01*
G01X54512Y14935D01*
G01X54499Y14898D01*
G01X54495Y14858D01*
G01X54501Y14808D01*
G01X54520Y14766D01*
G01X54551Y14730D01*
G01X54597Y14699D01*
G01X54658Y14673D01*
G01X54734Y14653D01*
G01X54828Y14636D01*
G01X54939Y14624D01*
G01X55055Y14610D01*
G01X55150Y14593D01*
G01X55214Y14574D01*
G01X55237Y14556D01*
G01X55212Y14539D01*
G01X55139Y14523D01*
G01X55034Y14510D01*
G01X54904Y14501D01*
G01X54570Y14486D01*
G01X54554Y14400D01*
G01X54537Y14313D01*
G01X54831Y14313D01*
G01X54924Y14315D01*
G01X55011Y14320D01*
G01X55091Y14327D01*
G01X55163Y14339D01*
G01X55227Y14353D01*
G01X55284Y14370D01*
G01X55333Y14390D01*
G01X55375Y14413D01*
G01X55408Y14439D01*
G01X55433Y14467D01*
G01X55450Y14498D01*
G01X55459Y14532D01*
G01X55460Y14568D01*
G01X55452Y14607D01*
G01X55436Y14648D01*
G01X55411Y14691D01*
G01X55334Y14808D01*
G01X55075Y14812D01*
G01X54817Y14815D01*
G01X54916Y14858D01*
G01X54967Y14875D01*
G01X55031Y14889D01*
G01X55102Y14899D01*
G01X55170Y14903D01*
G01X55226Y14910D01*
G01X55280Y14923D01*
G01X55327Y14942D01*
G01X55367Y14966D01*
G01X55396Y14992D01*
G01X55414Y15020D01*
G01X55416Y15048D01*
G01X55402Y15073D01*
G01X55387Y15080D01*
G01X55360Y15087D01*
G01X55323Y15091D01*
G01X55278Y15095D01*
G01X55224Y15097D01*
G37*

%LPD*%
G36*
G01X52835Y15049D02*
G01X52813Y15056D01*
G01X52788Y15050D01*
G01X52757Y15032D01*
G01X52721Y15004D01*
G01X52679Y14964D01*
G01X52633Y14915D01*
G01X52583Y14857D01*
G01X52529Y14790D01*
G01X52472Y14714D01*
G01X52423Y14645D01*
G01X52378Y14579D01*
G01X52339Y14518D01*
G01X52306Y14465D01*
G01X52280Y14418D01*
G01X52262Y14381D01*
G01X52253Y14356D01*
G01X52254Y14343D01*
G01X52287Y14320D01*
G01X52325Y14311D01*
G01X52367Y14315D01*
G01X52413Y14333D01*
G01X52462Y14365D01*
G01X52513Y14410D01*
G01X52565Y14467D01*
G01X52619Y14536D01*
G01X52680Y14618D01*
G01X52729Y14680D01*
G01X52770Y14722D01*
G01X52804Y14744D01*
G01X52832Y14749D01*
G01X52858Y14736D01*
G01X52883Y14707D01*
G01X52909Y14663D01*
G01X52948Y14582D01*
G01X52949Y14537D01*
G01X52902Y14515D01*
G01X52800Y14502D01*
G01X52729Y14489D01*
G01X52676Y14468D01*
G01X52641Y14438D01*
G01X52623Y14400D01*
G01X52606Y14313D01*
G01X52981Y14313D01*
G01X53068Y14314D01*
G01X53143Y14317D01*
G01X53207Y14321D01*
G01X53261Y14327D01*
G01X53302Y14335D01*
G01X53332Y14345D01*
G01X53350Y14356D01*
G01X53356Y14369D01*
G01X53351Y14395D01*
G01X53337Y14432D01*
G01X53314Y14475D01*
G01X53285Y14525D01*
G01X53249Y14579D01*
G01X53209Y14637D01*
G01X53165Y14696D01*
G01X53119Y14756D01*
G01X53072Y14814D01*
G01X53026Y14869D01*
G01X52980Y14920D01*
G01X52937Y14964D01*
G01X52898Y15002D01*
G01X52863Y15031D01*
G01X52835Y15049D01*
G37*

%LPD*%
G36*
G01X62366Y15105D02*
G01X62168Y15105D01*
G01X62168Y14907D01*
G01X62166Y14830D01*
G01X62159Y14767D01*
G01X62149Y14725D01*
G01X62136Y14709D01*
G01X62107Y14723D01*
G01X62052Y14760D01*
G01X61978Y14815D01*
G01X61893Y14882D01*
G01X61804Y14950D01*
G01X61721Y15005D01*
G01X61650Y15042D01*
G01X61603Y15056D01*
G01X61525Y15056D01*
G01X61517Y14759D01*
G01X61514Y14638D01*
G01X61511Y14531D01*
G01X61508Y14447D01*
G01X61505Y14400D01*
G01X61512Y14375D01*
G01X61534Y14351D01*
G01X61569Y14333D01*
G01X61611Y14322D01*
G01X61723Y14306D01*
G01X61723Y14508D01*
G01X61725Y14574D01*
G01X61733Y14628D01*
G01X61744Y14669D01*
G01X61760Y14696D01*
G01X61778Y14709D01*
G01X61800Y14707D01*
G01X61823Y14690D01*
G01X61849Y14657D01*
G01X61884Y14614D01*
G01X61941Y14563D01*
G01X62013Y14507D01*
G01X62091Y14453D01*
G01X62169Y14404D01*
G01X62239Y14366D01*
G01X62293Y14344D01*
G01X62323Y14342D01*
G01X62332Y14354D01*
G01X62340Y14381D01*
G01X62347Y14420D01*
G01X62353Y14469D01*
G01X62359Y14527D01*
G01X62363Y14592D01*
G01X62366Y14662D01*
G01X62366Y15105D01*
G37*

%LPD*%
G36*
G01X58652Y15045D02*
G01X58617Y15046D01*
G01X58582Y15035D01*
G01X58547Y15015D01*
G01X58509Y14984D01*
G01X58470Y14944D01*
G01X58431Y14899D01*
G01X58389Y14848D01*
G01X58344Y14791D01*
G01X58299Y14730D01*
G01X58253Y14668D01*
G01X58210Y14607D01*
G01X58169Y14548D01*
G01X58133Y14494D01*
G01X58103Y14445D01*
G01X58080Y14405D01*
G01X58064Y14374D01*
G01X58059Y14355D01*
G01X58069Y14320D01*
G01X58095Y14305D01*
G01X58136Y14308D01*
G01X58186Y14327D01*
G01X58245Y14362D01*
G01X58309Y14410D01*
G01X58374Y14470D01*
G01X58438Y14541D01*
G01X58624Y14769D01*
G01X58719Y14653D01*
G01X58814Y14536D01*
G01X58672Y14519D01*
G01X58567Y14497D01*
G01X58483Y14459D01*
G01X58427Y14411D01*
G01X58406Y14356D01*
G01X58414Y14348D01*
G01X58437Y14340D01*
G01X58474Y14332D01*
G01X58522Y14326D01*
G01X58581Y14320D01*
G01X58648Y14317D01*
G01X58722Y14314D01*
G01X58802Y14313D01*
G01X58881Y14314D01*
G01X58956Y14315D01*
G01X59023Y14318D01*
G01X59081Y14322D01*
G01X59130Y14326D01*
G01X59167Y14331D01*
G01X59190Y14337D01*
G01X59198Y14343D01*
G01X59193Y14355D01*
G01X59180Y14381D01*
G01X59159Y14417D01*
G01X59131Y14464D01*
G01X59097Y14518D01*
G01X59058Y14579D01*
G01X59015Y14644D01*
G01X58969Y14714D01*
G01X58910Y14799D01*
G01X58857Y14871D01*
G01X58810Y14930D01*
G01X58766Y14977D01*
G01X58726Y15011D01*
G01X58688Y15034D01*
G01X58652Y15045D01*
G37*

%LPD*%
G36*
G01X50649Y18437D02*
G01X50618Y18441D01*
G01X50568Y18429D01*
G01X50506Y18404D01*
G01X50439Y18368D01*
G01X50277Y18269D01*
G01X50305Y18110D01*
G01X50311Y18070D01*
G01X50322Y17949D01*
G01X50328Y17875D01*
G01X50332Y17793D01*
G01X50337Y17707D01*
G01X50340Y17619D01*
G01X50342Y17531D01*
G01X50352Y17111D01*
G01X50084Y16950D01*
G01X49982Y16890D01*
G01X49897Y16845D01*
G01X49826Y16815D01*
G01X49765Y16798D01*
G01X49712Y16795D01*
G01X49664Y16805D01*
G01X49616Y16827D01*
G01X49567Y16861D01*
G01X49527Y16885D01*
G01X49478Y16903D01*
G01X49421Y16918D01*
G01X49359Y16927D01*
G01X49291Y16932D01*
G01X49220Y16933D01*
G01X49148Y16929D01*
G01X49074Y16920D01*
G01X49003Y16908D01*
G01X48934Y16890D01*
G01X48870Y16868D01*
G01X48811Y16842D01*
G01X48772Y16821D01*
G01X48730Y16795D01*
G01X48688Y16765D01*
G01X48644Y16732D01*
G01X48600Y16695D01*
G01X48555Y16656D01*
G01X48510Y16614D01*
G01X48466Y16571D01*
G01X48421Y16524D01*
G01X48377Y16477D01*
G01X48334Y16428D01*
G01X48292Y16378D01*
G01X48252Y16327D01*
G01X48213Y16275D01*
G01X48176Y16224D01*
G01X48141Y16172D01*
G01X48109Y16121D01*
G01X48079Y16070D01*
G01X48052Y16021D01*
G01X48028Y15972D01*
G01X48007Y15921D01*
G01X47986Y15868D01*
G01X47967Y15812D01*
G01X47950Y15754D01*
G01X47934Y15694D01*
G01X47920Y15633D01*
G01X47907Y15571D01*
G01X47897Y15508D01*
G01X47888Y15445D01*
G01X47880Y15382D01*
G01X47874Y15320D01*
G01X47870Y15258D01*
G01X47868Y15198D01*
G01X47868Y15139D01*
G01X47870Y15082D01*
G01X47873Y15027D01*
G01X47879Y14976D01*
G01X47887Y14927D01*
G01X47897Y14881D01*
G01X47908Y14839D01*
G01X47933Y14774D01*
G01X47961Y14711D01*
G01X47993Y14653D01*
G01X48028Y14597D01*
G01X48068Y14545D01*
G01X48109Y14498D01*
G01X48154Y14454D01*
G01X48202Y14415D01*
G01X48251Y14382D01*
G01X48303Y14353D01*
G01X48357Y14329D01*
G01X48413Y14311D01*
G01X48611Y14258D01*
G01X48848Y14337D01*
G01X48902Y14356D01*
G01X48954Y14378D01*
G01X49006Y14402D01*
G01X49057Y14429D01*
G01X49107Y14458D01*
G01X49156Y14490D01*
G01X49204Y14524D01*
G01X49251Y14560D01*
G01X49297Y14599D01*
G01X49342Y14640D01*
G01X49385Y14682D01*
G01X49427Y14728D01*
G01X49468Y14775D01*
G01X49508Y14824D01*
G01X49546Y14875D01*
G01X49582Y14928D01*
G01X49618Y14983D01*
G01X49652Y15040D01*
G01X49684Y15098D01*
G01X49714Y15158D01*
G01X49743Y15220D01*
G01X49771Y15283D01*
G01X49797Y15348D01*
G01X49821Y15415D01*
G01X49897Y15640D01*
G01X50159Y15814D01*
G01X50422Y15988D01*
G01X50453Y15539D01*
G01X50460Y15445D01*
G01X50466Y15353D01*
G01X50471Y15262D01*
G01X50476Y15177D01*
G01X50479Y15099D01*
G01X50483Y15031D01*
G01X50485Y14977D01*
G01X50485Y14784D01*
G01X49024Y13818D01*
G01X47563Y12853D01*
G01X47589Y12456D01*
G01X47762Y12472D01*
G01X47815Y12477D01*
G01X47869Y12484D01*
G01X47925Y12493D01*
G01X47981Y12503D01*
G01X48039Y12515D01*
G01X48098Y12528D01*
G01X48158Y12543D01*
G01X48218Y12559D01*
G01X48280Y12576D01*
G01X48404Y12614D01*
G01X48530Y12658D01*
G01X48593Y12681D01*
G01X48657Y12706D01*
G01X48783Y12758D01*
G01X48846Y12786D01*
G01X48909Y12815D01*
G01X48971Y12844D01*
G01X49032Y12874D01*
G01X49154Y12936D01*
G01X49213Y12969D01*
G01X49271Y13002D01*
G01X49328Y13036D01*
G01X49384Y13070D01*
G01X49438Y13104D01*
G01X49491Y13139D01*
G01X49543Y13175D01*
G01X49593Y13211D01*
G01X49641Y13247D01*
G01X49689Y13284D01*
G01X49735Y13322D01*
G01X49827Y13400D01*
G01X49917Y13482D01*
G01X49961Y13525D01*
G01X50006Y13568D01*
G01X50049Y13612D01*
G01X50091Y13656D01*
G01X50134Y13702D01*
G01X50175Y13748D01*
G01X50216Y13795D01*
G01X50296Y13891D01*
G01X50374Y13989D01*
G01X50411Y14039D01*
G01X50485Y14141D01*
G01X50521Y14193D01*
G01X50556Y14245D01*
G01X50590Y14298D01*
G01X50623Y14351D01*
G01X50656Y14405D01*
G01X50688Y14459D01*
G01X50719Y14513D01*
G01X50749Y14568D01*
G01X50779Y14624D01*
G01X50807Y14679D01*
G01X50835Y14735D01*
G01X50862Y14791D01*
G01X50888Y14847D01*
G01X50913Y14903D01*
G01X50937Y14960D01*
G01X50960Y15017D01*
G01X50982Y15074D01*
G01X51004Y15132D01*
G01X51024Y15189D01*
G01X51043Y15246D01*
G01X51062Y15304D01*
G01X51079Y15361D01*
G01X51095Y15419D01*
G01X51110Y15476D01*
G01X51121Y15522D01*
G01X51131Y15571D01*
G01X51141Y15622D01*
G01X51150Y15675D01*
G01X51158Y15730D01*
G01X51165Y15787D01*
G01X51172Y15845D01*
G01X51178Y15906D01*
G01X51183Y15967D01*
G01X51188Y16030D01*
G01X51192Y16093D01*
G01X51195Y16157D01*
G01X51197Y16222D01*
G01X51199Y16288D01*
G01X51200Y16354D01*
G01X51200Y16486D01*
G01X51199Y16551D01*
G01X51197Y16617D01*
G01X51194Y16681D01*
G01X51191Y16746D01*
G01X51187Y16809D01*
G01X51182Y16871D01*
G01X51177Y16932D01*
G01X51171Y16992D01*
G01X51164Y17050D01*
G01X51156Y17107D01*
G01X51148Y17162D01*
G01X51139Y17214D01*
G01X51130Y17264D01*
G01X51119Y17312D01*
G01X51108Y17358D01*
G01X51093Y17414D01*
G01X51074Y17474D01*
G01X51054Y17538D01*
G01X51032Y17604D01*
G01X51008Y17672D01*
G01X50983Y17741D01*
G01X50902Y17948D01*
G01X50874Y18014D01*
G01X50846Y18078D01*
G01X50818Y18140D01*
G01X50792Y18197D01*
G01X50766Y18250D01*
G01X50742Y18298D01*
G01X50719Y18341D01*
G01X50698Y18376D01*
G01X50679Y18405D01*
G01X50662Y18425D01*
G01X50649Y18437D01*
G37*

%LPD*%
G36*
G01X43797Y18053D02*
G01X43650Y18129D01*
G01X43578Y17958D01*
G01X43562Y17915D01*
G01X43542Y17860D01*
G01X43519Y17795D01*
G01X43495Y17722D01*
G01X43470Y17644D01*
G01X43420Y17480D01*
G01X43396Y17398D01*
G01X43286Y17011D01*
G01X43288Y16417D01*
G01X43288Y16345D01*
G01X43289Y16276D01*
G01X43291Y16207D01*
G01X43294Y16141D01*
G01X43297Y16077D01*
G01X43301Y16014D01*
G01X43306Y15952D01*
G01X43312Y15892D01*
G01X43318Y15833D01*
G01X43326Y15774D01*
G01X43334Y15717D01*
G01X43343Y15660D01*
G01X43353Y15604D01*
G01X43364Y15549D01*
G01X43376Y15494D01*
G01X43389Y15439D01*
G01X43404Y15385D01*
G01X43418Y15331D01*
G01X43435Y15276D01*
G01X43452Y15222D01*
G01X43490Y15112D01*
G01X43511Y15056D01*
G01X43533Y15000D01*
G01X43556Y14943D01*
G01X43580Y14885D01*
G01X43606Y14826D01*
G01X43633Y14766D01*
G01X43660Y14709D01*
G01X43688Y14653D01*
G01X43716Y14596D01*
G01X43745Y14540D01*
G01X43775Y14485D01*
G01X43806Y14431D01*
G01X43870Y14323D01*
G01X43904Y14270D01*
G01X43938Y14218D01*
G01X44008Y14116D01*
G01X44045Y14065D01*
G01X44082Y14015D01*
G01X44119Y13967D01*
G01X44158Y13918D01*
G01X44198Y13870D01*
G01X44278Y13776D01*
G01X44320Y13730D01*
G01X44362Y13685D01*
G01X44405Y13641D01*
G01X44449Y13597D01*
G01X44493Y13554D01*
G01X44538Y13511D01*
G01X44583Y13469D01*
G01X44630Y13428D01*
G01X44724Y13348D01*
G01X44773Y13309D01*
G01X44821Y13271D01*
G01X44871Y13233D01*
G01X44921Y13197D01*
G01X44972Y13161D01*
G01X45024Y13125D01*
G01X45076Y13090D01*
G01X45182Y13024D01*
G01X45236Y12991D01*
G01X45290Y12960D01*
G01X45345Y12929D01*
G01X45401Y12899D01*
G01X45457Y12870D01*
G01X45514Y12842D01*
G01X45571Y12815D01*
G01X45629Y12788D01*
G01X45688Y12762D01*
G01X45746Y12737D01*
G01X45798Y12716D01*
G01X45852Y12696D01*
G01X45907Y12676D01*
G01X45963Y12656D01*
G01X46081Y12618D01*
G01X46141Y12601D01*
G01X46201Y12583D01*
G01X46262Y12567D01*
G01X46324Y12551D01*
G01X46384Y12536D01*
G01X46446Y12521D01*
G01X46507Y12508D01*
G01X46627Y12484D01*
G01X46743Y12464D01*
G01X46799Y12456D01*
G01X46853Y12449D01*
G01X46906Y12443D01*
G01X46957Y12438D01*
G01X47005Y12435D01*
G01X47051Y12433D01*
G01X47095Y12432D01*
G01X47322Y12432D01*
G01X47308Y12641D01*
G01X47292Y12850D01*
G01X46500Y13267D01*
G01X46466Y13481D01*
G01X46460Y13529D01*
G01X46453Y13584D01*
G01X46447Y13645D01*
G01X46442Y13709D01*
G01X46437Y13774D01*
G01X46433Y13838D01*
G01X46431Y13900D01*
G01X46429Y13958D01*
G01X46426Y14220D01*
G01X46571Y14343D01*
G01X46604Y14373D01*
G01X46635Y14405D01*
G01X46664Y14440D01*
G01X46690Y14476D01*
G01X46714Y14513D01*
G01X46735Y14553D01*
G01X46754Y14595D01*
G01X46771Y14637D01*
G01X46785Y14681D01*
G01X46798Y14727D01*
G01X46808Y14774D01*
G01X46815Y14822D01*
G01X46821Y14871D01*
G01X46824Y14921D01*
G01X46826Y14972D01*
G01X46825Y15023D01*
G01X46823Y15076D01*
G01X46818Y15129D01*
G01X46811Y15182D01*
G01X46803Y15237D01*
G01X46792Y15291D01*
G01X46780Y15345D01*
G01X46765Y15400D01*
G01X46749Y15455D01*
G01X46731Y15510D01*
G01X46712Y15565D01*
G01X46690Y15619D01*
G01X46666Y15674D01*
G01X46642Y15727D01*
G01X46615Y15781D01*
G01X46587Y15834D01*
G01X46557Y15886D01*
G01X46525Y15938D01*
G01X46492Y15989D01*
G01X46457Y16038D01*
G01X46421Y16087D01*
G01X46383Y16135D01*
G01X46344Y16181D01*
G01X46304Y16227D01*
G01X46262Y16270D01*
G01X46218Y16313D01*
G01X46174Y16354D01*
G01X46128Y16393D01*
G01X46081Y16431D01*
G01X46032Y16467D01*
G01X45982Y16500D01*
G01X45931Y16532D01*
G01X45880Y16562D01*
G01X45619Y16703D01*
G01X45366Y16706D01*
G01X45291Y16705D01*
G01X45222Y16699D01*
G01X45156Y16687D01*
G01X45096Y16671D01*
G01X45039Y16648D01*
G01X44986Y16620D01*
G01X44937Y16587D01*
G01X44891Y16548D01*
G01X44848Y16502D01*
G01X44808Y16450D01*
G01X44770Y16391D01*
G01X44734Y16326D01*
G01X44632Y16126D01*
G01X44655Y15776D01*
G01X44660Y15709D01*
G01X44668Y15643D01*
G01X44679Y15578D01*
G01X44691Y15514D01*
G01X44707Y15450D01*
G01X44725Y15387D01*
G01X44746Y15325D01*
G01X44769Y15263D01*
G01X44795Y15201D01*
G01X44824Y15140D01*
G01X44855Y15078D01*
G01X44890Y15016D01*
G01X44928Y14953D01*
G01X44969Y14890D01*
G01X45013Y14826D01*
G01X45061Y14761D01*
G01X45188Y14591D01*
G01X45188Y14279D01*
G01X45186Y14158D01*
G01X45181Y14058D01*
G01X45173Y13991D01*
G01X45164Y13967D01*
G01X45150Y13971D01*
G01X45118Y13985D01*
G01X45070Y14007D01*
G01X45009Y14035D01*
G01X44936Y14070D01*
G01X44854Y14109D01*
G01X44764Y14154D01*
G01X44669Y14200D01*
G01X44198Y14435D01*
G01X44196Y14584D01*
G01X44195Y14618D01*
G01X44194Y14656D01*
G01X44192Y14699D01*
G01X44191Y14746D01*
G01X44189Y14797D01*
G01X44187Y14852D01*
G01X44184Y14911D01*
G01X44181Y14973D01*
G01X44178Y15038D01*
G01X44175Y15106D01*
G01X44171Y15177D01*
G01X44167Y15250D01*
G01X44163Y15326D01*
G01X44158Y15404D01*
G01X44154Y15485D01*
G01X44149Y15566D01*
G01X44145Y15650D01*
G01X44135Y15820D01*
G01X44129Y15907D01*
G01X44119Y16083D01*
G01X44113Y16171D01*
G01X44102Y16348D01*
G01X44096Y16436D01*
G01X44091Y16523D01*
G01X44079Y16695D01*
G01X44074Y16780D01*
G01X44068Y16863D01*
G01X44062Y16944D01*
G01X44057Y17024D01*
G01X44052Y17102D01*
G01X44046Y17177D01*
G01X44041Y17250D01*
G01X44036Y17321D01*
G01X44031Y17388D01*
G01X44026Y17453D01*
G01X44021Y17514D01*
G01X44017Y17571D01*
G01X44012Y17626D01*
G01X44008Y17676D01*
G01X44004Y17722D01*
G01X44000Y17763D01*
G01X43996Y17801D01*
G01X43993Y17834D01*
G01X43990Y17861D01*
G01X43987Y17883D01*
G01X43985Y17901D01*
G01X43983Y17912D01*
G01X43981Y17918D01*
G01X43955Y17947D01*
G01X43912Y17982D01*
G01X43857Y18019D01*
G01X43797Y18053D01*
G37*

%LPD*%
G36*
G01X57267Y13323D02*
G01X56871Y13323D01*
G01X56871Y12355D01*
G01X56948Y12245D01*
G01X56991Y12195D01*
G01X57049Y12142D01*
G01X57117Y12091D01*
G01X57184Y12050D01*
G01X57342Y11965D01*
G01X57762Y11968D01*
G01X57839Y11969D01*
G01X57911Y11971D01*
G01X57979Y11975D01*
G01X58042Y11981D01*
G01X58102Y11988D01*
G01X58158Y11997D01*
G01X58211Y12008D01*
G01X58259Y12021D01*
G01X58305Y12035D01*
G01X58346Y12053D01*
G01X58385Y12072D01*
G01X58421Y12094D01*
G01X58453Y12119D01*
G01X58483Y12146D01*
G01X58509Y12176D01*
G01X58533Y12209D01*
G01X58555Y12245D01*
G01X58574Y12284D01*
G01X58590Y12327D01*
G01X58605Y12373D01*
G01X58617Y12422D01*
G01X58627Y12475D01*
G01X58636Y12532D01*
G01X58643Y12592D01*
G01X58648Y12657D01*
G01X58651Y12725D01*
G01X58653Y12798D01*
G01X58653Y13323D01*
G01X58208Y13323D01*
G01X58208Y12434D01*
G01X58084Y12353D01*
G01X57959Y12271D01*
G01X57680Y12294D01*
G01X57614Y12300D01*
G01X57556Y12308D01*
G01X57505Y12318D01*
G01X57459Y12330D01*
G01X57420Y12346D01*
G01X57387Y12365D01*
G01X57359Y12389D01*
G01X57335Y12419D01*
G01X57316Y12453D01*
G01X57300Y12495D01*
G01X57289Y12543D01*
G01X57280Y12599D01*
G01X57273Y12663D01*
G01X57270Y12736D01*
G01X57268Y12819D01*
G01X57267Y12912D01*
G01X57267Y13323D01*
G37*

%LPD*%
G36*
G01X52614Y13323D02*
G01X52218Y13323D01*
G01X52218Y12325D01*
G01X52359Y12185D01*
G01X52395Y12151D01*
G01X52434Y12120D01*
G01X52475Y12092D01*
G01X52520Y12066D01*
G01X52568Y12042D01*
G01X52618Y12021D01*
G01X52670Y12003D01*
G01X52725Y11987D01*
G01X52783Y11973D01*
G01X52842Y11963D01*
G01X52904Y11955D01*
G01X52968Y11949D01*
G01X53034Y11946D01*
G01X53102Y11946D01*
G01X53172Y11948D01*
G01X53244Y11954D01*
G01X53317Y11962D01*
G01X53386Y11971D01*
G01X53451Y11982D01*
G01X53511Y11995D01*
G01X53567Y12009D01*
G01X53619Y12026D01*
G01X53667Y12045D01*
G01X53710Y12067D01*
G01X53750Y12092D01*
G01X53787Y12119D01*
G01X53821Y12150D01*
G01X53850Y12184D01*
G01X53877Y12221D01*
G01X53900Y12261D01*
G01X53921Y12306D01*
G01X53939Y12354D01*
G01X53955Y12406D01*
G01X53967Y12463D01*
G01X53978Y12523D01*
G01X53986Y12589D01*
G01X53992Y12660D01*
G01X53997Y12735D01*
G01X53999Y12815D01*
G01X54000Y12900D01*
G01X54000Y13323D01*
G01X53554Y13323D01*
G01X53554Y12444D01*
G01X53473Y12376D01*
G01X53449Y12361D01*
G01X53417Y12348D01*
G01X53377Y12337D01*
G01X53330Y12326D01*
G01X53276Y12319D01*
G01X53217Y12313D01*
G01X53153Y12309D01*
G01X53084Y12308D01*
G01X53016Y12309D01*
G01X52951Y12313D01*
G01X52892Y12319D01*
G01X52839Y12326D01*
G01X52791Y12337D01*
G01X52751Y12348D01*
G01X52719Y12361D01*
G01X52696Y12376D01*
G01X52614Y12444D01*
G01X52614Y13323D01*
G37*

%LPD*%
G36*
G01X56736Y13323D02*
G01X55348Y13323D01*
G01X55084Y12977D01*
G01X55634Y12977D01*
G01X55634Y11937D01*
G01X56030Y11937D01*
G01X56030Y12123D01*
G01X56031Y12166D01*
G01X56032Y12221D01*
G01X56035Y12283D01*
G01X56040Y12351D01*
G01X56044Y12423D01*
G01X56050Y12497D01*
G01X56055Y12569D01*
G01X56062Y12640D01*
G01X56093Y12972D01*
G01X56488Y13001D01*
G01X56736Y13323D01*
G37*

%LPD*%
G36*
G01X54492Y13323D02*
G01X54099Y13323D01*
G01X54099Y11937D01*
G01X55312Y11939D01*
G01X55536Y12259D01*
G01X55028Y12283D01*
G01X54520Y12308D01*
G01X54506Y12816D01*
G01X54492Y13323D01*
G37*

%LPD*%
G36*
G01X51908Y13162D02*
G01X52032Y13323D01*
G01X51445Y13322D01*
G01X50856Y13321D01*
G01X50656Y13230D01*
G01X50604Y13204D01*
G01X50555Y13175D01*
G01X50510Y13143D01*
G01X50469Y13110D01*
G01X50431Y13074D01*
G01X50398Y13036D01*
G01X50368Y12996D01*
G01X50341Y12955D01*
G01X50319Y12912D01*
G01X50300Y12868D01*
G01X50285Y12824D01*
G01X50273Y12778D01*
G01X50265Y12732D01*
G01X50261Y12685D01*
G01X50260Y12638D01*
G01X50263Y12592D01*
G01X50269Y12545D01*
G01X50279Y12498D01*
G01X50293Y12452D01*
G01X50309Y12407D01*
G01X50330Y12363D01*
G01X50354Y12320D01*
G01X50381Y12278D01*
G01X50411Y12238D01*
G01X50445Y12199D01*
G01X50483Y12163D01*
G01X50524Y12128D01*
G01X50568Y12096D01*
G01X50615Y12066D01*
G01X50666Y12039D01*
G01X50720Y12014D01*
G01X50777Y11993D01*
G01X50819Y11982D01*
G01X50875Y11971D01*
G01X50941Y11962D01*
G01X51016Y11954D01*
G01X51097Y11946D01*
G01X51182Y11941D01*
G01X51268Y11938D01*
G01X51353Y11937D01*
G01X51761Y11937D01*
G01X52017Y12273D01*
G01X50891Y12309D01*
G01X50787Y12403D01*
G01X50744Y12452D01*
G01X50712Y12508D01*
G01X50693Y12568D01*
G01X50687Y12630D01*
G01X50693Y12692D01*
G01X50712Y12752D01*
G01X50744Y12808D01*
G01X50787Y12857D01*
G01X50891Y12952D01*
G01X51338Y12977D01*
G01X51785Y13001D01*
G01X51908Y13162D01*
G37*

%LPD*%
G36*
G01X62429Y13323D02*
G01X60928Y13323D01*
G01X60955Y11962D01*
G01X61555Y11948D01*
G01X62154Y11934D01*
G01X62287Y12108D01*
G01X62421Y12283D01*
G01X61376Y12283D01*
G01X61376Y12481D01*
G01X62112Y12481D01*
G01X62214Y12625D01*
G01X62254Y12683D01*
G01X62287Y12735D01*
G01X62309Y12775D01*
G01X62317Y12798D01*
G01X62307Y12804D01*
G01X62280Y12810D01*
G01X62236Y12815D01*
G01X62179Y12819D01*
G01X62109Y12823D01*
G01X62029Y12826D01*
G01X61941Y12827D01*
G01X61846Y12828D01*
G01X61376Y12828D01*
G01X61376Y12973D01*
G01X62181Y13001D01*
G01X62429Y13323D01*
G37*

%LPD*%
G36*
G01X60163Y13321D02*
G01X59074Y13321D01*
G01X58850Y13001D01*
G01X59432Y12989D01*
G01X59558Y12986D01*
G01X59670Y12983D01*
G01X59770Y12980D01*
G01X59857Y12976D01*
G01X59933Y12971D01*
G01X59998Y12965D01*
G01X60054Y12958D01*
G01X60100Y12951D01*
G01X60139Y12942D01*
G01X60170Y12931D01*
G01X60193Y12919D01*
G01X60211Y12905D01*
G01X60224Y12889D01*
G01X60232Y12871D01*
G01X60236Y12851D01*
G01X60238Y12829D01*
G01X60236Y12800D01*
G01X60230Y12774D01*
G01X60218Y12751D01*
G01X60202Y12730D01*
G01X60180Y12712D01*
G01X60152Y12696D01*
G01X60117Y12681D01*
G01X60076Y12670D01*
G01X60026Y12659D01*
G01X59968Y12651D01*
G01X59902Y12644D01*
G01X59826Y12639D01*
G01X59741Y12635D01*
G01X59646Y12632D01*
G01X59541Y12630D01*
G01X58802Y12630D01*
G01X58802Y11931D01*
G01X59223Y11962D01*
G01X59238Y12123D01*
G01X59254Y12283D01*
G01X59832Y12283D01*
G01X60247Y11937D01*
G01X60515Y11937D01*
G01X60619Y11939D01*
G01X60703Y11946D01*
G01X60761Y11957D01*
G01X60782Y11969D01*
G01X60766Y11995D01*
G01X60724Y12042D01*
G01X60661Y12103D01*
G01X60584Y12171D01*
G01X60385Y12342D01*
G01X60683Y12620D01*
G01X60683Y12777D01*
G01X60679Y12857D01*
G01X60667Y12929D01*
G01X60645Y12992D01*
G01X60614Y13048D01*
G01X60571Y13099D01*
G01X60517Y13144D01*
G01X60450Y13187D01*
G01X60370Y13227D01*
G01X60163Y13321D01*
G37*

%LPD*%
G36*
G01X53416Y11087D02*
G01X53385Y11095D01*
G01X53354Y11087D01*
G01X53325Y11065D01*
G01X53299Y11032D01*
G01X53281Y10992D01*
G01X53265Y10915D01*
G01X53277Y10867D01*
G01X53315Y10851D01*
G01X53379Y10865D01*
G01X53411Y10885D01*
G01X53434Y10916D01*
G01X53448Y10954D01*
G01X53454Y10994D01*
G01X53450Y11032D01*
G01X53438Y11065D01*
G01X53416Y11087D01*
G37*

%LPD*%
G36*
G01X62429Y10996D02*
G01X60977Y10996D01*
G01X61005Y9684D01*
G01X62180Y9684D01*
G01X62304Y9845D01*
G01X62429Y10006D01*
G01X61426Y10006D01*
G01X61426Y10155D01*
G01X62051Y10155D01*
G01X62184Y10293D01*
G01X62236Y10350D01*
G01X62278Y10402D01*
G01X62306Y10442D01*
G01X62317Y10467D01*
G01X62308Y10474D01*
G01X62282Y10480D01*
G01X62240Y10486D01*
G01X62186Y10491D01*
G01X62120Y10495D01*
G01X62044Y10499D01*
G01X61961Y10501D01*
G01X61426Y10501D01*
G01X61426Y10645D01*
G01X61803Y10660D01*
G01X62181Y10674D01*
G01X62429Y10996D01*
G37*

%LPD*%
G36*
G01X59545Y10996D02*
G01X59149Y10996D01*
G01X59149Y10063D01*
G01X59272Y9916D01*
G01X59304Y9881D01*
G01X59341Y9849D01*
G01X59381Y9820D01*
G01X59425Y9793D01*
G01X59472Y9769D01*
G01X59523Y9747D01*
G01X59577Y9728D01*
G01X59634Y9712D01*
G01X59694Y9698D01*
G01X59756Y9688D01*
G01X59820Y9680D01*
G01X59887Y9676D01*
G01X59956Y9674D01*
G01X60026Y9675D01*
G01X60098Y9679D01*
G01X60172Y9687D01*
G01X60241Y9696D01*
G01X60307Y9707D01*
G01X60367Y9718D01*
G01X60424Y9732D01*
G01X60476Y9747D01*
G01X60525Y9765D01*
G01X60570Y9784D01*
G01X60611Y9806D01*
G01X60649Y9830D01*
G01X60683Y9856D01*
G01X60714Y9886D01*
G01X60742Y9918D01*
G01X60767Y9954D01*
G01X60789Y9993D01*
G01X60808Y10035D01*
G01X60825Y10081D01*
G01X60839Y10130D01*
G01X60851Y10184D01*
G01X60861Y10242D01*
G01X60869Y10304D01*
G01X60874Y10371D01*
G01X60878Y10442D01*
G01X60880Y10517D01*
G01X60881Y10599D01*
G01X60881Y10996D01*
G01X60498Y10996D01*
G01X60475Y10569D01*
G01X60453Y10141D01*
G01X60358Y10070D01*
G01X60263Y9998D01*
G01X59950Y10017D01*
G01X59877Y10023D01*
G01X59812Y10030D01*
G01X59755Y10039D01*
G01X59706Y10050D01*
G01X59664Y10062D01*
G01X59631Y10076D01*
G01X59607Y10091D01*
G01X59591Y10108D01*
G01X59582Y10130D01*
G01X59574Y10168D01*
G01X59566Y10218D01*
G01X59559Y10278D01*
G01X59553Y10348D01*
G01X59549Y10423D01*
G01X59546Y10504D01*
G01X59545Y10588D01*
G01X59545Y10996D01*
G37*

%LPD*%
G36*
G01X48406Y11046D02*
G01X48010Y11046D01*
G01X48010Y10025D01*
G01X48146Y9895D01*
G01X48182Y9864D01*
G01X48221Y9835D01*
G01X48265Y9808D01*
G01X48311Y9783D01*
G01X48362Y9761D01*
G01X48414Y9741D01*
G01X48470Y9723D01*
G01X48528Y9708D01*
G01X48589Y9694D01*
G01X48651Y9684D01*
G01X48715Y9676D01*
G01X48781Y9671D01*
G01X48848Y9668D01*
G01X48916Y9668D01*
G01X48984Y9671D01*
G01X49054Y9677D01*
G01X49126Y9685D01*
G01X49194Y9695D01*
G01X49257Y9707D01*
G01X49315Y9720D01*
G01X49370Y9735D01*
G01X49420Y9753D01*
G01X49467Y9772D01*
G01X49510Y9795D01*
G01X49549Y9819D01*
G01X49585Y9847D01*
G01X49617Y9877D01*
G01X49646Y9911D01*
G01X49672Y9948D01*
G01X49695Y9988D01*
G01X49715Y10032D01*
G01X49733Y10081D01*
G01X49748Y10132D01*
G01X49760Y10189D01*
G01X49771Y10249D01*
G01X49779Y10314D01*
G01X49785Y10384D01*
G01X49789Y10459D01*
G01X49791Y10538D01*
G01X49792Y10624D01*
G01X49792Y11046D01*
G01X49347Y11046D01*
G01X49347Y10610D01*
G01X49346Y10512D01*
G01X49343Y10423D01*
G01X49338Y10343D01*
G01X49331Y10274D01*
G01X49322Y10216D01*
G01X49312Y10170D01*
G01X49300Y10136D01*
G01X49287Y10115D01*
G01X49256Y10097D01*
G01X49204Y10082D01*
G01X49136Y10071D01*
G01X49057Y10063D01*
G01X48968Y10058D01*
G01X48876Y10056D01*
G01X48784Y10058D01*
G01X48696Y10063D01*
G01X48616Y10071D01*
G01X48548Y10082D01*
G01X48497Y10097D01*
G01X48465Y10115D01*
G01X48452Y10136D01*
G01X48440Y10170D01*
G01X48430Y10216D01*
G01X48422Y10274D01*
G01X48415Y10343D01*
G01X48410Y10423D01*
G01X48407Y10512D01*
G01X48406Y10610D01*
G01X48406Y11046D01*
G37*

%LPD*%
G36*
G01X57963Y10982D02*
G01X57862Y10985D01*
G01X57768Y10984D01*
G01X57680Y10982D01*
G01X57600Y10976D01*
G01X57527Y10968D01*
G01X57461Y10957D01*
G01X57403Y10944D01*
G01X57353Y10928D01*
G01X57273Y10896D01*
G01X57204Y10864D01*
G01X57146Y10831D01*
G01X57095Y10795D01*
G01X57051Y10754D01*
G01X57012Y10708D01*
G01X56976Y10655D01*
G01X56942Y10594D01*
G01X56917Y10538D01*
G01X56899Y10481D01*
G01X56886Y10424D01*
G01X56881Y10367D01*
G01X56881Y10309D01*
G01X56888Y10252D01*
G01X56901Y10196D01*
G01X56919Y10140D01*
G01X56944Y10087D01*
G01X56974Y10034D01*
G01X57009Y9984D01*
G01X57050Y9936D01*
G01X57096Y9891D01*
G01X57147Y9849D01*
G01X57203Y9810D01*
G01X57264Y9774D01*
G01X57473Y9663D01*
G01X58187Y9668D01*
G01X58284Y9668D01*
G01X58376Y9670D01*
G01X58464Y9672D01*
G01X58547Y9675D01*
G01X58623Y9678D01*
G01X58691Y9682D01*
G01X58752Y9686D01*
G01X58803Y9691D01*
G01X58845Y9696D01*
G01X58875Y9701D01*
G01X58895Y9707D01*
G01X58901Y9712D01*
G01X58893Y9734D01*
G01X58871Y9762D01*
G01X58838Y9794D01*
G01X58798Y9825D01*
G01X58695Y9897D01*
G01X58774Y10048D01*
G01X58800Y10106D01*
G01X58821Y10164D01*
G01X58837Y10222D01*
G01X58847Y10280D01*
G01X58852Y10337D01*
G01X58851Y10393D01*
G01X58845Y10448D01*
G01X58834Y10503D01*
G01X58817Y10555D01*
G01X58795Y10606D01*
G01X58769Y10655D01*
G01X58737Y10701D01*
G01X58700Y10745D01*
G01X58659Y10786D01*
G01X58612Y10824D01*
G01X58561Y10859D01*
G01X58387Y10966D01*
G01X57963Y10982D01*
G37*

%LPC*%
G36*
G01X58239Y10649D02*
G01X57510Y10649D01*
G01X57389Y10528D01*
G01X57342Y10475D01*
G01X57303Y10419D01*
G01X57277Y10368D01*
G01X57267Y10328D01*
G01X57277Y10288D01*
G01X57303Y10236D01*
G01X57342Y10181D01*
G01X57389Y10128D01*
G01X57510Y10006D01*
G01X57972Y10006D01*
G01X57854Y10150D01*
G01X58142Y10164D01*
G01X58431Y10180D01*
G01X58446Y10311D01*
G01X58445Y10375D01*
G01X58429Y10436D01*
G01X58397Y10493D01*
G01X58350Y10546D01*
G01X58239Y10649D01*
G37*

%LPD*%
G36*
G01X56723Y11046D02*
G01X56327Y11046D01*
G01X56327Y9659D01*
G01X56723Y9659D01*
G01X56723Y11046D01*
G37*

%LPD*%
G36*
G01X54858Y11046D02*
G01X54353Y11046D01*
G01X54228Y10885D01*
G01X54102Y10724D01*
G01X55450Y10674D01*
G01X55504Y10589D01*
G01X55557Y10504D01*
G01X55494Y10441D01*
G01X55479Y10430D01*
G01X55457Y10420D01*
G01X55426Y10412D01*
G01X55387Y10403D01*
G01X55341Y10396D01*
G01X55285Y10389D01*
G01X55221Y10383D01*
G01X55149Y10377D01*
G01X55067Y10372D01*
G01X54977Y10368D01*
G01X54878Y10364D01*
G01X54770Y10361D01*
G01X54108Y10345D01*
G01X54074Y10055D01*
G01X54063Y9938D01*
G01X54060Y9834D01*
G01X54063Y9755D01*
G01X54073Y9712D01*
G01X54101Y9691D01*
G01X54153Y9675D01*
G01X54221Y9664D01*
G01X54300Y9659D01*
G01X54495Y9659D01*
G01X54495Y10006D01*
G01X55104Y10006D01*
G01X55315Y9833D01*
G01X55526Y9659D01*
G01X55815Y9662D01*
G01X56104Y9664D01*
G01X55872Y9866D01*
G01X55639Y10067D01*
G01X55785Y10189D01*
G01X55931Y10312D01*
G01X55931Y10731D01*
G01X55815Y10840D01*
G01X55782Y10868D01*
G01X55748Y10894D01*
G01X55713Y10918D01*
G01X55674Y10939D01*
G01X55633Y10958D01*
G01X55588Y10975D01*
G01X55539Y10989D01*
G01X55486Y11002D01*
G01X55428Y11013D01*
G01X55366Y11022D01*
G01X55297Y11030D01*
G01X55223Y11036D01*
G01X55142Y11040D01*
G01X55055Y11043D01*
G01X54961Y11045D01*
G01X54858Y11046D01*
G37*

%LPD*%
G36*
G01X50545Y11043D02*
G01X50514Y11046D01*
G01X50465Y11041D01*
G01X50417Y11027D01*
G01X50376Y11008D01*
G01X50346Y10983D01*
G01X50338Y10967D01*
G01X50325Y10936D01*
G01X50307Y10893D01*
G01X50287Y10837D01*
G01X50264Y10771D01*
G01X50239Y10698D01*
G01X50212Y10617D01*
G01X50184Y10531D01*
G01X50155Y10442D01*
G01X50127Y10351D01*
G01X50098Y10259D01*
G01X50071Y10169D01*
G01X50044Y10083D01*
G01X50020Y10000D01*
G01X49998Y9924D01*
G01X49979Y9855D01*
G01X49963Y9797D01*
G01X49951Y9748D01*
G01X49943Y9713D01*
G01X49940Y9692D01*
G01X49958Y9680D01*
G01X50006Y9669D01*
G01X50076Y9662D01*
G01X50161Y9659D01*
G01X50382Y9659D01*
G01X50433Y9848D01*
G01X50455Y9934D01*
G01X50478Y10028D01*
G01X50499Y10118D01*
G01X50516Y10194D01*
G01X50530Y10256D01*
G01X50548Y10306D01*
G01X50565Y10340D01*
G01X50580Y10353D01*
G01X50591Y10346D01*
G01X50608Y10327D01*
G01X50631Y10297D01*
G01X50659Y10258D01*
G01X50691Y10211D01*
G01X50726Y10156D01*
G01X50763Y10095D01*
G01X50802Y10031D01*
G01X50845Y9959D01*
G01X50886Y9896D01*
G01X50926Y9840D01*
G01X50965Y9792D01*
G01X51002Y9751D01*
G01X51039Y9719D01*
G01X51075Y9694D01*
G01X51111Y9677D01*
G01X51146Y9669D01*
G01X51183Y9667D01*
G01X51218Y9674D01*
G01X51255Y9688D01*
G01X51292Y9711D01*
G01X51330Y9742D01*
G01X51369Y9780D01*
G01X51410Y9826D01*
G01X51452Y9880D01*
G01X51495Y9943D01*
G01X51542Y10013D01*
G01X51590Y10092D01*
G01X51653Y10193D01*
G01X51709Y10276D01*
G01X51753Y10332D01*
G01X51777Y10353D01*
G01X51793Y10340D01*
G01X51809Y10306D01*
G01X51826Y10256D01*
G01X51841Y10194D01*
G01X51857Y10118D01*
G01X51879Y10028D01*
G01X51901Y9934D01*
G01X51923Y9848D01*
G01X51974Y9659D01*
G01X52423Y9659D01*
G01X52397Y9746D01*
G01X52393Y9763D01*
G01X52385Y9789D01*
G01X52375Y9823D01*
G01X52363Y9865D01*
G01X52349Y9913D01*
G01X52334Y9967D01*
G01X52316Y10027D01*
G01X52298Y10091D01*
G01X52278Y10159D01*
G01X52258Y10230D01*
G01X52237Y10303D01*
G01X52216Y10377D01*
G01X52194Y10452D01*
G01X52173Y10524D01*
G01X52151Y10594D01*
G01X52130Y10661D01*
G01X52110Y10723D01*
G01X52090Y10781D01*
G01X52072Y10833D01*
G01X52055Y10879D01*
G01X52040Y10918D01*
G01X52026Y10950D01*
G01X52016Y10973D01*
G01X52007Y10986D01*
G01X51976Y11010D01*
G01X51932Y11027D01*
G01X51880Y11037D01*
G01X51826Y11036D01*
G01X51698Y11021D01*
G01X51450Y10639D01*
G01X51400Y10563D01*
G01X51352Y10490D01*
G01X51307Y10425D01*
G01X51266Y10369D01*
G01X51231Y10322D01*
G01X51203Y10286D01*
G01X51182Y10263D01*
G01X51170Y10255D01*
G01X51148Y10274D01*
G01X51108Y10323D01*
G01X51058Y10397D01*
G01X51003Y10489D01*
G01X50947Y10585D01*
G01X50895Y10671D01*
G01X50846Y10747D01*
G01X50800Y10814D01*
G01X50757Y10870D01*
G01X50717Y10919D01*
G01X50679Y10959D01*
G01X50644Y10991D01*
G01X50609Y11016D01*
G01X50577Y11032D01*
G01X50545Y11043D01*
G37*

%LPD*%
G36*
G01X47762Y11046D02*
G01X47371Y11046D01*
G01X47356Y10673D01*
G01X47342Y10300D01*
G01X46949Y10626D01*
G01X46857Y10703D01*
G01X46775Y10770D01*
G01X46702Y10829D01*
G01X46637Y10880D01*
G01X46581Y10923D01*
G01X46530Y10958D01*
G01X46487Y10987D01*
G01X46447Y11009D01*
G01X46413Y11024D01*
G01X46383Y11035D01*
G01X46355Y11039D01*
G01X46329Y11039D01*
G01X46304Y11035D01*
G01X46280Y11026D01*
G01X46255Y11014D01*
G01X46230Y10998D01*
G01X46157Y10953D01*
G01X46117Y9659D01*
G01X46570Y9659D01*
G01X46585Y10038D01*
G01X46599Y10416D01*
G01X46991Y10082D01*
G01X47093Y9997D01*
G01X47184Y9922D01*
G01X47264Y9859D01*
G01X47336Y9805D01*
G01X47399Y9760D01*
G01X47455Y9725D01*
G01X47505Y9699D01*
G01X47548Y9680D01*
G01X47587Y9670D01*
G01X47622Y9665D01*
G01X47655Y9668D01*
G01X47685Y9676D01*
G01X47762Y9706D01*
G01X47762Y11046D01*
G37*

%LPD*%
G36*
G01X53210Y10848D02*
G01X52515Y10848D01*
G01X52515Y9462D01*
G01X53741Y9462D01*
G01X54005Y9808D01*
G01X52961Y9808D01*
G01X52961Y9957D01*
G01X53648Y9957D01*
G01X53775Y10122D01*
G01X53824Y10189D01*
G01X53864Y10249D01*
G01X53891Y10294D01*
G01X53901Y10320D01*
G01X53891Y10327D01*
G01X53864Y10333D01*
G01X53821Y10339D01*
G01X53763Y10343D01*
G01X53693Y10347D01*
G01X53613Y10350D01*
G01X53525Y10352D01*
G01X53430Y10353D01*
G01X52961Y10353D01*
G01X52961Y10497D01*
G01X53363Y10512D01*
G01X53765Y10526D01*
G01X54013Y10848D01*
G01X53422Y10848D01*
G01X53365Y10724D01*
G01X53337Y10676D01*
G01X53302Y10637D01*
G01X53264Y10610D01*
G01X53228Y10600D01*
G01X53148Y10600D01*
G01X53178Y10724D01*
G01X53210Y10848D01*
G37*

%LPD*%
G54D10*
G01X37329Y1542D02*
G01X63338Y1542D01*
G01X65319Y5555D01*
G01X70323Y5555D01*
G01X70323Y28542D01*
G01X37329Y28542D01*
G01X34331Y25545D02*
G01X34331Y4539D01*
G01X23232Y22598D02*
G01X23232Y25138D01*
G01X30953Y25138D01*
G01X30953Y22598D01*
G01X23232Y22598D01*
G01X23232Y20058D02*
G01X23232Y22598D01*
G01X30953Y22598D01*
G01X30953Y20058D01*
G01X23232Y20058D01*
G01X23232Y17518D02*
G01X23232Y20058D01*
G01X30953Y20058D01*
G01X30953Y17518D01*
G01X23232Y17518D01*
G01X23232Y14978D02*
G01X23232Y17518D01*
G01X30953Y17518D01*
G01X30953Y14978D01*
G01X23232Y14978D01*
G01X23232Y12438D02*
G01X23232Y14978D01*
G01X30953Y14978D01*
G01X30953Y12438D01*
G01X23232Y12438D01*
G01X23232Y9898D02*
G01X23232Y12438D01*
G01X30953Y12438D01*
G01X30953Y9898D01*
G01X23232Y9898D01*
G01X23232Y7358D02*
G01X23232Y9898D01*
G01X30953Y9898D01*
G01X30953Y7358D01*
G01X23232Y7358D01*
G01X23232Y4818D02*
G01X23232Y7358D01*
G01X30953Y7358D01*
G01X30953Y4818D01*
G01X23232Y4818D01*
G01X435Y16170D02*
G01X8436Y16170D01*
G01X8436Y11168D01*
G01X435Y11168D01*
G01X435Y16170D01*
G01X435Y21250D02*
G01X8436Y21250D01*
G01X8436Y16248D01*
G01X435Y16248D01*
G01X435Y21250D01*
G54D18*
G01X60915Y5649D02*
G01X60915Y6030D01*
G01X61192Y5822D01*
G01X61192Y5926D01*
G01X61227Y5997D01*
G01X61263Y6030D01*
G01X61367Y6066D01*
G01X61436Y6066D01*
G01X61540Y6030D01*
G01X61608Y5961D01*
G01X61644Y5857D01*
G01X61644Y5753D01*
G01X61608Y5649D01*
G01X61573Y5616D01*
G01X61504Y5580D01*
G01X60915Y6294D02*
G01X61644Y6571D01*
G01X60915Y6848D02*
G01X61644Y6571D01*
G01X60915Y7145D02*
G01X60915Y7526D01*
G01X61192Y7320D01*
G01X61192Y7422D01*
G01X61227Y7493D01*
G01X61263Y7526D01*
G01X61367Y7562D01*
G01X61436Y7562D01*
G01X61540Y7526D01*
G01X61608Y7458D01*
G01X61644Y7353D01*
G01X61644Y7249D01*
G01X61608Y7145D01*
G01X61573Y7112D01*
G01X61504Y7077D01*
G01X58375Y5580D02*
G01X59104Y5580D01*
G01X58375Y5580D02*
G01X58375Y5822D01*
G01X58411Y5926D01*
G01X58479Y5997D01*
G01X58550Y6030D01*
G01X58652Y6066D01*
G01X58827Y6066D01*
G01X58931Y6030D01*
G01X59000Y5997D01*
G01X59068Y5926D01*
G01X59104Y5822D01*
G01X59104Y5580D01*
G01X58375Y6467D02*
G01X58411Y6363D01*
G01X58479Y6330D01*
G01X58550Y6330D01*
G01X58619Y6363D01*
G01X58652Y6431D01*
G01X58687Y6571D01*
G01X58723Y6675D01*
G01X58792Y6744D01*
G01X58860Y6779D01*
G01X58964Y6779D01*
G01X59033Y6744D01*
G01X59068Y6711D01*
G01X59104Y6607D01*
G01X59104Y6467D01*
G01X59068Y6363D01*
G01X59033Y6330D01*
G01X58964Y6294D01*
G01X58860Y6294D01*
G01X58792Y6330D01*
G01X58723Y6398D01*
G01X58687Y6503D01*
G01X58652Y6640D01*
G01X58619Y6711D01*
G01X58550Y6744D01*
G01X58479Y6744D01*
G01X58411Y6711D01*
G01X58375Y6607D01*
G01X58375Y6467D01*
G01X55835Y5580D02*
G01X56564Y5580D01*
G01X55835Y5580D02*
G01X55835Y5822D01*
G01X55871Y5926D01*
G01X55939Y5997D01*
G01X56010Y6030D01*
G01X56112Y6066D01*
G01X56287Y6066D01*
G01X56391Y6030D01*
G01X56460Y5997D01*
G01X56528Y5926D01*
G01X56564Y5822D01*
G01X56564Y5580D01*
G01X55835Y6779D02*
G01X56564Y6431D01*
G01X55835Y6294D02*
G01X55835Y6779D01*
G01X53295Y5580D02*
G01X54024Y5580D01*
G01X53295Y5580D02*
G01X53295Y5822D01*
G01X53331Y5926D01*
G01X53399Y5997D01*
G01X53470Y6030D01*
G01X53572Y6066D01*
G01X53747Y6066D01*
G01X53851Y6030D01*
G01X53920Y5997D01*
G01X53988Y5926D01*
G01X54024Y5822D01*
G01X54024Y5580D01*
G01X53399Y6711D02*
G01X53331Y6675D01*
G01X53295Y6571D01*
G01X53295Y6503D01*
G01X53331Y6398D01*
G01X53435Y6330D01*
G01X53607Y6294D01*
G01X53780Y6294D01*
G01X53920Y6330D01*
G01X53988Y6398D01*
G01X54024Y6503D01*
G01X54024Y6536D01*
G01X53988Y6640D01*
G01X53920Y6711D01*
G01X53816Y6744D01*
G01X53780Y6744D01*
G01X53676Y6711D01*
G01X53607Y6640D01*
G01X53572Y6536D01*
G01X53572Y6503D01*
G01X53607Y6398D01*
G01X53676Y6330D01*
G01X53780Y6294D01*
G01X50755Y5580D02*
G01X51484Y5580D01*
G01X50755Y5580D02*
G01X50755Y5822D01*
G01X50791Y5926D01*
G01X50859Y5997D01*
G01X50930Y6030D01*
G01X51032Y6066D01*
G01X51207Y6066D01*
G01X51311Y6030D01*
G01X51380Y5997D01*
G01X51448Y5926D01*
G01X51484Y5822D01*
G01X51484Y5580D01*
G01X50755Y6711D02*
G01X50755Y6363D01*
G01X51067Y6330D01*
G01X51032Y6363D01*
G01X50999Y6467D01*
G01X50999Y6571D01*
G01X51032Y6675D01*
G01X51103Y6744D01*
G01X51207Y6779D01*
G01X51276Y6779D01*
G01X51380Y6744D01*
G01X51448Y6675D01*
G01X51484Y6571D01*
G01X51484Y6467D01*
G01X51448Y6363D01*
G01X51413Y6330D01*
G01X51344Y6294D01*
G01X48215Y5580D02*
G01X48944Y5580D01*
G01X48215Y5580D02*
G01X48215Y5822D01*
G01X48251Y5926D01*
G01X48319Y5997D01*
G01X48390Y6030D01*
G01X48492Y6066D01*
G01X48667Y6066D01*
G01X48771Y6030D01*
G01X48840Y5997D01*
G01X48908Y5926D01*
G01X48944Y5822D01*
G01X48944Y5580D01*
G01X48215Y6503D02*
G01X48251Y6398D01*
G01X48355Y6330D01*
G01X48527Y6294D01*
G01X48632Y6294D01*
G01X48804Y6330D01*
G01X48908Y6398D01*
G01X48944Y6503D01*
G01X48944Y6571D01*
G01X48908Y6675D01*
G01X48804Y6744D01*
G01X48632Y6779D01*
G01X48527Y6779D01*
G01X48355Y6744D01*
G01X48251Y6675D01*
G01X48215Y6571D01*
G01X48215Y6503D01*
G01X45675Y5857D02*
G01X46404Y5580D01*
G01X45675Y5857D02*
G01X46404Y6134D01*
G01X46160Y5685D02*
G01X46160Y6030D01*
G01X45675Y6571D02*
G01X45711Y6467D01*
G01X45815Y6398D01*
G01X45987Y6363D01*
G01X46092Y6363D01*
G01X46264Y6398D01*
G01X46368Y6467D01*
G01X46404Y6571D01*
G01X46404Y6640D01*
G01X46368Y6744D01*
G01X46264Y6812D01*
G01X46092Y6848D01*
G01X45987Y6848D01*
G01X45815Y6812D01*
G01X45711Y6744D01*
G01X45675Y6640D01*
G01X45675Y6571D01*
G01X43135Y5580D02*
G01X43864Y5580D01*
G01X43135Y5580D02*
G01X43135Y5893D01*
G01X43171Y5997D01*
G01X43206Y6030D01*
G01X43275Y6066D01*
G01X43343Y6066D01*
G01X43412Y6030D01*
G01X43447Y5997D01*
G01X43483Y5893D01*
G01X43483Y5580D01*
G01X43483Y5822D02*
G01X43864Y6066D01*
G01X43239Y6779D02*
G01X43171Y6711D01*
G01X43135Y6607D01*
G01X43135Y6467D01*
G01X43171Y6363D01*
G01X43239Y6294D01*
G01X43310Y6294D01*
G01X43379Y6330D01*
G01X43412Y6363D01*
G01X43447Y6431D01*
G01X43516Y6640D01*
G01X43552Y6711D01*
G01X43587Y6744D01*
G01X43656Y6779D01*
G01X43760Y6779D01*
G01X43828Y6711D01*
G01X43864Y6607D01*
G01X43864Y6467D01*
G01X43828Y6363D01*
G01X43760Y6294D01*
G01X43135Y7249D02*
G01X43864Y7249D01*
G01X43135Y7008D02*
G01X43135Y7493D01*
G01X61169Y23269D02*
G01X61169Y22921D01*
G01X61481Y22888D01*
G01X61446Y22921D01*
G01X61413Y23025D01*
G01X61413Y23129D01*
G01X61446Y23233D01*
G01X61517Y23302D01*
G01X61621Y23338D01*
G01X61690Y23338D01*
G01X61794Y23302D01*
G01X61862Y23233D01*
G01X61898Y23129D01*
G01X61898Y23025D01*
G01X61862Y22921D01*
G01X61827Y22888D01*
G01X61758Y22852D01*
G01X61169Y23566D02*
G01X61898Y23843D01*
G01X61169Y24120D02*
G01X61898Y23843D01*
G01X58550Y22865D02*
G01X58479Y22830D01*
G01X58411Y22761D01*
G01X58375Y22690D01*
G01X58375Y22553D01*
G01X58411Y22484D01*
G01X58479Y22413D01*
G01X58550Y22380D01*
G01X58652Y22344D01*
G01X58827Y22344D01*
G01X58931Y22380D01*
G01X59000Y22413D01*
G01X59068Y22484D01*
G01X59104Y22553D01*
G01X59104Y22690D01*
G01X59068Y22761D01*
G01X59000Y22830D01*
G01X58931Y22865D01*
G01X58827Y22865D01*
G01X58827Y22690D02*
G01X58827Y22865D01*
G01X58375Y23094D02*
G01X59104Y23094D01*
G01X58375Y23094D02*
G01X59104Y23576D01*
G01X58375Y23576D02*
G01X59104Y23576D01*
G01X58375Y23805D02*
G01X59104Y23805D01*
G01X58375Y23805D02*
G01X58375Y24049D01*
G01X58411Y24153D01*
G01X58479Y24222D01*
G01X58550Y24257D01*
G01X58652Y24290D01*
G01X58827Y24290D01*
G01X58931Y24257D01*
G01X59000Y24222D01*
G01X59068Y24153D01*
G01X59104Y24049D01*
G01X59104Y23805D01*
G01X55835Y22852D02*
G01X56564Y22852D01*
G01X55835Y22852D02*
G01X55835Y23094D01*
G01X55871Y23198D01*
G01X55939Y23269D01*
G01X56010Y23302D01*
G01X56112Y23338D01*
G01X56287Y23338D01*
G01X56391Y23302D01*
G01X56460Y23269D01*
G01X56528Y23198D01*
G01X56564Y23094D01*
G01X56564Y22852D01*
G01X55835Y23912D02*
G01X56320Y23566D01*
G01X56320Y24084D01*
G01X55835Y23912D02*
G01X56564Y23912D01*
G01X53295Y22852D02*
G01X54024Y22852D01*
G01X53295Y22852D02*
G01X53295Y23094D01*
G01X53331Y23198D01*
G01X53399Y23269D01*
G01X53470Y23302D01*
G01X53572Y23338D01*
G01X53747Y23338D01*
G01X53851Y23302D01*
G01X53920Y23269D01*
G01X53988Y23198D01*
G01X54024Y23094D01*
G01X54024Y22852D01*
G01X53295Y23635D02*
G01X53295Y24016D01*
G01X53572Y23808D01*
G01X53572Y23912D01*
G01X53607Y23983D01*
G01X53643Y24016D01*
G01X53747Y24051D01*
G01X53816Y24051D01*
G01X53920Y24016D01*
G01X53988Y23947D01*
G01X54024Y23843D01*
G01X54024Y23739D01*
G01X53988Y23635D01*
G01X53953Y23602D01*
G01X53884Y23566D01*
G01X50755Y22852D02*
G01X51484Y22852D01*
G01X50755Y22852D02*
G01X50755Y23094D01*
G01X50791Y23198D01*
G01X50859Y23269D01*
G01X50930Y23302D01*
G01X51032Y23338D01*
G01X51207Y23338D01*
G01X51311Y23302D01*
G01X51380Y23269D01*
G01X51448Y23198D01*
G01X51484Y23094D01*
G01X51484Y22852D01*
G01X50930Y23602D02*
G01X50895Y23602D01*
G01X50826Y23635D01*
G01X50791Y23670D01*
G01X50755Y23739D01*
G01X50755Y23879D01*
G01X50791Y23947D01*
G01X50826Y23983D01*
G01X50895Y24016D01*
G01X50963Y24016D01*
G01X51032Y23983D01*
G01X51136Y23912D01*
G01X51484Y23566D01*
G01X51484Y24051D01*
G01X48215Y22852D02*
G01X48944Y22852D01*
G01X48215Y22852D02*
G01X48215Y23094D01*
G01X48251Y23198D01*
G01X48319Y23269D01*
G01X48390Y23302D01*
G01X48492Y23338D01*
G01X48667Y23338D01*
G01X48771Y23302D01*
G01X48840Y23269D01*
G01X48908Y23198D01*
G01X48944Y23094D01*
G01X48944Y22852D01*
G01X48355Y23566D02*
G01X48319Y23635D01*
G01X48215Y23739D01*
G01X48944Y23739D01*
G01X45675Y22852D02*
G01X46404Y22852D01*
G01X45675Y22852D02*
G01X45675Y23165D01*
G01X45711Y23269D01*
G01X45746Y23302D01*
G01X45815Y23338D01*
G01X45883Y23338D01*
G01X45952Y23302D01*
G01X45987Y23269D01*
G01X46023Y23165D01*
G01X46023Y22852D01*
G01X46023Y23094D02*
G01X46404Y23338D01*
G01X45675Y23566D02*
G01X46404Y24051D01*
G01X45675Y24051D02*
G01X46404Y23566D01*
G01X43135Y23094D02*
G01X43864Y23094D01*
G01X43135Y22852D02*
G01X43135Y23338D01*
G01X43135Y23566D02*
G01X43864Y24051D01*
G01X43135Y24051D02*
G01X43864Y23566D01*
G54D19*
G01X34854Y8535D02*
G01X36792Y8995D01*
G01X34854Y9457D02*
G01X36792Y8995D01*
G01X34854Y9457D02*
G01X36792Y9919D01*
G01X34854Y10382D02*
G01X36792Y9919D01*
G01X36052Y10991D02*
G01X36052Y12099D01*
G01X35870Y12099D01*
G01X35684Y12007D01*
G01X35593Y11913D01*
G01X35499Y11730D01*
G01X35499Y11453D01*
G01X35593Y11268D01*
G01X35776Y11083D01*
G01X36052Y10991D01*
G01X36238Y10991D01*
G01X36515Y11083D01*
G01X36700Y11268D01*
G01X36792Y11453D01*
G01X36792Y11730D01*
G01X36700Y11913D01*
G01X36515Y12099D01*
G01X35499Y12708D02*
G01X36792Y12708D01*
G01X35870Y12708D02*
G01X35593Y12985D01*
G01X35499Y13170D01*
G01X35499Y13447D01*
G01X35593Y13633D01*
G01X35870Y13724D01*
G01X36792Y13724D01*
G01X35870Y13724D02*
G01X35593Y14001D01*
G01X35499Y14186D01*
G01X35499Y14463D01*
G01X35593Y14649D01*
G01X35870Y14740D01*
G01X36792Y14740D01*
G01X35499Y15812D02*
G01X35593Y15627D01*
G01X35776Y15444D01*
G01X36052Y15350D01*
G01X36238Y15350D01*
G01X36515Y15444D01*
G01X36700Y15627D01*
G01X36792Y15812D01*
G01X36792Y16089D01*
G01X36700Y16274D01*
G01X36515Y16460D01*
G01X36238Y16551D01*
G01X36052Y16551D01*
G01X35776Y16460D01*
G01X35593Y16274D01*
G01X35499Y16089D01*
G01X35499Y15812D01*
G01X35776Y18177D02*
G01X35593Y18085D01*
G01X35499Y17806D01*
G01X35499Y17529D01*
G01X35593Y17252D01*
G01X35776Y17161D01*
G01X35961Y17252D01*
G01X36052Y17438D01*
G01X36146Y17900D01*
G01X36238Y18085D01*
G01X36423Y18177D01*
G01X36515Y18177D01*
G01X36700Y18085D01*
G01X36792Y17806D01*
G01X36792Y17529D01*
G01X36700Y17252D01*
G01X36515Y17161D01*
G01X34854Y20209D02*
G01X36792Y20209D01*
G01X34854Y20209D02*
G01X34854Y20854D01*
G01X34945Y21133D01*
G01X35130Y21316D01*
G01X35316Y21410D01*
G01X35593Y21502D01*
G01X36052Y21502D01*
G01X36332Y21410D01*
G01X36515Y21316D01*
G01X36700Y21133D01*
G01X36792Y20854D01*
G01X36792Y20209D01*
G01X35222Y22111D02*
G01X35130Y22297D01*
G01X34854Y22574D01*
G01X36792Y22574D01*
G01X67646Y15740D02*
G01X68225Y15740D01*
G01X68398Y15799D01*
G01X68456Y15913D01*
G01X68456Y16086D01*
G01X68398Y16203D01*
G01X68225Y16375D01*
G01X67646Y16375D02*
G01X68456Y16375D01*
G01X67821Y17391D02*
G01X67704Y17333D01*
G01X67646Y17160D01*
G01X67646Y16988D01*
G01X67704Y16815D01*
G01X67821Y16756D01*
G01X67936Y16815D01*
G01X67994Y16929D01*
G01X68050Y17219D01*
G01X68108Y17333D01*
G01X68225Y17391D01*
G01X68281Y17391D01*
G01X68398Y17333D01*
G01X68456Y17160D01*
G01X68456Y16988D01*
G01X68398Y16815D01*
G01X68281Y16756D01*
G01X67242Y17772D02*
G01X68456Y17772D01*
G01X67821Y17772D02*
G01X67704Y17887D01*
G01X67646Y18004D01*
G01X67646Y18176D01*
G01X67704Y18293D01*
G01X67821Y18407D01*
G01X67994Y18466D01*
G01X68108Y18466D01*
G01X68281Y18407D01*
G01X68398Y18293D01*
G01X68456Y18176D01*
G01X68456Y18004D01*
G01X68398Y17887D01*
G01X68281Y17772D01*
G54D18*
G01X37648Y12025D02*
G01X38737Y12025D01*
G01X37648Y12025D02*
G01X37648Y12701D01*
G01X38166Y12025D02*
G01X38166Y12441D01*
G01X38737Y12025D02*
G01X38737Y12701D01*
G01X37803Y13770D02*
G01X37698Y13666D01*
G01X37648Y13511D01*
G01X37648Y13303D01*
G01X37698Y13148D01*
G01X37803Y13043D01*
G01X37907Y13043D01*
G01X38011Y13094D01*
G01X38062Y13148D01*
G01X38115Y13252D01*
G01X38219Y13562D01*
G01X38270Y13666D01*
G01X38321Y13719D01*
G01X38425Y13770D01*
G01X38582Y13770D01*
G01X38687Y13666D01*
G01X38737Y13511D01*
G01X38737Y13303D01*
G01X38687Y13148D01*
G01X38582Y13043D01*
G01X37648Y14113D02*
G01X38737Y14113D01*
G01X37648Y14113D02*
G01X37648Y14580D01*
G01X37698Y14738D01*
G01X37749Y14788D01*
G01X37853Y14842D01*
G01X38011Y14842D01*
G01X38115Y14788D01*
G01X38166Y14738D01*
G01X38219Y14580D01*
G01X38219Y14113D01*
G01X37648Y15444D02*
G01X37698Y15289D01*
G01X37803Y15235D01*
G01X37907Y15235D01*
G01X38011Y15289D01*
G01X38062Y15390D01*
G01X38115Y15599D01*
G01X38166Y15756D01*
G01X38270Y15860D01*
G01X38374Y15911D01*
G01X38529Y15911D01*
G01X38633Y15860D01*
G01X38687Y15807D01*
G01X38737Y15652D01*
G01X38737Y15444D01*
G01X38687Y15289D01*
G01X38633Y15235D01*
G01X38529Y15185D01*
G01X38374Y15185D01*
G01X38270Y15235D01*
G01X38166Y15340D01*
G01X38115Y15495D01*
G01X38062Y15703D01*
G01X38011Y15807D01*
G01X37907Y15860D01*
G01X37803Y15860D01*
G01X37698Y15807D01*
G01X37648Y15652D01*
G01X37648Y15444D01*
G01X37907Y16305D02*
G01X37853Y16305D01*
G01X37749Y16358D01*
G01X37698Y16409D01*
G01X37648Y16513D01*
G01X37648Y16721D01*
G01X37698Y16826D01*
G01X37749Y16876D01*
G01X37853Y16930D01*
G01X37958Y16930D01*
G01X38062Y16876D01*
G01X38219Y16775D01*
G01X38737Y16254D01*
G01X38737Y16980D01*
G01X37803Y17948D02*
G01X37698Y17895D01*
G01X37648Y17740D01*
G01X37648Y17636D01*
G01X37698Y17481D01*
G01X37853Y17377D01*
G01X38115Y17323D01*
G01X38374Y17323D01*
G01X38582Y17377D01*
G01X38687Y17481D01*
G01X38737Y17636D01*
G01X38737Y17689D01*
G01X38687Y17844D01*
G01X38582Y17948D01*
G01X38425Y17999D01*
G01X38374Y17999D01*
G01X38219Y17948D01*
G01X38115Y17844D01*
G01X38062Y17689D01*
G01X38062Y17636D01*
G01X38115Y17481D01*
G01X38219Y17377D01*
G01X38374Y17323D01*
G01X37803Y18967D02*
G01X37698Y18913D01*
G01X37648Y18758D01*
G01X37648Y18654D01*
G01X37698Y18499D01*
G01X37853Y18395D01*
G01X38115Y18342D01*
G01X38374Y18342D01*
G01X38582Y18395D01*
G01X38687Y18499D01*
G01X38737Y18654D01*
G01X38737Y18705D01*
G01X38687Y18863D01*
G01X38582Y18967D01*
G01X38425Y19018D01*
G01X38374Y19018D01*
G01X38219Y18967D01*
G01X38115Y18863D01*
G01X38062Y18705D01*
G01X38062Y18654D01*
G01X38115Y18499D01*
G01X38219Y18395D01*
G01X38374Y18342D01*
G01X21662Y23736D02*
G01X21608Y23838D01*
G01X21454Y23995D01*
G01X22546Y23995D01*
G01X21713Y21248D02*
G01X21662Y21248D01*
G01X21558Y21299D01*
G01X21507Y21350D01*
G01X21454Y21454D01*
G01X21454Y21662D01*
G01X21507Y21767D01*
G01X21558Y21820D01*
G01X21662Y21871D01*
G01X21766Y21871D01*
G01X21870Y21820D01*
G01X22025Y21716D01*
G01X22546Y21195D01*
G01X22546Y21922D01*
G01X21454Y18759D02*
G01X21454Y19331D01*
G01X21870Y19018D01*
G01X21870Y19176D01*
G01X21921Y19280D01*
G01X21974Y19331D01*
G01X22129Y19382D01*
G01X22233Y19382D01*
G01X22388Y19331D01*
G01X22493Y19227D01*
G01X22546Y19072D01*
G01X22546Y18914D01*
G01X22493Y18759D01*
G01X22442Y18708D01*
G01X22338Y18655D01*
G01X21454Y16636D02*
G01X22180Y16115D01*
G01X22180Y16895D01*
G01X21454Y16636D02*
G01X22546Y16636D01*
G01X21454Y14200D02*
G01X21454Y13679D01*
G01X21921Y13628D01*
G01X21870Y13679D01*
G01X21817Y13834D01*
G01X21817Y13992D01*
G01X21870Y14147D01*
G01X21974Y14251D01*
G01X22129Y14302D01*
G01X22233Y14302D01*
G01X22388Y14251D01*
G01X22493Y14147D01*
G01X22546Y13992D01*
G01X22546Y13834D01*
G01X22493Y13679D01*
G01X22442Y13628D01*
G01X22338Y13575D01*
G01X21609Y11660D02*
G01X21507Y11607D01*
G01X21454Y11452D01*
G01X21454Y11348D01*
G01X21507Y11190D01*
G01X21662Y11088D01*
G01X21921Y11035D01*
G01X22180Y11035D01*
G01X22388Y11088D01*
G01X22493Y11190D01*
G01X22546Y11348D01*
G01X22546Y11398D01*
G01X22493Y11556D01*
G01X22388Y11660D01*
G01X22233Y11711D01*
G01X22180Y11711D01*
G01X22025Y11660D01*
G01X21921Y11556D01*
G01X21870Y11398D01*
G01X21870Y11348D01*
G01X21921Y11190D01*
G01X22025Y11088D01*
G01X22180Y11035D01*
G01X21454Y9222D02*
G01X22546Y8703D01*
G01X21454Y8495D02*
G01X21454Y9222D01*
G01X21454Y6214D02*
G01X21507Y6059D01*
G01X21609Y6008D01*
G01X21713Y6008D01*
G01X21817Y6059D01*
G01X21870Y6163D01*
G01X21921Y6372D01*
G01X21974Y6527D01*
G01X22079Y6631D01*
G01X22180Y6682D01*
G01X22338Y6682D01*
G01X22442Y6631D01*
G01X22493Y6580D01*
G01X22546Y6422D01*
G01X22546Y6214D01*
G01X22493Y6059D01*
G01X22442Y6008D01*
G01X22338Y5955D01*
G01X22180Y5955D01*
G01X22079Y6008D01*
G01X21974Y6110D01*
G01X21921Y6268D01*
G01X21870Y6476D01*
G01X21817Y6580D01*
G01X21713Y6631D01*
G01X21609Y6631D01*
G01X21507Y6580D01*
G01X21454Y6422D01*
G01X21454Y6214D01*
G01X3612Y9747D02*
G01X5247Y9747D01*
G01X4559Y23717D02*
G01X4559Y22081D01*
G01X3739Y22899D02*
G01X5377Y22899D01*

%LPD*%
G36*
G01X15175Y25509D02*
G01X15120Y25513D01*
G01X15066Y25508D01*
G01X15014Y25498D01*
G01X14965Y25481D01*
G01X14919Y25457D01*
G01X14874Y25430D01*
G01X14832Y25398D01*
G01X14790Y25362D01*
G01X14749Y25325D01*
G01X14744Y25325D01*
G01X14726Y25485D01*
G01X14594Y25485D01*
G01X14594Y24387D01*
G01X14757Y24387D01*
G01X14757Y25190D01*
G01X14799Y25231D01*
G01X14838Y25267D01*
G01X14876Y25297D01*
G01X14914Y25323D01*
G01X14951Y25342D01*
G01X14990Y25356D01*
G01X15030Y25365D01*
G01X15072Y25368D01*
G01X15125Y25363D01*
G01X15170Y25350D01*
G01X15208Y25327D01*
G01X15237Y25295D01*
G01X15260Y25253D01*
G01X15276Y25200D01*
G01X15285Y25137D01*
G01X15288Y25063D01*
G01X15288Y24387D01*
G01X15455Y24387D01*
G01X15455Y25083D01*
G01X15453Y25151D01*
G01X15447Y25213D01*
G01X15436Y25269D01*
G01X15419Y25319D01*
G01X15399Y25364D01*
G01X15374Y25403D01*
G01X15344Y25436D01*
G01X15309Y25464D01*
G01X15269Y25485D01*
G01X15225Y25500D01*
G01X15175Y25509D01*
G37*

%LPD*%
G36*
G01X14193Y25876D02*
G01X14025Y25876D01*
G01X14025Y24387D01*
G01X14193Y24387D01*
G01X14193Y25876D01*
G37*

%LPD*%

%LPD*%
G36*
G01X15999Y5703D02*
G01X15859Y5703D01*
G01X15842Y5393D01*
G01X15669Y5383D01*
G01X15669Y5256D01*
G01X15834Y5256D01*
G01X15834Y4626D01*
G01X15838Y4549D01*
G01X15849Y4480D01*
G01X15869Y4420D01*
G01X15899Y4368D01*
G01X15940Y4326D01*
G01X15993Y4296D01*
G01X16058Y4277D01*
G01X16136Y4271D01*
G01X16184Y4274D01*
G01X16234Y4283D01*
G01X16284Y4296D01*
G01X16332Y4311D01*
G01X16299Y4433D01*
G01X16270Y4423D01*
G01X16237Y4414D01*
G01X16204Y4408D01*
G01X16172Y4405D01*
G01X16089Y4420D01*
G01X16036Y4463D01*
G01X16008Y4530D01*
G01X15999Y4621D01*
G01X15999Y5256D01*
G01X16301Y5256D01*
G01X16301Y5393D01*
G01X15999Y5393D01*
G01X15999Y5703D01*
G37*

%LPD*%
G36*
G01X14729Y5393D02*
G01X14564Y5393D01*
G01X14564Y4697D01*
G01X14566Y4629D01*
G01X14573Y4568D01*
G01X14584Y4511D01*
G01X14599Y4461D01*
G01X14620Y4417D01*
G01X14645Y4378D01*
G01X14675Y4345D01*
G01X14709Y4318D01*
G01X14748Y4297D01*
G01X14793Y4282D01*
G01X14842Y4274D01*
G01X14897Y4271D01*
G01X14952Y4274D01*
G01X15004Y4285D01*
G01X15053Y4303D01*
G01X15099Y4326D01*
G01X15142Y4355D01*
G01X15184Y4389D01*
G01X15224Y4428D01*
G01X15262Y4471D01*
G01X15270Y4471D01*
G01X15283Y4296D01*
G01X15420Y4296D01*
G01X15420Y5393D01*
G01X15255Y5393D01*
G01X15255Y4606D01*
G01X15215Y4560D01*
G01X15177Y4520D01*
G01X15140Y4486D01*
G01X15103Y4459D01*
G01X15066Y4439D01*
G01X15029Y4424D01*
G01X14989Y4415D01*
G01X14947Y4413D01*
G01X14894Y4417D01*
G01X14848Y4430D01*
G01X14810Y4453D01*
G01X14780Y4485D01*
G01X14757Y4527D01*
G01X14742Y4580D01*
G01X14732Y4643D01*
G01X14729Y4718D01*
G01X14729Y5393D01*
G37*

%LPD*%
G36*
G01X13692Y5807D02*
G01X13637Y5810D01*
G01X13583Y5807D01*
G01X13531Y5801D01*
G01X13480Y5790D01*
G01X13431Y5776D01*
G01X13385Y5757D01*
G01X13340Y5734D01*
G01X13298Y5708D01*
G01X13258Y5677D01*
G01X13221Y5643D01*
G01X13186Y5606D01*
G01X13154Y5564D01*
G01X13125Y5519D01*
G01X13099Y5471D01*
G01X13076Y5420D01*
G01X13056Y5365D01*
G01X13040Y5307D01*
G01X13027Y5246D01*
G01X13018Y5182D01*
G01X13011Y5115D01*
G01X13009Y5045D01*
G01X13011Y4975D01*
G01X13018Y4908D01*
G01X13027Y4844D01*
G01X13040Y4782D01*
G01X13056Y4724D01*
G01X13076Y4668D01*
G01X13099Y4616D01*
G01X13125Y4567D01*
G01X13154Y4521D01*
G01X13186Y4479D01*
G01X13221Y4441D01*
G01X13258Y4406D01*
G01X13298Y4375D01*
G01X13340Y4348D01*
G01X13385Y4324D01*
G01X13431Y4305D01*
G01X13480Y4290D01*
G01X13531Y4279D01*
G01X13583Y4273D01*
G01X13637Y4271D01*
G01X13692Y4273D01*
G01X13745Y4279D01*
G01X13796Y4290D01*
G01X13845Y4305D01*
G01X13892Y4324D01*
G01X13937Y4348D01*
G01X13979Y4375D01*
G01X14019Y4406D01*
G01X14056Y4441D01*
G01X14091Y4479D01*
G01X14123Y4521D01*
G01X14152Y4567D01*
G01X14178Y4616D01*
G01X14201Y4668D01*
G01X14220Y4724D01*
G01X14237Y4782D01*
G01X14250Y4844D01*
G01X14259Y4908D01*
G01X14265Y4975D01*
G01X14267Y5045D01*
G01X14265Y5115D01*
G01X14259Y5182D01*
G01X14250Y5246D01*
G01X14237Y5307D01*
G01X14220Y5365D01*
G01X14201Y5420D01*
G01X14178Y5471D01*
G01X14152Y5519D01*
G01X14123Y5564D01*
G01X14091Y5606D01*
G01X14056Y5643D01*
G01X14019Y5677D01*
G01X13979Y5708D01*
G01X13937Y5734D01*
G01X13892Y5757D01*
G01X13845Y5776D01*
G01X13796Y5790D01*
G01X13745Y5801D01*
G01X13692Y5807D01*
G37*

%LPC*%
G36*
G01X13688Y5659D02*
G01X13637Y5662D01*
G01X13586Y5659D01*
G01X13539Y5651D01*
G01X13493Y5638D01*
G01X13450Y5619D01*
G01X13410Y5596D01*
G01X13373Y5567D01*
G01X13338Y5534D01*
G01X13307Y5496D01*
G01X13279Y5454D01*
G01X13254Y5408D01*
G01X13232Y5357D01*
G01X13215Y5302D01*
G01X13201Y5243D01*
G01X13191Y5181D01*
G01X13185Y5115D01*
G01X13182Y5045D01*
G01X13185Y4975D01*
G01X13191Y4909D01*
G01X13201Y4846D01*
G01X13215Y4786D01*
G01X13232Y4731D01*
G01X13254Y4679D01*
G01X13279Y4632D01*
G01X13307Y4589D01*
G01X13338Y4550D01*
G01X13373Y4516D01*
G01X13410Y4486D01*
G01X13450Y4462D01*
G01X13493Y4443D01*
G01X13539Y4429D01*
G01X13586Y4420D01*
G01X13637Y4418D01*
G01X13688Y4420D01*
G01X13736Y4429D01*
G01X13782Y4443D01*
G01X13825Y4462D01*
G01X13866Y4486D01*
G01X13903Y4516D01*
G01X13938Y4550D01*
G01X13970Y4589D01*
G01X13997Y4632D01*
G01X14022Y4679D01*
G01X14044Y4731D01*
G01X14061Y4786D01*
G01X14076Y4846D01*
G01X14086Y4909D01*
G01X14092Y4975D01*
G01X14094Y5045D01*
G01X14092Y5115D01*
G01X14086Y5181D01*
G01X14076Y5243D01*
G01X14061Y5302D01*
G01X14044Y5357D01*
G01X14022Y5408D01*
G01X13997Y5454D01*
G01X13970Y5496D01*
G01X13938Y5534D01*
G01X13903Y5567D01*
G01X13866Y5596D01*
G01X13825Y5619D01*
G01X13782Y5638D01*
G01X13736Y5651D01*
G01X13688Y5659D01*
G37*

%LPD*%

%LPD*%
G36*
G01X15482Y28667D02*
G01X15033Y28667D01*
G01X15033Y28553D01*
G01X15482Y28553D01*
G01X15482Y28667D01*
G37*

%LPD*%
G36*
G01X29788Y29414D02*
G01X29409Y29414D01*
G01X29409Y28113D01*
G01X29816Y28113D01*
G01X29887Y28116D01*
G01X29954Y28124D01*
G01X30016Y28137D01*
G01X30073Y28156D01*
G01X30125Y28180D01*
G01X30172Y28208D01*
G01X30212Y28243D01*
G01X30245Y28283D01*
G01X30272Y28328D01*
G01X30292Y28378D01*
G01X30304Y28434D01*
G01X30308Y28494D01*
G01X30303Y28557D01*
G01X30289Y28614D01*
G01X30265Y28664D01*
G01X30233Y28706D01*
G01X30193Y28741D01*
G01X30146Y28770D01*
G01X30094Y28792D01*
G01X30037Y28807D01*
G01X30037Y28815D01*
G01X30081Y28833D01*
G01X30120Y28858D01*
G01X30153Y28888D01*
G01X30181Y28922D01*
G01X30203Y28961D01*
G01X30219Y29004D01*
G01X30229Y29049D01*
G01X30232Y29096D01*
G01X30229Y29150D01*
G01X30217Y29199D01*
G01X30200Y29241D01*
G01X30176Y29279D01*
G01X30145Y29312D01*
G01X30109Y29340D01*
G01X30067Y29363D01*
G01X30020Y29382D01*
G01X29968Y29396D01*
G01X29912Y29406D01*
G01X29852Y29412D01*
G01X29788Y29414D01*
G37*

%LPC*%
G36*
G01X29793Y28743D02*
G01X29556Y28743D01*
G01X29556Y28230D01*
G01X29793Y28230D01*
G01X29875Y28234D01*
G01X29948Y28246D01*
G01X30012Y28266D01*
G01X30065Y28295D01*
G01X30107Y28333D01*
G01X30138Y28379D01*
G01X30157Y28435D01*
G01X30164Y28500D01*
G01X30157Y28558D01*
G01X30139Y28608D01*
G01X30109Y28650D01*
G01X30067Y28684D01*
G01X30014Y28710D01*
G01X29950Y28729D01*
G01X29877Y28740D01*
G01X29793Y28743D01*
G37*
G36*
G01X29765Y29297D02*
G01X29556Y29297D01*
G01X29556Y28858D01*
G01X29757Y28858D01*
G01X29838Y28862D01*
G01X29907Y28873D01*
G01X29963Y28891D01*
G01X30009Y28917D01*
G01X30043Y28949D01*
G01X30067Y28986D01*
G01X30080Y29030D01*
G01X30085Y29079D01*
G01X30080Y29134D01*
G01X30065Y29180D01*
G01X30040Y29218D01*
G01X30005Y29248D01*
G01X29960Y29270D01*
G01X29905Y29285D01*
G01X29840Y29294D01*
G01X29765Y29297D01*
G37*

%LPD*%
G36*
G01X24531Y29098D02*
G01X24502Y29099D01*
G01X24424Y29084D01*
G01X24351Y29044D01*
G01X24285Y28980D01*
G01X24230Y28898D01*
G01X24225Y28898D01*
G01X24210Y29074D01*
G01X24093Y29074D01*
G01X24093Y28113D01*
G01X24238Y28113D01*
G01X24238Y28738D01*
G01X24293Y28845D01*
G01X24355Y28916D01*
G01X24421Y28955D01*
G01X24484Y28967D01*
G01X24510Y28966D01*
G01X24532Y28963D01*
G01X24553Y28958D01*
G01X24576Y28952D01*
G01X24603Y29076D01*
G01X24581Y29087D01*
G01X24557Y29094D01*
G01X24531Y29098D01*
G37*

%LPD*%
G36*
G01X17326Y29528D02*
G01X17182Y29528D01*
G01X17182Y28113D01*
G01X17326Y28113D01*
G01X17326Y28815D01*
G01X17397Y28883D01*
G01X17463Y28932D01*
G01X17529Y28962D01*
G01X17601Y28972D01*
G01X17647Y28968D01*
G01X17686Y28956D01*
G01X17719Y28936D01*
G01X17745Y28908D01*
G01X17766Y28871D01*
G01X17780Y28825D01*
G01X17789Y28770D01*
G01X17791Y28705D01*
G01X17791Y28113D01*
G01X17936Y28113D01*
G01X17936Y28723D01*
G01X17931Y28810D01*
G01X17919Y28886D01*
G01X17896Y28950D01*
G01X17865Y29004D01*
G01X17825Y29045D01*
G01X17774Y29075D01*
G01X17714Y29093D01*
G01X17644Y29099D01*
G01X17596Y29095D01*
G01X17550Y29086D01*
G01X17508Y29070D01*
G01X17467Y29050D01*
G01X17428Y29025D01*
G01X17392Y28997D01*
G01X17356Y28966D01*
G01X17321Y28934D01*
G01X17326Y29137D01*
G01X17326Y29528D01*
G37*

%LPD*%
G36*
G01X16958Y29414D02*
G01X16013Y29414D01*
G01X16013Y29290D01*
G01X16412Y29290D01*
G01X16412Y28113D01*
G01X16559Y28113D01*
G01X16559Y29290D01*
G01X16958Y29290D01*
G01X16958Y29414D01*
G37*

%LPD*%
G36*
G01X14372Y29414D02*
G01X14225Y29414D01*
G01X14225Y28113D01*
G01X14372Y28113D01*
G01X14372Y29414D01*
G37*

%LPD*%
G36*
G01X13100Y29414D02*
G01X12950Y29414D01*
G01X12950Y28113D01*
G01X13087Y28113D01*
G01X13087Y28878D01*
G01X13086Y28928D01*
G01X13084Y28978D01*
G01X13081Y29027D01*
G01X13078Y29077D01*
G01X13075Y29126D01*
G01X13069Y29223D01*
G01X13080Y29223D01*
G01X13222Y28957D01*
G01X13709Y28113D01*
G01X13862Y28113D01*
G01X13862Y29414D01*
G01X13722Y29414D01*
G01X13722Y28710D01*
G01X13723Y28661D01*
G01X13724Y28610D01*
G01X13726Y28558D01*
G01X13728Y28508D01*
G01X13732Y28456D01*
G01X13735Y28406D01*
G01X13739Y28356D01*
G01X13742Y28307D01*
G01X13732Y28307D01*
G01X13593Y28573D01*
G01X13100Y29414D01*
G37*

%LPD*%
G36*
G01X12315Y29414D02*
G01X12152Y29414D01*
G01X11708Y28113D01*
G01X11855Y28113D01*
G01X11990Y28525D01*
G01X12475Y28525D01*
G01X12605Y28113D01*
G01X12759Y28113D01*
G01X12315Y29414D01*
G37*

%LPC*%
G36*
G01X12234Y29292D02*
G01X12226Y29292D01*
G01X12211Y29235D01*
G01X12195Y29179D01*
G01X12179Y29124D01*
G01X12163Y29070D01*
G01X12129Y28962D01*
G01X12112Y28907D01*
G01X12094Y28853D01*
G01X12025Y28639D01*
G01X12437Y28639D01*
G01X12368Y28853D01*
G01X12351Y28907D01*
G01X12333Y28962D01*
G01X12316Y29016D01*
G01X12300Y29071D01*
G01X12283Y29125D01*
G01X12267Y29180D01*
G01X12250Y29236D01*
G01X12234Y29292D01*
G37*

%LPD*%
G36*
G01X10913Y29414D02*
G01X10763Y29414D01*
G01X10763Y28113D01*
G01X10913Y28113D01*
G01X10913Y28533D01*
G01X11144Y28807D01*
G01X11543Y28113D01*
G01X11708Y28113D01*
G01X11238Y28921D01*
G01X11647Y29414D01*
G01X11479Y29414D01*
G01X10915Y28746D01*
G01X10913Y28746D01*
G01X10913Y29414D01*
G37*

%LPD*%
G36*
G01X31766Y29345D02*
G01X31642Y29345D01*
G01X31627Y29074D01*
G01X31477Y29063D01*
G01X31477Y28954D01*
G01X31622Y28954D01*
G01X31622Y28403D01*
G01X31625Y28335D01*
G01X31635Y28275D01*
G01X31652Y28222D01*
G01X31678Y28176D01*
G01X31714Y28140D01*
G01X31760Y28113D01*
G01X31817Y28096D01*
G01X31886Y28091D01*
G01X31928Y28094D01*
G01X31972Y28102D01*
G01X32016Y28113D01*
G01X32058Y28126D01*
G01X32028Y28235D01*
G01X32003Y28226D01*
G01X31974Y28218D01*
G01X31944Y28212D01*
G01X31916Y28210D01*
G01X31845Y28223D01*
G01X31798Y28260D01*
G01X31773Y28319D01*
G01X31766Y28398D01*
G01X31766Y28954D01*
G01X32030Y28954D01*
G01X32030Y29074D01*
G01X31766Y29074D01*
G01X31766Y29345D01*
G37*

%LPD*%
G36*
G01X30981Y29095D02*
G01X30923Y29099D01*
G01X30865Y29095D01*
G01X30809Y29084D01*
G01X30755Y29065D01*
G01X30705Y29039D01*
G01X30657Y29006D01*
G01X30615Y28966D01*
G01X30577Y28919D01*
G01X30544Y28866D01*
G01X30517Y28806D01*
G01X30498Y28741D01*
G01X30485Y28669D01*
G01X30481Y28591D01*
G01X30485Y28515D01*
G01X30498Y28445D01*
G01X30517Y28380D01*
G01X30544Y28321D01*
G01X30577Y28269D01*
G01X30615Y28223D01*
G01X30657Y28183D01*
G01X30705Y28151D01*
G01X30755Y28125D01*
G01X30809Y28106D01*
G01X30865Y28095D01*
G01X30923Y28091D01*
G01X30981Y28095D01*
G01X31037Y28106D01*
G01X31091Y28125D01*
G01X31141Y28151D01*
G01X31189Y28183D01*
G01X31232Y28223D01*
G01X31269Y28269D01*
G01X31302Y28321D01*
G01X31329Y28380D01*
G01X31349Y28445D01*
G01X31361Y28515D01*
G01X31365Y28591D01*
G01X31361Y28669D01*
G01X31349Y28741D01*
G01X31329Y28806D01*
G01X31302Y28866D01*
G01X31269Y28919D01*
G01X31232Y28966D01*
G01X31189Y29006D01*
G01X31141Y29039D01*
G01X31091Y29065D01*
G01X31037Y29084D01*
G01X30981Y29095D01*
G37*

%LPC*%
G36*
G01X30985Y28967D02*
G01X30923Y28975D01*
G01X30861Y28967D01*
G01X30805Y28947D01*
G01X30755Y28914D01*
G01X30712Y28869D01*
G01X30678Y28814D01*
G01X30652Y28748D01*
G01X30636Y28674D01*
G01X30631Y28591D01*
G01X30636Y28510D01*
G01X30652Y28437D01*
G01X30678Y28372D01*
G01X30712Y28317D01*
G01X30755Y28272D01*
G01X30805Y28240D01*
G01X30861Y28220D01*
G01X30923Y28213D01*
G01X30985Y28220D01*
G01X31041Y28240D01*
G01X31091Y28272D01*
G01X31134Y28317D01*
G01X31168Y28372D01*
G01X31194Y28437D01*
G01X31210Y28510D01*
G01X31215Y28591D01*
G01X31210Y28674D01*
G01X31194Y28748D01*
G01X31168Y28814D01*
G01X31134Y28869D01*
G01X31091Y28914D01*
G01X31041Y28947D01*
G01X30985Y28967D01*
G37*

%LPD*%
G36*
G01X28665Y29528D02*
G01X28520Y29528D01*
G01X28520Y29152D01*
G01X28528Y28985D01*
G01X28464Y29032D01*
G01X28400Y29069D01*
G01X28331Y29091D01*
G01X28253Y29099D01*
G01X28199Y29095D01*
G01X28146Y29083D01*
G01X28095Y29063D01*
G01X28047Y29037D01*
G01X28002Y29003D01*
G01X27961Y28962D01*
G01X27925Y28915D01*
G01X27894Y28862D01*
G01X27869Y28802D01*
G01X27850Y28737D01*
G01X27838Y28667D01*
G01X27834Y28591D01*
G01X27837Y28514D01*
G01X27847Y28443D01*
G01X27862Y28378D01*
G01X27884Y28319D01*
G01X27910Y28267D01*
G01X27942Y28221D01*
G01X27979Y28182D01*
G01X28021Y28149D01*
G01X28067Y28124D01*
G01X28117Y28105D01*
G01X28172Y28094D01*
G01X28231Y28091D01*
G01X28315Y28101D01*
G01X28395Y28131D01*
G01X28466Y28174D01*
G01X28528Y28228D01*
G01X28530Y28228D01*
G01X28546Y28113D01*
G01X28665Y28113D01*
G01X28665Y29528D01*
G37*

%LPC*%
G36*
G01X28338Y28969D02*
G01X28276Y28975D01*
G01X28216Y28967D01*
G01X28162Y28947D01*
G01X28112Y28913D01*
G01X28070Y28868D01*
G01X28035Y28812D01*
G01X28009Y28747D01*
G01X27992Y28674D01*
G01X27987Y28594D01*
G01X27991Y28509D01*
G01X28005Y28435D01*
G01X28027Y28369D01*
G01X28058Y28315D01*
G01X28098Y28271D01*
G01X28144Y28239D01*
G01X28199Y28219D01*
G01X28261Y28213D01*
G01X28328Y28221D01*
G01X28394Y28247D01*
G01X28457Y28290D01*
G01X28520Y28350D01*
G01X28520Y28868D01*
G01X28457Y28918D01*
G01X28397Y28951D01*
G01X28338Y28969D01*
G37*

%LPD*%
G36*
G01X27343Y29095D02*
G01X27286Y29099D01*
G01X27231Y29095D01*
G01X27177Y29083D01*
G01X27125Y29063D01*
G01X27076Y29037D01*
G01X27030Y29003D01*
G01X26988Y28962D01*
G01X26951Y28915D01*
G01X26918Y28862D01*
G01X26893Y28802D01*
G01X26873Y28737D01*
G01X26861Y28667D01*
G01X26856Y28591D01*
G01X26861Y28515D01*
G01X26873Y28445D01*
G01X26892Y28380D01*
G01X26918Y28321D01*
G01X26951Y28269D01*
G01X26990Y28223D01*
G01X27033Y28183D01*
G01X27082Y28151D01*
G01X27134Y28125D01*
G01X27190Y28106D01*
G01X27249Y28095D01*
G01X27311Y28091D01*
G01X27405Y28098D01*
G01X27488Y28119D01*
G01X27561Y28150D01*
G01X27626Y28187D01*
G01X27573Y28284D01*
G01X27518Y28251D01*
G01X27459Y28226D01*
G01X27396Y28211D01*
G01X27329Y28205D01*
G01X27260Y28212D01*
G01X27198Y28230D01*
G01X27143Y28261D01*
G01X27097Y28302D01*
G01X27058Y28354D01*
G01X27029Y28415D01*
G01X27010Y28484D01*
G01X27001Y28561D01*
G01X27657Y28561D01*
G01X27660Y28580D01*
G01X27662Y28602D01*
G01X27664Y28625D01*
G01X27664Y28649D01*
G01X27661Y28716D01*
G01X27653Y28779D01*
G01X27639Y28836D01*
G01X27619Y28889D01*
G01X27595Y28936D01*
G01X27565Y28978D01*
G01X27530Y29014D01*
G01X27490Y29044D01*
G01X27446Y29068D01*
G01X27396Y29085D01*
G01X27343Y29095D01*
G37*

%LPC*%
G36*
G01X27342Y28977D02*
G01X27286Y28982D01*
G01X27233Y28977D01*
G01X27184Y28961D01*
G01X27138Y28935D01*
G01X27097Y28899D01*
G01X27061Y28854D01*
G01X27032Y28800D01*
G01X27011Y28738D01*
G01X26999Y28667D01*
G01X27535Y28667D01*
G01X27531Y28740D01*
G01X27518Y28803D01*
G01X27498Y28857D01*
G01X27469Y28902D01*
G01X27434Y28937D01*
G01X27391Y28962D01*
G01X27342Y28977D01*
G37*

%LPD*%
G36*
G01X24898Y29074D02*
G01X24753Y29074D01*
G01X24753Y28464D01*
G01X24758Y28377D01*
G01X24771Y28302D01*
G01X24793Y28237D01*
G01X24824Y28185D01*
G01X24865Y28144D01*
G01X24915Y28115D01*
G01X24975Y28097D01*
G01X25045Y28091D01*
G01X25093Y28094D01*
G01X25138Y28103D01*
G01X25181Y28119D01*
G01X25221Y28139D01*
G01X25259Y28165D01*
G01X25295Y28195D01*
G01X25331Y28228D01*
G01X25365Y28266D01*
G01X25371Y28266D01*
G01X25383Y28113D01*
G01X25503Y28113D01*
G01X25503Y29074D01*
G01X25358Y29074D01*
G01X25358Y28385D01*
G01X25289Y28310D01*
G01X25224Y28258D01*
G01X25159Y28227D01*
G01X25089Y28218D01*
G01X25041Y28221D01*
G01X25001Y28233D01*
G01X24968Y28252D01*
G01X24942Y28280D01*
G01X24922Y28317D01*
G01X24909Y28362D01*
G01X24901Y28417D01*
G01X24898Y28482D01*
G01X24898Y29074D01*
G37*

%LPD*%
G36*
G01X23758Y29528D02*
G01X23613Y29528D01*
G01X23613Y29152D01*
G01X23621Y28985D01*
G01X23557Y29032D01*
G01X23493Y29069D01*
G01X23424Y29091D01*
G01X23346Y29099D01*
G01X23291Y29095D01*
G01X23238Y29083D01*
G01X23188Y29063D01*
G01X23139Y29037D01*
G01X23095Y29003D01*
G01X23054Y28962D01*
G01X23018Y28915D01*
G01X22987Y28862D01*
G01X22962Y28802D01*
G01X22943Y28737D01*
G01X22931Y28667D01*
G01X22927Y28591D01*
G01X22930Y28514D01*
G01X22940Y28443D01*
G01X22955Y28378D01*
G01X22976Y28319D01*
G01X23003Y28267D01*
G01X23035Y28221D01*
G01X23072Y28182D01*
G01X23114Y28149D01*
G01X23160Y28124D01*
G01X23210Y28105D01*
G01X23265Y28094D01*
G01X23323Y28091D01*
G01X23408Y28101D01*
G01X23487Y28131D01*
G01X23559Y28174D01*
G01X23621Y28228D01*
G01X23623Y28228D01*
G01X23638Y28113D01*
G01X23758Y28113D01*
G01X23758Y29528D01*
G37*

%LPC*%
G36*
G01X23431Y28969D02*
G01X23369Y28975D01*
G01X23309Y28967D01*
G01X23254Y28947D01*
G01X23205Y28913D01*
G01X23162Y28868D01*
G01X23128Y28812D01*
G01X23101Y28747D01*
G01X23085Y28674D01*
G01X23079Y28594D01*
G01X23084Y28509D01*
G01X23098Y28435D01*
G01X23120Y28369D01*
G01X23151Y28315D01*
G01X23190Y28271D01*
G01X23237Y28239D01*
G01X23292Y28219D01*
G01X23354Y28213D01*
G01X23421Y28221D01*
G01X23486Y28247D01*
G01X23550Y28290D01*
G01X23613Y28350D01*
G01X23613Y28868D01*
G01X23550Y28918D01*
G01X23490Y28951D01*
G01X23431Y28969D01*
G37*

%LPD*%
G36*
G01X22414Y29096D02*
G01X22358Y29099D01*
G01X22301Y29096D01*
G01X22246Y29087D01*
G01X22194Y29074D01*
G01X22145Y29056D01*
G01X22099Y29037D01*
G01X22057Y29015D01*
G01X22018Y28993D01*
G01X21985Y28972D01*
G01X22043Y28870D01*
G01X22104Y28909D01*
G01X22173Y28943D01*
G01X22251Y28967D01*
G01X22335Y28977D01*
G01X22392Y28972D01*
G01X22437Y28955D01*
G01X22473Y28930D01*
G01X22500Y28897D01*
G01X22519Y28859D01*
G01X22531Y28815D01*
G01X22537Y28769D01*
G01X22538Y28721D01*
G01X22440Y28707D01*
G01X22352Y28692D01*
G01X22272Y28673D01*
G01X22202Y28652D01*
G01X22140Y28629D01*
G01X22087Y28601D01*
G01X22043Y28571D01*
G01X22007Y28536D01*
G01X21979Y28499D01*
G01X21959Y28456D01*
G01X21948Y28410D01*
G01X21944Y28360D01*
G01X21950Y28299D01*
G01X21965Y28245D01*
G01X21991Y28199D01*
G01X22025Y28160D01*
G01X22066Y28130D01*
G01X22113Y28108D01*
G01X22166Y28095D01*
G01X22224Y28091D01*
G01X22311Y28101D01*
G01X22395Y28131D01*
G01X22474Y28175D01*
G01X22546Y28230D01*
G01X22551Y28230D01*
G01X22564Y28113D01*
G01X22683Y28113D01*
G01X22683Y28708D01*
G01X22681Y28765D01*
G01X22676Y28818D01*
G01X22665Y28867D01*
G01X22651Y28913D01*
G01X22632Y28954D01*
G01X22609Y28991D01*
G01X22580Y29023D01*
G01X22546Y29050D01*
G01X22507Y29071D01*
G01X22463Y29086D01*
G01X22414Y29096D01*
G37*

%LPC*%
G36*
G01X22538Y28342D02*
G01X22538Y28621D01*
G01X22422Y28605D01*
G01X22325Y28585D01*
G01X22246Y28560D01*
G01X22184Y28531D01*
G01X22139Y28498D01*
G01X22107Y28459D01*
G01X22089Y28417D01*
G01X22084Y28370D01*
G01X22098Y28295D01*
G01X22137Y28245D01*
G01X22193Y28217D01*
G01X22262Y28207D01*
G01X22333Y28216D01*
G01X22401Y28242D01*
G01X22468Y28284D01*
G01X22538Y28342D01*
G37*

%LPD*%
G36*
G01X21065Y29074D02*
G01X20920Y29074D01*
G01X20920Y28464D01*
G01X20925Y28377D01*
G01X20938Y28302D01*
G01X20960Y28237D01*
G01X20991Y28185D01*
G01X21032Y28144D01*
G01X21083Y28115D01*
G01X21142Y28097D01*
G01X21213Y28091D01*
G01X21261Y28094D01*
G01X21307Y28103D01*
G01X21350Y28119D01*
G01X21390Y28139D01*
G01X21428Y28165D01*
G01X21464Y28195D01*
G01X21499Y28228D01*
G01X21533Y28266D01*
G01X21538Y28266D01*
G01X21550Y28113D01*
G01X21670Y28113D01*
G01X21670Y29074D01*
G01X21525Y29074D01*
G01X21525Y28385D01*
G01X21457Y28310D01*
G01X21393Y28258D01*
G01X21327Y28227D01*
G01X21256Y28218D01*
G01X21209Y28221D01*
G01X21169Y28233D01*
G01X21136Y28252D01*
G01X21110Y28280D01*
G01X21090Y28317D01*
G01X21076Y28362D01*
G01X21068Y28417D01*
G01X21065Y28482D01*
G01X21065Y29074D01*
G37*

%LPD*%
G36*
G01X18664Y29095D02*
G01X18607Y29099D01*
G01X18552Y29095D01*
G01X18498Y29083D01*
G01X18446Y29063D01*
G01X18397Y29037D01*
G01X18351Y29003D01*
G01X18309Y28962D01*
G01X18272Y28915D01*
G01X18239Y28862D01*
G01X18213Y28802D01*
G01X18194Y28737D01*
G01X18181Y28667D01*
G01X18177Y28591D01*
G01X18181Y28515D01*
G01X18194Y28445D01*
G01X18213Y28380D01*
G01X18239Y28321D01*
G01X18272Y28269D01*
G01X18310Y28223D01*
G01X18355Y28183D01*
G01X18403Y28151D01*
G01X18456Y28125D01*
G01X18513Y28106D01*
G01X18572Y28095D01*
G01X18634Y28091D01*
G01X18727Y28098D01*
G01X18810Y28119D01*
G01X18882Y28150D01*
G01X18947Y28187D01*
G01X18894Y28284D01*
G01X18839Y28251D01*
G01X18781Y28226D01*
G01X18720Y28211D01*
G01X18652Y28205D01*
G01X18583Y28212D01*
G01X18521Y28230D01*
G01X18466Y28261D01*
G01X18419Y28302D01*
G01X18380Y28354D01*
G01X18351Y28415D01*
G01X18331Y28484D01*
G01X18322Y28561D01*
G01X18977Y28561D01*
G01X18981Y28580D01*
G01X18983Y28602D01*
G01X18985Y28625D01*
G01X18985Y28649D01*
G01X18982Y28716D01*
G01X18974Y28779D01*
G01X18960Y28836D01*
G01X18940Y28889D01*
G01X18916Y28936D01*
G01X18886Y28978D01*
G01X18851Y29014D01*
G01X18812Y29044D01*
G01X18768Y29068D01*
G01X18718Y29085D01*
G01X18664Y29095D01*
G37*

%LPC*%
G36*
G01X18664Y28977D02*
G01X18609Y28982D01*
G01X18557Y28977D01*
G01X18506Y28961D01*
G01X18460Y28935D01*
G01X18419Y28899D01*
G01X18383Y28854D01*
G01X18354Y28800D01*
G01X18332Y28738D01*
G01X18320Y28667D01*
G01X18858Y28667D01*
G01X18853Y28740D01*
G01X18841Y28803D01*
G01X18820Y28857D01*
G01X18791Y28902D01*
G01X18756Y28937D01*
G01X18713Y28962D01*
G01X18664Y28977D01*
G37*

%LPD*%
G36*
G01X20170Y29436D02*
G01X20110Y29439D01*
G01X20051Y29436D01*
G01X19995Y29428D01*
G01X19941Y29413D01*
G01X19889Y29393D01*
G01X19841Y29367D01*
G01X19796Y29336D01*
G01X19754Y29300D01*
G01X19716Y29260D01*
G01X19681Y29213D01*
G01X19651Y29163D01*
G01X19625Y29108D01*
G01X19602Y29048D01*
G01X19585Y28984D01*
G01X19572Y28917D01*
G01X19564Y28845D01*
G01X19562Y28769D01*
G01X19564Y28699D01*
G01X19570Y28631D01*
G01X19581Y28568D01*
G01X19596Y28507D01*
G01X19615Y28450D01*
G01X19638Y28397D01*
G01X19664Y28348D01*
G01X19694Y28302D01*
G01X19727Y28261D01*
G01X19763Y28224D01*
G01X19802Y28191D01*
G01X19845Y28163D01*
G01X19889Y28139D01*
G01X19937Y28120D01*
G01X19987Y28105D01*
G01X20039Y28096D01*
G01X20070Y28032D01*
G01X20109Y27974D01*
G01X20156Y27922D01*
G01X20211Y27878D01*
G01X20273Y27841D01*
G01X20344Y27814D01*
G01X20422Y27797D01*
G01X20506Y27791D01*
G01X20560Y27793D01*
G01X20610Y27799D01*
G01X20652Y27808D01*
G01X20684Y27819D01*
G01X20656Y27933D01*
G01X20629Y27927D01*
G01X20598Y27921D01*
G01X20563Y27917D01*
G01X20522Y27915D01*
G01X20468Y27918D01*
G01X20418Y27927D01*
G01X20371Y27941D01*
G01X20327Y27961D01*
G01X20287Y27987D01*
G01X20251Y28018D01*
G01X20221Y28056D01*
G01X20197Y28098D01*
G01X20247Y28109D01*
G01X20296Y28124D01*
G01X20342Y28144D01*
G01X20386Y28168D01*
G01X20427Y28197D01*
G01X20465Y28230D01*
G01X20500Y28267D01*
G01X20533Y28308D01*
G01X20562Y28353D01*
G01X20587Y28402D01*
G01X20610Y28454D01*
G01X20628Y28510D01*
G01X20642Y28570D01*
G01X20653Y28633D01*
G01X20659Y28699D01*
G01X20661Y28769D01*
G01X20659Y28845D01*
G01X20651Y28917D01*
G01X20639Y28984D01*
G01X20621Y29048D01*
G01X20599Y29108D01*
G01X20573Y29163D01*
G01X20542Y29213D01*
G01X20508Y29260D01*
G01X20469Y29300D01*
G01X20428Y29336D01*
G01X20382Y29367D01*
G01X20334Y29393D01*
G01X20282Y29413D01*
G01X20227Y29428D01*
G01X20170Y29436D01*
G37*

%LPC*%
G36*
G01X20169Y29303D02*
G01X20110Y29307D01*
G01X20052Y29303D01*
G01X19998Y29291D01*
G01X19947Y29270D01*
G01X19901Y29242D01*
G01X19859Y29206D01*
G01X19821Y29163D01*
G01X19789Y29113D01*
G01X19762Y29056D01*
G01X19740Y28993D01*
G01X19725Y28924D01*
G01X19714Y28849D01*
G01X19711Y28769D01*
G01X19714Y28687D01*
G01X19725Y28610D01*
G01X19740Y28539D01*
G01X19762Y28475D01*
G01X19789Y28416D01*
G01X19821Y28364D01*
G01X19859Y28319D01*
G01X19901Y28282D01*
G01X19947Y28252D01*
G01X19998Y28230D01*
G01X20052Y28217D01*
G01X20110Y28213D01*
G01X20169Y28217D01*
G01X20224Y28230D01*
G01X20275Y28252D01*
G01X20322Y28282D01*
G01X20364Y28319D01*
G01X20401Y28364D01*
G01X20434Y28416D01*
G01X20461Y28475D01*
G01X20483Y28539D01*
G01X20498Y28610D01*
G01X20509Y28687D01*
G01X20512Y28769D01*
G01X20509Y28849D01*
G01X20498Y28924D01*
G01X20483Y28993D01*
G01X20461Y29056D01*
G01X20434Y29113D01*
G01X20401Y29163D01*
G01X20364Y29206D01*
G01X20322Y29242D01*
G01X20275Y29270D01*
G01X20224Y29291D01*
G01X20169Y29303D01*
G37*

%LPD*%
G36*
G01X26345Y29095D02*
G01X26285Y29099D01*
G01X26202Y29087D01*
G01X26121Y29057D01*
G01X26045Y29013D01*
G01X25975Y28962D01*
G01X25970Y28962D01*
G01X25955Y29074D01*
G01X25838Y29074D01*
G01X25838Y27702D01*
G01X25983Y27702D01*
G01X25983Y28032D01*
G01X25978Y28202D01*
G01X26046Y28155D01*
G01X26114Y28120D01*
G01X26182Y28098D01*
G01X26249Y28091D01*
G01X26304Y28095D01*
G01X26357Y28106D01*
G01X26408Y28126D01*
G01X26456Y28152D01*
G01X26501Y28186D01*
G01X26542Y28227D01*
G01X26578Y28275D01*
G01X26609Y28329D01*
G01X26634Y28390D01*
G01X26653Y28456D01*
G01X26664Y28530D01*
G01X26669Y28609D01*
G01X26666Y28680D01*
G01X26657Y28747D01*
G01X26644Y28809D01*
G01X26624Y28867D01*
G01X26600Y28919D01*
G01X26570Y28964D01*
G01X26535Y29004D01*
G01X26495Y29038D01*
G01X26450Y29064D01*
G01X26400Y29083D01*
G01X26345Y29095D01*
G37*

%LPC*%
G36*
G01X26316Y28967D02*
G01X26249Y28975D01*
G01X26186Y28966D01*
G01X26121Y28940D01*
G01X26053Y28897D01*
G01X25983Y28837D01*
G01X25983Y28317D01*
G01X26049Y28268D01*
G01X26113Y28236D01*
G01X26173Y28218D01*
G01X26227Y28213D01*
G01X26287Y28220D01*
G01X26342Y28240D01*
G01X26392Y28274D01*
G01X26434Y28319D01*
G01X26469Y28376D01*
G01X26494Y28444D01*
G01X26511Y28522D01*
G01X26516Y28609D01*
G01X26513Y28687D01*
G01X26501Y28757D01*
G01X26483Y28820D01*
G01X26455Y28872D01*
G01X26419Y28916D01*
G01X26372Y28948D01*
G01X26316Y28967D01*
G37*

%LPD*%

%LPD*%
G36*
G01X28531Y27066D02*
G01X28502Y27067D01*
G01X28423Y27052D01*
G01X28349Y27012D01*
G01X28284Y26948D01*
G01X28231Y26866D01*
G01X28223Y26866D01*
G01X28210Y27042D01*
G01X28093Y27042D01*
G01X28093Y26081D01*
G01X28236Y26081D01*
G01X28236Y26706D01*
G01X28291Y26813D01*
G01X28354Y26884D01*
G01X28420Y26923D01*
G01X28485Y26935D01*
G01X28509Y26934D01*
G01X28531Y26931D01*
G01X28552Y26926D01*
G01X28574Y26920D01*
G01X28604Y27044D01*
G01X28580Y27055D01*
G01X28556Y27062D01*
G01X28531Y27066D01*
G37*

%LPD*%
G36*
G01X27913Y27382D02*
G01X27174Y27382D01*
G01X27174Y26081D01*
G01X27321Y26081D01*
G01X27321Y26676D01*
G01X27822Y26676D01*
G01X27822Y26800D01*
G01X27321Y26800D01*
G01X27321Y27258D01*
G01X27913Y27258D01*
G01X27913Y27382D01*
G37*

%LPD*%
G36*
G01X25111Y27382D02*
G01X24733Y27382D01*
G01X24733Y26081D01*
G01X25139Y26081D01*
G01X25211Y26084D01*
G01X25278Y26092D01*
G01X25340Y26105D01*
G01X25397Y26124D01*
G01X25449Y26148D01*
G01X25496Y26176D01*
G01X25536Y26211D01*
G01X25569Y26251D01*
G01X25596Y26296D01*
G01X25616Y26346D01*
G01X25628Y26402D01*
G01X25632Y26462D01*
G01X25627Y26525D01*
G01X25612Y26582D01*
G01X25589Y26632D01*
G01X25556Y26674D01*
G01X25517Y26709D01*
G01X25472Y26738D01*
G01X25420Y26760D01*
G01X25363Y26775D01*
G01X25363Y26783D01*
G01X25407Y26801D01*
G01X25446Y26826D01*
G01X25479Y26856D01*
G01X25506Y26890D01*
G01X25528Y26929D01*
G01X25543Y26972D01*
G01X25553Y27017D01*
G01X25556Y27064D01*
G01X25552Y27118D01*
G01X25541Y27167D01*
G01X25523Y27209D01*
G01X25500Y27247D01*
G01X25469Y27280D01*
G01X25433Y27308D01*
G01X25391Y27331D01*
G01X25344Y27350D01*
G01X25292Y27364D01*
G01X25236Y27374D01*
G01X25175Y27380D01*
G01X25111Y27382D01*
G37*

%LPC*%
G36*
G01X25089Y27265D02*
G01X24883Y27265D01*
G01X24883Y26826D01*
G01X25081Y26826D01*
G01X25162Y26830D01*
G01X25231Y26841D01*
G01X25287Y26859D01*
G01X25332Y26885D01*
G01X25367Y26917D01*
G01X25390Y26954D01*
G01X25404Y26998D01*
G01X25409Y27047D01*
G01X25404Y27102D01*
G01X25389Y27148D01*
G01X25363Y27186D01*
G01X25329Y27216D01*
G01X25284Y27238D01*
G01X25229Y27253D01*
G01X25164Y27262D01*
G01X25089Y27265D01*
G37*
G36*
G01X25117Y26711D02*
G01X24883Y26711D01*
G01X24883Y26198D01*
G01X25117Y26198D01*
G01X25199Y26202D01*
G01X25272Y26214D01*
G01X25336Y26234D01*
G01X25389Y26263D01*
G01X25431Y26301D01*
G01X25462Y26347D01*
G01X25481Y26403D01*
G01X25487Y26468D01*
G01X25481Y26526D01*
G01X25463Y26576D01*
G01X25433Y26618D01*
G01X25390Y26652D01*
G01X25338Y26678D01*
G01X25274Y26697D01*
G01X25200Y26708D01*
G01X25117Y26711D01*
G37*

%LPD*%
G36*
G01X32221Y26282D02*
G01X32178Y26290D01*
G01X32137Y26282D01*
G01X32103Y26258D01*
G01X32080Y26221D01*
G01X32071Y26173D01*
G01X32080Y26126D01*
G01X32103Y26090D01*
G01X32137Y26067D01*
G01X32178Y26059D01*
G01X32221Y26067D01*
G01X32257Y26090D01*
G01X32281Y26126D01*
G01X32290Y26173D01*
G01X32281Y26221D01*
G01X32257Y26258D01*
G01X32221Y26282D01*
G37*

%LPD*%
G36*
G01X31809Y27382D02*
G01X31662Y27382D01*
G01X31662Y26470D01*
G01X31659Y26401D01*
G01X31649Y26342D01*
G01X31632Y26293D01*
G01X31609Y26254D01*
G01X31579Y26224D01*
G01X31542Y26204D01*
G01X31499Y26192D01*
G01X31449Y26188D01*
G01X31379Y26196D01*
G01X31318Y26222D01*
G01X31264Y26267D01*
G01X31218Y26335D01*
G01X31111Y26262D01*
G01X31140Y26215D01*
G01X31174Y26173D01*
G01X31211Y26138D01*
G01X31253Y26110D01*
G01X31298Y26088D01*
G01X31347Y26071D01*
G01X31401Y26062D01*
G01X31459Y26059D01*
G01X31519Y26062D01*
G01X31572Y26073D01*
G01X31620Y26090D01*
G01X31662Y26113D01*
G01X31698Y26141D01*
G01X31729Y26175D01*
G01X31754Y26214D01*
G01X31774Y26256D01*
G01X31790Y26302D01*
G01X31801Y26351D01*
G01X31807Y26403D01*
G01X31809Y26457D01*
G01X31809Y27382D01*
G37*

%LPD*%
G36*
G01X30481Y27496D02*
G01X30336Y27496D01*
G01X30336Y27120D01*
G01X30344Y26953D01*
G01X30280Y27000D01*
G01X30216Y27037D01*
G01X30146Y27059D01*
G01X30067Y27067D01*
G01X30013Y27063D01*
G01X29960Y27051D01*
G01X29910Y27031D01*
G01X29862Y27005D01*
G01X29818Y26971D01*
G01X29777Y26930D01*
G01X29741Y26883D01*
G01X29710Y26830D01*
G01X29685Y26770D01*
G01X29666Y26705D01*
G01X29655Y26635D01*
G01X29650Y26559D01*
G01X29654Y26482D01*
G01X29663Y26411D01*
G01X29678Y26346D01*
G01X29700Y26287D01*
G01X29726Y26235D01*
G01X29758Y26189D01*
G01X29795Y26150D01*
G01X29837Y26117D01*
G01X29883Y26092D01*
G01X29933Y26073D01*
G01X29988Y26062D01*
G01X30047Y26059D01*
G01X30132Y26069D01*
G01X30211Y26099D01*
G01X30282Y26142D01*
G01X30344Y26196D01*
G01X30346Y26196D01*
G01X30362Y26081D01*
G01X30481Y26081D01*
G01X30481Y27496D01*
G37*

%LPC*%
G36*
G01X30151Y26937D02*
G01X30090Y26943D01*
G01X30031Y26935D01*
G01X29976Y26915D01*
G01X29927Y26881D01*
G01X29884Y26836D01*
G01X29849Y26780D01*
G01X29823Y26715D01*
G01X29806Y26642D01*
G01X29800Y26562D01*
G01X29805Y26477D01*
G01X29819Y26403D01*
G01X29841Y26337D01*
G01X29873Y26283D01*
G01X29913Y26239D01*
G01X29960Y26207D01*
G01X30015Y26187D01*
G01X30077Y26181D01*
G01X30144Y26189D01*
G01X30209Y26215D01*
G01X30272Y26258D01*
G01X30336Y26318D01*
G01X30336Y26836D01*
G01X30273Y26886D01*
G01X30212Y26919D01*
G01X30151Y26937D01*
G37*

%LPD*%
G36*
G01X29159Y27063D02*
G01X29102Y27067D01*
G01X29047Y27063D01*
G01X28993Y27051D01*
G01X28941Y27031D01*
G01X28893Y27005D01*
G01X28846Y26971D01*
G01X28804Y26930D01*
G01X28767Y26883D01*
G01X28735Y26830D01*
G01X28709Y26770D01*
G01X28689Y26705D01*
G01X28677Y26635D01*
G01X28673Y26559D01*
G01X28677Y26483D01*
G01X28689Y26413D01*
G01X28708Y26348D01*
G01X28735Y26289D01*
G01X28767Y26237D01*
G01X28806Y26191D01*
G01X28849Y26151D01*
G01X28898Y26119D01*
G01X28950Y26093D01*
G01X29006Y26074D01*
G01X29065Y26063D01*
G01X29127Y26059D01*
G01X29221Y26066D01*
G01X29304Y26087D01*
G01X29377Y26118D01*
G01X29442Y26155D01*
G01X29389Y26252D01*
G01X29334Y26219D01*
G01X29276Y26194D01*
G01X29213Y26179D01*
G01X29145Y26173D01*
G01X29076Y26180D01*
G01X29013Y26198D01*
G01X28959Y26229D01*
G01X28912Y26270D01*
G01X28873Y26322D01*
G01X28845Y26383D01*
G01X28825Y26452D01*
G01X28817Y26529D01*
G01X29473Y26529D01*
G01X29476Y26548D01*
G01X29478Y26570D01*
G01X29480Y26593D01*
G01X29480Y26617D01*
G01X29477Y26684D01*
G01X29469Y26747D01*
G01X29455Y26804D01*
G01X29435Y26857D01*
G01X29411Y26904D01*
G01X29381Y26946D01*
G01X29346Y26982D01*
G01X29306Y27012D01*
G01X29262Y27036D01*
G01X29213Y27053D01*
G01X29159Y27063D01*
G37*

%LPC*%
G36*
G01X29158Y26945D02*
G01X29102Y26950D01*
G01X29050Y26945D01*
G01X29000Y26929D01*
G01X28954Y26903D01*
G01X28912Y26867D01*
G01X28877Y26822D01*
G01X28848Y26768D01*
G01X28827Y26706D01*
G01X28815Y26635D01*
G01X29351Y26635D01*
G01X29347Y26708D01*
G01X29334Y26771D01*
G01X29314Y26825D01*
G01X29285Y26870D01*
G01X29250Y26905D01*
G01X29207Y26930D01*
G01X29158Y26945D01*
G37*

%LPD*%
G36*
G01X25861Y27042D02*
G01X25708Y27042D01*
G01X26097Y26076D01*
G01X26074Y26000D01*
G01X26037Y25915D01*
G01X25987Y25846D01*
G01X25925Y25801D01*
G01X25851Y25784D01*
G01X25831Y25786D01*
G01X25811Y25789D01*
G01X25792Y25794D01*
G01X25777Y25800D01*
G01X25746Y25683D01*
G01X25770Y25674D01*
G01X25796Y25668D01*
G01X25825Y25664D01*
G01X25856Y25662D01*
G01X25922Y25669D01*
G01X25981Y25688D01*
G01X26032Y25719D01*
G01X26078Y25759D01*
G01X26117Y25808D01*
G01X26151Y25864D01*
G01X26181Y25926D01*
G01X26206Y25993D01*
G01X26572Y27042D01*
G01X26430Y27042D01*
G01X26252Y26493D01*
G01X26231Y26427D01*
G01X26210Y26359D01*
G01X26189Y26289D01*
G01X26168Y26221D01*
G01X26161Y26221D01*
G01X26136Y26289D01*
G01X26111Y26359D01*
G01X26087Y26427D01*
G01X26064Y26493D01*
G01X25861Y27042D01*
G37*

%LPD*%

%LPD*%
G36*
G01X26601Y3227D02*
G01X26281Y3227D01*
G01X26281Y3148D01*
G01X26601Y3148D01*
G01X26601Y3227D01*
G37*

%LPD*%
G36*
G01X30792Y3763D02*
G01X30714Y3763D01*
G01X30675Y3743D01*
G01X30632Y3726D01*
G01X30582Y3711D01*
G01X30526Y3699D01*
G01X30526Y3630D01*
G01X30691Y3630D01*
G01X30691Y2919D01*
G01X30483Y2919D01*
G01X30483Y2833D01*
G01X30982Y2833D01*
G01X30982Y2919D01*
G01X30792Y2919D01*
G01X30792Y3763D01*
G37*

%LPD*%
G36*
G01X29355Y3773D02*
G01X29296Y3778D01*
G01X29215Y3768D01*
G01X29145Y3741D01*
G01X29083Y3699D01*
G01X29024Y3643D01*
G01X29086Y3585D01*
G01X29128Y3627D01*
G01X29176Y3662D01*
G01X29228Y3685D01*
G01X29284Y3694D01*
G01X29361Y3679D01*
G01X29417Y3640D01*
G01X29450Y3579D01*
G01X29461Y3503D01*
G01X29458Y3463D01*
G01X29450Y3421D01*
G01X29436Y3377D01*
G01X29416Y3332D01*
G01X29390Y3284D01*
G01X29358Y3236D01*
G01X29320Y3184D01*
G01X29276Y3131D01*
G01X29224Y3076D01*
G01X29167Y3018D01*
G01X29103Y2957D01*
G01X29032Y2894D01*
G01X29032Y2833D01*
G01X29606Y2833D01*
G01X29606Y2922D01*
G01X29340Y2922D01*
G01X29304Y2921D01*
G01X29265Y2920D01*
G01X29187Y2914D01*
G01X29243Y2967D01*
G01X29294Y3019D01*
G01X29342Y3070D01*
G01X29386Y3120D01*
G01X29425Y3170D01*
G01X29460Y3219D01*
G01X29491Y3269D01*
G01X29516Y3317D01*
G01X29536Y3365D01*
G01X29551Y3413D01*
G01X29560Y3461D01*
G01X29563Y3509D01*
G01X29558Y3566D01*
G01X29544Y3619D01*
G01X29522Y3665D01*
G01X29491Y3704D01*
G01X29453Y3735D01*
G01X29408Y3758D01*
G01X29355Y3773D01*
G37*

%LPD*%
G36*
G01X25621Y3773D02*
G01X25563Y3778D01*
G01X25482Y3768D01*
G01X25413Y3741D01*
G01X25350Y3699D01*
G01X25293Y3643D01*
G01X25354Y3585D01*
G01X25396Y3627D01*
G01X25444Y3662D01*
G01X25496Y3685D01*
G01X25552Y3694D01*
G01X25630Y3679D01*
G01X25685Y3640D01*
G01X25717Y3579D01*
G01X25728Y3503D01*
G01X25725Y3463D01*
G01X25717Y3421D01*
G01X25702Y3377D01*
G01X25682Y3332D01*
G01X25656Y3284D01*
G01X25624Y3236D01*
G01X25586Y3184D01*
G01X25542Y3131D01*
G01X25490Y3076D01*
G01X25433Y3018D01*
G01X25369Y2957D01*
G01X25298Y2894D01*
G01X25298Y2833D01*
G01X25875Y2833D01*
G01X25875Y2922D01*
G01X25608Y2922D01*
G01X25571Y2921D01*
G01X25532Y2920D01*
G01X25493Y2917D01*
G01X25456Y2914D01*
G01X25510Y2967D01*
G01X25562Y3019D01*
G01X25609Y3070D01*
G01X25653Y3120D01*
G01X25692Y3170D01*
G01X25727Y3219D01*
G01X25757Y3269D01*
G01X25783Y3317D01*
G01X25802Y3365D01*
G01X25817Y3413D01*
G01X25826Y3461D01*
G01X25829Y3509D01*
G01X25824Y3566D01*
G01X25810Y3619D01*
G01X25788Y3665D01*
G01X25758Y3704D01*
G01X25719Y3735D01*
G01X25674Y3758D01*
G01X25621Y3773D01*
G37*

%LPD*%
G36*
G01X24625Y3763D02*
G01X24547Y3763D01*
G01X24508Y3743D01*
G01X24465Y3726D01*
G01X24415Y3711D01*
G01X24358Y3699D01*
G01X24358Y3630D01*
G01X24524Y3630D01*
G01X24524Y2919D01*
G01X24315Y2919D01*
G01X24315Y2833D01*
G01X24816Y2833D01*
G01X24816Y2919D01*
G01X24625Y2919D01*
G01X24625Y3763D01*
G37*

%LPD*%
G36*
G01X23601Y3535D02*
G01X23581Y3536D01*
G01X23524Y3526D01*
G01X23472Y3497D01*
G01X23425Y3452D01*
G01X23385Y3392D01*
G01X23383Y3392D01*
G01X23373Y3519D01*
G01X23289Y3519D01*
G01X23289Y2833D01*
G01X23391Y2833D01*
G01X23391Y3280D01*
G01X23430Y3356D01*
G01X23475Y3406D01*
G01X23521Y3434D01*
G01X23566Y3442D01*
G01X23585Y3442D01*
G01X23601Y3440D01*
G01X23616Y3437D01*
G01X23632Y3432D01*
G01X23653Y3521D01*
G01X23635Y3529D01*
G01X23618Y3533D01*
G01X23601Y3535D01*
G37*

%LPD*%
G36*
G01X21882Y3763D02*
G01X21773Y3763D01*
G01X22072Y2833D01*
G01X22192Y2833D01*
G01X22489Y3763D01*
G01X22383Y3763D01*
G01X22230Y3249D01*
G01X22205Y3169D01*
G01X22183Y3094D01*
G01X22161Y3020D01*
G01X22136Y2942D01*
G01X22131Y2942D01*
G01X22105Y3020D01*
G01X22083Y3094D01*
G01X22062Y3169D01*
G01X22039Y3249D01*
G01X21882Y3763D01*
G37*

%LPD*%
G36*
G01X31428Y3775D02*
G01X31384Y3778D01*
G01X31332Y3772D01*
G01X31283Y3756D01*
G01X31239Y3729D01*
G01X31200Y3694D01*
G01X31168Y3651D01*
G01X31143Y3601D01*
G01X31128Y3544D01*
G01X31123Y3481D01*
G01X31127Y3412D01*
G01X31140Y3353D01*
G01X31162Y3302D01*
G01X31191Y3261D01*
G01X31228Y3228D01*
G01X31271Y3205D01*
G01X31321Y3191D01*
G01X31377Y3186D01*
G01X31437Y3195D01*
G01X31494Y3219D01*
G01X31547Y3257D01*
G01X31595Y3305D01*
G01X31587Y3202D01*
G01X31571Y3116D01*
G01X31548Y3046D01*
G01X31518Y2992D01*
G01X31483Y2952D01*
G01X31444Y2924D01*
G01X31401Y2909D01*
G01X31356Y2904D01*
G01X31311Y2909D01*
G01X31269Y2922D01*
G01X31231Y2944D01*
G01X31199Y2973D01*
G01X31140Y2909D01*
G01X31182Y2871D01*
G01X31232Y2842D01*
G01X31291Y2822D01*
G01X31359Y2815D01*
G01X31402Y2818D01*
G01X31443Y2827D01*
G01X31484Y2844D01*
G01X31522Y2866D01*
G01X31558Y2897D01*
G01X31591Y2935D01*
G01X31620Y2981D01*
G01X31645Y3035D01*
G01X31666Y3098D01*
G01X31681Y3170D01*
G01X31691Y3250D01*
G01X31694Y3341D01*
G01X31691Y3410D01*
G01X31683Y3473D01*
G01X31671Y3531D01*
G01X31654Y3583D01*
G01X31632Y3628D01*
G01X31607Y3668D01*
G01X31577Y3701D01*
G01X31544Y3728D01*
G01X31509Y3750D01*
G01X31470Y3765D01*
G01X31428Y3775D01*
G37*

%LPC*%
G36*
G01X31429Y3693D02*
G01X31384Y3699D01*
G01X31320Y3683D01*
G01X31268Y3637D01*
G01X31234Y3568D01*
G01X31222Y3481D01*
G01X31232Y3392D01*
G01X31264Y3324D01*
G01X31318Y3280D01*
G01X31394Y3265D01*
G01X31443Y3271D01*
G01X31493Y3294D01*
G01X31545Y3333D01*
G01X31595Y3392D01*
G01X31588Y3461D01*
G01X31575Y3522D01*
G01X31557Y3575D01*
G01X31533Y3618D01*
G01X31504Y3653D01*
G01X31469Y3678D01*
G01X31429Y3693D01*
G37*

%LPD*%
G36*
G01X30062Y3774D02*
G01X30020Y3778D01*
G01X29978Y3774D01*
G01X29938Y3765D01*
G01X29901Y3748D01*
G01X29868Y3725D01*
G01X29838Y3696D01*
G01X29812Y3660D01*
G01X29789Y3617D01*
G01X29770Y3567D01*
G01X29755Y3511D01*
G01X29744Y3448D01*
G01X29738Y3377D01*
G01X29735Y3300D01*
G01X29738Y3223D01*
G01X29744Y3152D01*
G01X29755Y3088D01*
G01X29770Y3031D01*
G01X29789Y2980D01*
G01X29812Y2937D01*
G01X29838Y2899D01*
G01X29868Y2869D01*
G01X29901Y2846D01*
G01X29938Y2828D01*
G01X29978Y2818D01*
G01X30020Y2815D01*
G01X30062Y2818D01*
G01X30102Y2828D01*
G01X30139Y2846D01*
G01X30172Y2869D01*
G01X30202Y2899D01*
G01X30228Y2937D01*
G01X30251Y2980D01*
G01X30270Y3031D01*
G01X30285Y3088D01*
G01X30296Y3152D01*
G01X30302Y3223D01*
G01X30305Y3300D01*
G01X30302Y3377D01*
G01X30296Y3448D01*
G01X30285Y3511D01*
G01X30270Y3567D01*
G01X30251Y3617D01*
G01X30228Y3660D01*
G01X30202Y3696D01*
G01X30172Y3725D01*
G01X30139Y3748D01*
G01X30102Y3765D01*
G01X30062Y3774D01*
G37*

%LPC*%
G36*
G01X30059Y3688D02*
G01X30020Y3694D01*
G01X29981Y3688D01*
G01X29945Y3671D01*
G01X29914Y3641D01*
G01X29886Y3599D01*
G01X29864Y3544D01*
G01X29848Y3476D01*
G01X29838Y3395D01*
G01X29835Y3300D01*
G01X29838Y3204D01*
G01X29848Y3121D01*
G01X29864Y3052D01*
G01X29886Y2996D01*
G01X29914Y2953D01*
G01X29945Y2923D01*
G01X29981Y2904D01*
G01X30020Y2899D01*
G01X30059Y2904D01*
G01X30094Y2923D01*
G01X30126Y2953D01*
G01X30152Y2996D01*
G01X30174Y3052D01*
G01X30189Y3121D01*
G01X30200Y3204D01*
G01X30203Y3300D01*
G01X30200Y3395D01*
G01X30189Y3476D01*
G01X30174Y3544D01*
G01X30152Y3599D01*
G01X30126Y3641D01*
G01X30094Y3671D01*
G01X30059Y3688D01*
G37*

%LPD*%
G36*
G01X28748Y3714D02*
G01X28661Y3714D01*
G01X28649Y3519D01*
G01X28542Y3514D01*
G01X28542Y3432D01*
G01X28646Y3432D01*
G01X28646Y3041D01*
G01X28655Y2948D01*
G01X28686Y2877D01*
G01X28743Y2831D01*
G01X28834Y2815D01*
G01X28864Y2818D01*
G01X28895Y2824D01*
G01X28926Y2832D01*
G01X28956Y2840D01*
G01X28936Y2919D01*
G01X28917Y2912D01*
G01X28875Y2902D01*
G01X28856Y2901D01*
G01X28804Y2911D01*
G01X28771Y2937D01*
G01X28753Y2980D01*
G01X28748Y3036D01*
G01X28748Y3432D01*
G01X28938Y3432D01*
G01X28938Y3519D01*
G01X28748Y3519D01*
G01X28748Y3714D01*
G37*

%LPD*%
G36*
G01X28333Y3530D02*
G01X28270Y3536D01*
G01X28206Y3530D01*
G01X28146Y3512D01*
G01X28091Y3482D01*
G01X28043Y3441D01*
G01X28002Y3390D01*
G01X27972Y3327D01*
G01X27952Y3255D01*
G01X27945Y3173D01*
G01X27951Y3093D01*
G01X27969Y3022D01*
G01X27998Y2960D01*
G01X28036Y2909D01*
G01X28083Y2868D01*
G01X28137Y2839D01*
G01X28197Y2821D01*
G01X28262Y2815D01*
G01X28324Y2821D01*
G01X28381Y2839D01*
G01X28435Y2867D01*
G01X28484Y2904D01*
G01X28438Y2973D01*
G01X28402Y2946D01*
G01X28363Y2924D01*
G01X28319Y2909D01*
G01X28273Y2904D01*
G01X28225Y2909D01*
G01X28182Y2923D01*
G01X28145Y2946D01*
G01X28113Y2978D01*
G01X28087Y3016D01*
G01X28068Y3062D01*
G01X28056Y3115D01*
G01X28051Y3173D01*
G01X28056Y3232D01*
G01X28068Y3286D01*
G01X28088Y3333D01*
G01X28115Y3373D01*
G01X28147Y3406D01*
G01X28185Y3430D01*
G01X28228Y3445D01*
G01X28275Y3450D01*
G01X28315Y3445D01*
G01X28352Y3431D01*
G01X28386Y3411D01*
G01X28418Y3387D01*
G01X28471Y3455D01*
G01X28432Y3486D01*
G01X28387Y3512D01*
G01X28333Y3530D01*
G37*

%LPD*%
G36*
G01X27465Y3774D02*
G01X27409Y3778D01*
G01X27353Y3774D01*
G01X27299Y3763D01*
G01X27250Y3745D01*
G01X27204Y3720D01*
G01X27162Y3688D01*
G01X27125Y3650D01*
G01X27093Y3606D01*
G01X27066Y3556D01*
G01X27044Y3500D01*
G01X27028Y3438D01*
G01X27019Y3372D01*
G01X27015Y3300D01*
G01X27019Y3229D01*
G01X27028Y3162D01*
G01X27044Y3100D01*
G01X27066Y3043D01*
G01X27093Y2992D01*
G01X27125Y2947D01*
G01X27162Y2908D01*
G01X27204Y2875D01*
G01X27250Y2849D01*
G01X27299Y2830D01*
G01X27353Y2819D01*
G01X27409Y2815D01*
G01X27465Y2819D01*
G01X27518Y2830D01*
G01X27568Y2849D01*
G01X27614Y2875D01*
G01X27656Y2908D01*
G01X27693Y2947D01*
G01X27725Y2992D01*
G01X27752Y3043D01*
G01X27773Y3100D01*
G01X27790Y3162D01*
G01X27799Y3229D01*
G01X27803Y3300D01*
G01X27799Y3372D01*
G01X27790Y3438D01*
G01X27773Y3500D01*
G01X27752Y3556D01*
G01X27725Y3606D01*
G01X27693Y3650D01*
G01X27656Y3688D01*
G01X27614Y3720D01*
G01X27568Y3745D01*
G01X27518Y3763D01*
G01X27465Y3774D01*
G37*

%LPC*%
G36*
G01X27471Y3679D02*
G01X27409Y3686D01*
G01X27347Y3679D01*
G01X27292Y3659D01*
G01X27243Y3627D01*
G01X27202Y3583D01*
G01X27169Y3527D01*
G01X27145Y3461D01*
G01X27130Y3385D01*
G01X27125Y3300D01*
G01X27130Y3215D01*
G01X27145Y3139D01*
G01X27169Y3073D01*
G01X27202Y3016D01*
G01X27243Y2971D01*
G01X27292Y2937D01*
G01X27347Y2916D01*
G01X27409Y2909D01*
G01X27471Y2916D01*
G01X27526Y2937D01*
G01X27575Y2971D01*
G01X27616Y3016D01*
G01X27649Y3073D01*
G01X27673Y3139D01*
G01X27688Y3215D01*
G01X27694Y3300D01*
G01X27688Y3385D01*
G01X27673Y3461D01*
G01X27649Y3527D01*
G01X27616Y3583D01*
G01X27575Y3627D01*
G01X27526Y3659D01*
G01X27471Y3679D01*
G37*

%LPD*%
G36*
G01X25100Y2976D02*
G01X25070Y2983D01*
G01X25039Y2976D01*
G01X25014Y2959D01*
G01X24997Y2932D01*
G01X24991Y2899D01*
G01X24997Y2865D01*
G01X25014Y2838D01*
G01X25039Y2821D01*
G01X25070Y2815D01*
G01X25100Y2821D01*
G01X25125Y2838D01*
G01X25142Y2865D01*
G01X25149Y2899D01*
G01X25142Y2932D01*
G01X25125Y2959D01*
G01X25100Y2976D01*
G37*

%LPD*%
G36*
G01X23777Y2976D02*
G01X23746Y2983D01*
G01X23716Y2976D01*
G01X23691Y2959D01*
G01X23674Y2932D01*
G01X23668Y2899D01*
G01X23674Y2865D01*
G01X23691Y2838D01*
G01X23716Y2821D01*
G01X23746Y2815D01*
G01X23777Y2821D01*
G01X23802Y2838D01*
G01X23819Y2865D01*
G01X23825Y2899D01*
G01X23819Y2932D01*
G01X23802Y2959D01*
G01X23777Y2976D01*
G37*

%LPD*%
G36*
G01X22905Y3530D02*
G01X22844Y3536D01*
G01X22786Y3530D01*
G01X22730Y3511D01*
G01X22678Y3480D01*
G01X22632Y3438D01*
G01X22593Y3386D01*
G01X22563Y3324D01*
G01X22544Y3253D01*
G01X22537Y3173D01*
G01X22544Y3093D01*
G01X22563Y3023D01*
G01X22592Y2961D01*
G01X22632Y2910D01*
G01X22680Y2869D01*
G01X22736Y2839D01*
G01X22797Y2821D01*
G01X22863Y2815D01*
G01X22930Y2821D01*
G01X22989Y2836D01*
G01X23041Y2859D01*
G01X23088Y2886D01*
G01X23048Y2955D01*
G01X23010Y2931D01*
G01X22968Y2913D01*
G01X22923Y2902D01*
G01X22875Y2899D01*
G01X22826Y2903D01*
G01X22781Y2917D01*
G01X22742Y2939D01*
G01X22709Y2969D01*
G01X22681Y3006D01*
G01X22661Y3049D01*
G01X22647Y3098D01*
G01X22642Y3153D01*
G01X23108Y3153D01*
G01X23110Y3166D01*
G01X23112Y3181D01*
G01X23114Y3198D01*
G01X23114Y3216D01*
G01X23109Y3286D01*
G01X23096Y3348D01*
G01X23073Y3403D01*
G01X23043Y3450D01*
G01X23004Y3487D01*
G01X22959Y3514D01*
G01X22905Y3530D01*
G37*

%LPC*%
G36*
G01X22919Y3438D02*
G01X22844Y3453D01*
G01X22772Y3437D01*
G01X22709Y3393D01*
G01X22663Y3322D01*
G01X22639Y3227D01*
G01X23023Y3227D01*
G01X23010Y3325D01*
G01X22975Y3396D01*
G01X22919Y3438D01*
G37*

%LPD*%

%LPD*%
G36*
G01X12034Y6191D02*
G01X11900Y6191D01*
G01X11900Y5744D01*
G01X11486Y5744D01*
G01X11486Y5622D01*
G01X11900Y5622D01*
G01X11900Y5175D01*
G01X12034Y5175D01*
G01X12034Y5622D01*
G01X12448Y5622D01*
G01X12448Y5744D01*
G01X12034Y5744D01*
G01X12034Y6191D01*
G37*

%LPD*%

%LPD*%
G36*
G01X17841Y5810D02*
G01X17328Y5810D01*
G01X17328Y5680D01*
G01X17841Y5680D01*
G01X17841Y5810D01*
G37*

%LPD*%

%LPD*%
G36*
G01X17333Y24733D02*
G01X16820Y24733D01*
G01X16820Y24603D01*
G01X17333Y24603D01*
G01X17333Y24733D01*
G37*

%LPD*%

%LPD*%
G36*
G01X12034Y25114D02*
G01X11900Y25114D01*
G01X11900Y24667D01*
G01X11486Y24667D01*
G01X11486Y24545D01*
G01X11900Y24545D01*
G01X11900Y24098D01*
G01X12034Y24098D01*
G01X12034Y24545D01*
G01X12448Y24545D01*
G01X12448Y24667D01*
G01X12034Y24667D01*
G01X12034Y25114D01*
G37*

%LPD*%
G54D10*
G75*
G01X37332Y1549D02*
G02X34332Y4549I0J3000D01*
G01*
G75*
G01X37332Y28549D02*
G03X34332Y25549I0J-3000D01*
G01*
G01X10724Y26384D02*
G01X18344Y26384D01*
G01X18344Y3524D01*
G01X10724Y3524D01*
G01X10724Y26384D01*
M00*
M02*
