G04 Layer: BottomLayer*
G04 EasyEDA v6.2.44, 2019-10-04T11:08:35+02:00*
G04 41162be0d33c4ba8b269e90eca5c5aeb,6fbb11cf78c9446ebbc1c763f74fa548,10*
G04 Gerber Generator version 0.2*
G04 Scale: 100 percent, Rotated: No, Reflected: No *
G04 Dimensions in millimeters *
G04 leading zeros omitted , absolute positions ,3 integer and 3 decimal *
%FSLAX33Y33*%
%MOMM*%
G90*
G71D02*

%ADD11C,0.508000*%
%ADD13R,1.524000X1.524000*%
%ADD14R,1.651000X1.651000*%
%ADD15C,1.651000*%
%ADD16R,3.999992X3.999992*%
%ADD17C,2.540000*%

%LPD*%
G54D11*
G01X29583Y8629D02*
G01X54348Y8629D01*
G01X56253Y6724D01*
G01X56253Y3549D01*
G01X29583Y6089D02*
G01X30977Y6089D01*
G01X35422Y1644D01*
G01X58158Y1644D01*
G01X58793Y2279D01*
G01X58793Y3549D01*
G01X29583Y18789D02*
G01X49141Y18789D01*
G01X51173Y20821D01*
G01X51173Y26409D01*
G01X48633Y26409D02*
G01X48633Y22472D01*
G01X47490Y21329D01*
G01X29583Y21329D01*
G01X10724Y3524D02*
G01X11877Y882D01*
G01X24122Y882D01*
G01X27043Y3803D01*
G01X27043Y6089D01*
G01X27042Y8628D02*
G01X27042Y6088D01*
G01X27042Y11168D02*
G01X27042Y8628D01*
G01X27042Y13708D02*
G01X27042Y11168D01*
G01X27042Y16248D02*
G01X27042Y13708D01*
G01X27042Y18788D02*
G01X27042Y16248D01*
G01X27042Y21328D02*
G01X27042Y18788D01*
G01X27042Y23868D02*
G01X27042Y21328D01*
G01X24502Y21328D02*
G01X24502Y23868D01*
G01X24502Y18788D02*
G01X24502Y21328D01*
G01X24502Y16248D02*
G01X24502Y18788D01*
G01X24502Y13708D02*
G01X24502Y16248D01*
G01X24502Y11168D02*
G01X24502Y13708D01*
G01X24502Y8628D02*
G01X24502Y11168D01*
G01X24502Y6088D02*
G01X24502Y8628D01*
G01X18344Y26511D02*
G01X18344Y20923D01*
G01X12181Y13709D01*
G01X4434Y13709D01*
G01X10724Y26257D02*
G01X10724Y20415D01*
G01X7609Y18789D01*
G01X4434Y18789D01*
G01X24502Y23869D02*
G01X24502Y26445D01*
G01X26343Y28289D01*
G01X57839Y28289D01*
G01X58792Y27339D01*
G01X58792Y26409D01*
G01X18344Y3524D02*
G01X21911Y6088D01*
G01X24502Y6088D01*
G01X29582Y16249D02*
G01X50854Y16249D01*
G01X53650Y19018D01*
G01X53712Y26409D01*
G54D13*
G01X61332Y3548D03*
G01X58792Y3548D03*
G01X56252Y3548D03*
G01X53712Y3548D03*
G01X51172Y3548D03*
G01X48632Y3548D03*
G01X46092Y3548D03*
G01X43552Y3548D03*
G01X61332Y26408D03*
G01X58792Y26408D03*
G01X56252Y26408D03*
G01X53712Y26408D03*
G01X51172Y26408D03*
G01X48632Y26408D03*
G01X46092Y26408D03*
G01X43552Y26408D03*
G54D14*
G01X24502Y23868D03*
G54D15*
G01X27042Y23868D03*
G01X29582Y23868D03*
G54D14*
G01X24502Y21328D03*
G54D15*
G01X27042Y21328D03*
G01X29582Y21328D03*
G54D14*
G01X24502Y18788D03*
G54D15*
G01X27042Y18788D03*
G01X29582Y18788D03*
G54D14*
G01X24502Y16248D03*
G54D15*
G01X27042Y16248D03*
G01X29582Y16248D03*
G54D14*
G01X24502Y13708D03*
G54D15*
G01X27042Y13708D03*
G01X29582Y13708D03*
G54D14*
G01X24502Y11168D03*
G54D15*
G01X27042Y11168D03*
G01X29582Y11168D03*
G54D14*
G01X24502Y8628D03*
G54D15*
G01X27042Y8628D03*
G01X29582Y8628D03*
G54D14*
G01X24502Y6088D03*
G54D15*
G01X27042Y6088D03*
G01X29582Y6088D03*
G54D16*
G01X4436Y13708D03*
G01X4436Y18788D03*
G54D17*
G01X10724Y26384D03*
G01X18344Y26384D03*
G01X10724Y3524D03*
G01X18344Y3524D03*
M00*
M02*
