G04 Layer: BottomSilkLayer*
G04 EasyEDA v6.2.44, 2019-10-04T11:08:35+02:00*
G04 41162be0d33c4ba8b269e90eca5c5aeb,6fbb11cf78c9446ebbc1c763f74fa548,10*
G04 Gerber Generator version 0.2*
G04 Scale: 100 percent, Rotated: No, Reflected: No *
G04 Dimensions in millimeters *
G04 leading zeros omitted , absolute positions ,3 integer and 3 decimal *
%FSLAX33Y33*%
%MOMM*%
G90*
G71D02*


%LPD*%

%LPD*%
G36*
G01X47562Y23501D02*
G01X47438Y23773D01*
G01X47308Y23723D01*
G01X47226Y23691D01*
G01X47158Y23661D01*
G01X47103Y23633D01*
G01X47061Y23607D01*
G01X47032Y23583D01*
G01X47014Y23560D01*
G01X47009Y23538D01*
G01X47015Y23518D01*
G01X47040Y23500D01*
G01X47084Y23489D01*
G01X47140Y23487D01*
G01X47202Y23493D01*
G01X47357Y23520D01*
G01X47246Y23466D01*
G01X47203Y23439D01*
G01X47167Y23406D01*
G01X47143Y23371D01*
G01X47135Y23339D01*
G01X47135Y23266D01*
G01X47281Y23295D01*
G01X47426Y23324D01*
G01X47457Y23227D01*
G01X47494Y23164D01*
G01X47549Y23133D01*
G01X47607Y23137D01*
G01X47655Y23180D01*
G01X47657Y23220D01*
G01X47640Y23295D01*
G01X47607Y23392D01*
G01X47562Y23501D01*
G37*

%LPD*%
G36*
G01X46920Y23314D02*
G01X46857Y23325D01*
G01X46773Y23310D01*
G01X46667Y23270D01*
G01X46614Y23242D01*
G01X46574Y23211D01*
G01X46548Y23174D01*
G01X46534Y23130D01*
G01X46531Y23077D01*
G01X46541Y23014D01*
G01X46562Y22937D01*
G01X46595Y22846D01*
G01X46642Y22723D01*
G01X46703Y22771D01*
G01X46737Y22792D01*
G01X46784Y22814D01*
G01X46839Y22834D01*
G01X46894Y22850D01*
G01X46982Y22888D01*
G01X47044Y22948D01*
G01X47072Y23017D01*
G01X47058Y23084D01*
G01X47034Y23102D01*
G01X46992Y23117D01*
G01X46936Y23128D01*
G01X46872Y23134D01*
G01X46792Y23138D01*
G01X46773Y23149D01*
G01X46817Y23171D01*
G01X46928Y23207D01*
G01X46950Y23219D01*
G01X46964Y23237D01*
G01X46969Y23257D01*
G01X46962Y23278D01*
G01X46920Y23314D01*
G37*

%LPD*%
G36*
G01X46190Y23210D02*
G01X46149Y23216D01*
G01X46119Y23204D01*
G01X46095Y23180D01*
G01X46081Y23150D01*
G01X46077Y23117D01*
G01X46073Y23082D01*
G01X46055Y23050D01*
G01X46027Y23022D01*
G01X45955Y22986D01*
G01X45920Y22955D01*
G01X45890Y22918D01*
G01X45871Y22877D01*
G01X45865Y22830D01*
G01X45872Y22776D01*
G01X45890Y22720D01*
G01X45917Y22664D01*
G01X45950Y22614D01*
G01X45987Y22573D01*
G01X46025Y22545D01*
G01X46064Y22536D01*
G01X46107Y22542D01*
G01X46163Y22560D01*
G01X46226Y22585D01*
G01X46290Y22616D01*
G01X46348Y22649D01*
G01X46395Y22680D01*
G01X46425Y22707D01*
G01X46432Y22726D01*
G01X46419Y22758D01*
G01X46394Y22819D01*
G01X46361Y22901D01*
G01X46323Y22996D01*
G01X46276Y23101D01*
G01X46232Y23172D01*
G01X46190Y23210D01*
G37*

%LPC*%
G36*
G01X46144Y22854D02*
G01X46100Y22880D01*
G01X46062Y22879D01*
G01X46046Y22845D01*
G01X46050Y22825D01*
G01X46060Y22797D01*
G01X46075Y22766D01*
G01X46093Y22735D01*
G01X46136Y22693D01*
G01X46172Y22697D01*
G01X46189Y22738D01*
G01X46177Y22805D01*
G01X46144Y22854D01*
G37*

%LPD*%
G36*
G01X45555Y22926D02*
G01X45515Y22951D01*
G01X45476Y22949D01*
G01X45424Y22919D01*
G01X45407Y22871D01*
G01X45423Y22789D01*
G01X45475Y22656D01*
G01X45547Y22482D01*
G01X45425Y22426D01*
G01X45380Y22401D01*
G01X45345Y22372D01*
G01X45320Y22341D01*
G01X45307Y22310D01*
G01X45305Y22282D01*
G01X45315Y22259D01*
G01X45339Y22244D01*
G01X45376Y22238D01*
G01X45418Y22245D01*
G01X45478Y22263D01*
G01X45550Y22290D01*
G01X45624Y22322D01*
G01X45799Y22406D01*
G01X45767Y22508D01*
G01X45748Y22562D01*
G01X45718Y22634D01*
G01X45681Y22714D01*
G01X45643Y22794D01*
G01X45598Y22873D01*
G01X45555Y22926D01*
G37*

%LPD*%
G36*
G01X44942Y22532D02*
G01X44899Y22532D01*
G01X44853Y22523D01*
G01X44805Y22506D01*
G01X44756Y22480D01*
G01X44709Y22446D01*
G01X44598Y22356D01*
G01X44633Y22195D01*
G01X44652Y22127D01*
G01X44674Y22075D01*
G01X44701Y22038D01*
G01X44736Y22016D01*
G01X44779Y22008D01*
G01X44833Y22012D01*
G01X44898Y22030D01*
G01X44975Y22060D01*
G01X45042Y22093D01*
G01X45094Y22130D01*
G01X45130Y22168D01*
G01X45149Y22207D01*
G01X45151Y22244D01*
G01X45136Y22277D01*
G01X45103Y22304D01*
G01X45052Y22324D01*
G01X45009Y22339D01*
G01X44988Y22354D01*
G01X44987Y22370D01*
G01X45008Y22388D01*
G01X45029Y22407D01*
G01X45040Y22430D01*
G01X45043Y22456D01*
G01X45034Y22480D01*
G01X45011Y22507D01*
G01X44979Y22524D01*
G01X44942Y22532D01*
G37*

%LPD*%
G36*
G01X47751Y24565D02*
G01X47744Y24565D01*
G01X47734Y24562D01*
G01X47720Y24558D01*
G01X47703Y24552D01*
G01X47681Y24545D01*
G01X47657Y24537D01*
G01X47629Y24527D01*
G01X47598Y24516D01*
G01X47564Y24503D01*
G01X47527Y24489D01*
G01X47487Y24474D01*
G01X47444Y24457D01*
G01X47398Y24440D01*
G01X47350Y24421D01*
G01X47299Y24402D01*
G01X47246Y24380D01*
G01X47190Y24358D01*
G01X47132Y24335D01*
G01X47072Y24312D01*
G01X47010Y24287D01*
G01X46946Y24261D01*
G01X46880Y24235D01*
G01X46812Y24208D01*
G01X46743Y24180D01*
G01X46672Y24152D01*
G01X46526Y24092D01*
G01X46451Y24062D01*
G01X46374Y24031D01*
G01X46297Y23999D01*
G01X46139Y23935D01*
G01X46058Y23902D01*
G01X45978Y23869D01*
G01X45814Y23802D01*
G01X45732Y23768D01*
G01X45649Y23734D01*
G01X45566Y23699D01*
G01X45483Y23665D01*
G01X45316Y23596D01*
G01X45233Y23562D01*
G01X45151Y23528D01*
G01X45068Y23493D01*
G01X44986Y23459D01*
G01X44905Y23425D01*
G01X44824Y23392D01*
G01X44744Y23358D01*
G01X44664Y23325D01*
G01X44586Y23292D01*
G01X44509Y23260D01*
G01X44433Y23228D01*
G01X44358Y23196D01*
G01X44284Y23165D01*
G01X44212Y23135D01*
G01X44141Y23104D01*
G01X44072Y23075D01*
G01X44005Y23046D01*
G01X43939Y23018D01*
G01X43875Y22991D01*
G01X43814Y22964D01*
G01X43754Y22938D01*
G01X43696Y22914D01*
G01X43641Y22890D01*
G01X43588Y22867D01*
G01X43538Y22845D01*
G01X43490Y22824D01*
G01X43445Y22804D01*
G01X43402Y22785D01*
G01X43362Y22767D01*
G01X43326Y22751D01*
G01X43292Y22735D01*
G01X43262Y22721D01*
G01X43235Y22708D01*
G01X43211Y22696D01*
G01X43190Y22686D01*
G01X43173Y22677D01*
G01X43160Y22670D01*
G01X43151Y22664D01*
G01X43100Y22627D01*
G01X43064Y22587D01*
G01X43042Y22543D01*
G01X43033Y22491D01*
G01X43037Y22428D01*
G01X43056Y22351D01*
G01X43087Y22258D01*
G01X43131Y22146D01*
G01X43170Y22057D01*
G01X43206Y21989D01*
G01X43239Y21941D01*
G01X43273Y21911D01*
G01X43309Y21900D01*
G01X43348Y21904D01*
G01X43393Y21925D01*
G01X43445Y21959D01*
G01X43537Y22026D01*
G01X43458Y22223D01*
G01X43380Y22420D01*
G01X43933Y22648D01*
G01X43960Y22659D01*
G01X43990Y22672D01*
G01X44022Y22685D01*
G01X44058Y22700D01*
G01X44096Y22715D01*
G01X44137Y22733D01*
G01X44181Y22751D01*
G01X44227Y22769D01*
G01X44275Y22790D01*
G01X44325Y22810D01*
G01X44377Y22832D01*
G01X44432Y22855D01*
G01X44489Y22878D01*
G01X44547Y22902D01*
G01X44607Y22927D01*
G01X44668Y22953D01*
G01X44731Y22979D01*
G01X44796Y23006D01*
G01X44863Y23033D01*
G01X44930Y23061D01*
G01X44998Y23089D01*
G01X45067Y23118D01*
G01X45138Y23147D01*
G01X45209Y23177D01*
G01X45281Y23207D01*
G01X45427Y23267D01*
G01X45501Y23298D01*
G01X45575Y23328D01*
G01X45649Y23359D01*
G01X45724Y23390D01*
G01X45798Y23421D01*
G01X45947Y23483D01*
G01X46095Y23545D01*
G01X47704Y24213D01*
G01X47789Y24018D01*
G01X47822Y23948D01*
G01X47854Y23895D01*
G01X47887Y23857D01*
G01X47922Y23835D01*
G01X47959Y23828D01*
G01X48001Y23835D01*
G01X48048Y23856D01*
G01X48101Y23891D01*
G01X48195Y23960D01*
G01X48101Y24176D01*
G01X48059Y24266D01*
G01X48013Y24354D01*
G01X47970Y24428D01*
G01X47934Y24479D01*
G01X47898Y24512D01*
G01X47851Y24540D01*
G01X47800Y24559D01*
G01X47751Y24565D01*
G37*

%LPD*%
G36*
G01X44408Y22211D02*
G01X44306Y22442D01*
G01X44223Y22426D01*
G01X44188Y22412D01*
G01X44166Y22386D01*
G01X44154Y22350D01*
G01X44154Y22258D01*
G01X44140Y22221D01*
G01X44111Y22193D01*
G01X44068Y22175D01*
G01X44029Y22157D01*
G01X44000Y22127D01*
G01X43981Y22088D01*
G01X43971Y22043D01*
G01X43970Y21993D01*
G01X43977Y21942D01*
G01X43991Y21892D01*
G01X44012Y21845D01*
G01X44040Y21805D01*
G01X44073Y21772D01*
G01X44112Y21751D01*
G01X44156Y21743D01*
G01X44208Y21748D01*
G01X44265Y21762D01*
G01X44324Y21783D01*
G01X44381Y21809D01*
G01X44432Y21838D01*
G01X44473Y21868D01*
G01X44500Y21897D01*
G01X44510Y21922D01*
G01X44503Y21963D01*
G01X44481Y22030D01*
G01X44448Y22116D01*
G01X44408Y22211D01*
G37*

%LPC*%
G36*
G01X44227Y22058D02*
G01X44197Y22070D01*
G01X44172Y22039D01*
G01X44169Y22013D01*
G01X44175Y21983D01*
G01X44188Y21953D01*
G01X44208Y21927D01*
G01X44264Y21872D01*
G01X44264Y21948D01*
G01X44252Y22014D01*
G01X44227Y22058D01*
G37*

%LPD*%
G36*
G01X59149Y24458D02*
G01X59024Y24458D01*
G01X58962Y24457D01*
G01X58836Y24451D01*
G01X58774Y24447D01*
G01X58648Y24435D01*
G01X58586Y24427D01*
G01X58523Y24419D01*
G01X58460Y24409D01*
G01X58398Y24399D01*
G01X58335Y24387D01*
G01X58273Y24375D01*
G01X58210Y24361D01*
G01X58148Y24347D01*
G01X58086Y24332D01*
G01X58024Y24316D01*
G01X57902Y24280D01*
G01X57840Y24261D01*
G01X57779Y24241D01*
G01X57719Y24220D01*
G01X57659Y24198D01*
G01X57599Y24175D01*
G01X57539Y24151D01*
G01X57480Y24127D01*
G01X57421Y24101D01*
G01X57305Y24047D01*
G01X57248Y24019D01*
G01X57190Y23990D01*
G01X57134Y23959D01*
G01X57077Y23928D01*
G01X56967Y23864D01*
G01X56912Y23830D01*
G01X56858Y23795D01*
G01X56805Y23760D01*
G01X56753Y23724D01*
G01X56700Y23687D01*
G01X56649Y23649D01*
G01X56597Y23609D01*
G01X56543Y23564D01*
G01X56488Y23517D01*
G01X56431Y23467D01*
G01X56373Y23416D01*
G01X56316Y23362D01*
G01X56204Y23252D01*
G01X56149Y23197D01*
G01X56097Y23142D01*
G01X56047Y23089D01*
G01X56000Y23037D01*
G01X55957Y22988D01*
G01X55918Y22941D01*
G01X55884Y22897D01*
G01X55854Y22858D01*
G01X55830Y22823D01*
G01X55813Y22792D01*
G01X55802Y22768D01*
G01X55798Y22749D01*
G01X55811Y22717D01*
G01X55845Y22680D01*
G01X55896Y22641D01*
G01X55959Y22607D01*
G01X56120Y22531D01*
G01X59234Y24117D01*
G01X59719Y23809D01*
G01X59817Y23746D01*
G01X59907Y23687D01*
G01X59990Y23633D01*
G01X60061Y23584D01*
G01X60121Y23543D01*
G01X60166Y23510D01*
G01X60194Y23487D01*
G01X60204Y23476D01*
G01X60187Y23458D01*
G01X60142Y23425D01*
G01X60074Y23384D01*
G01X59991Y23338D01*
G01X59778Y23226D01*
G01X59512Y23282D01*
G01X59443Y23296D01*
G01X59375Y23307D01*
G01X59307Y23315D01*
G01X59239Y23321D01*
G01X59172Y23324D01*
G01X59106Y23325D01*
G01X59040Y23323D01*
G01X58975Y23319D01*
G01X58911Y23313D01*
G01X58848Y23305D01*
G01X58786Y23294D01*
G01X58725Y23281D01*
G01X58666Y23267D01*
G01X58607Y23249D01*
G01X58551Y23231D01*
G01X58495Y23210D01*
G01X58441Y23187D01*
G01X58389Y23162D01*
G01X58339Y23136D01*
G01X58290Y23107D01*
G01X58244Y23077D01*
G01X58199Y23045D01*
G01X58157Y23012D01*
G01X58117Y22977D01*
G01X58079Y22940D01*
G01X58043Y22901D01*
G01X58011Y22862D01*
G01X57980Y22821D01*
G01X57952Y22778D01*
G01X57927Y22734D01*
G01X57905Y22689D01*
G01X57886Y22643D01*
G01X57869Y22595D01*
G01X57856Y22546D01*
G01X57847Y22496D01*
G01X57840Y22445D01*
G01X57817Y22211D01*
G01X57986Y21990D01*
G01X58029Y21936D01*
G01X58078Y21884D01*
G01X58132Y21834D01*
G01X58191Y21784D01*
G01X58253Y21737D01*
G01X58320Y21691D01*
G01X58391Y21648D01*
G01X58466Y21608D01*
G01X58777Y21446D01*
G01X59656Y21446D01*
G01X59931Y21549D01*
G01X59999Y21576D01*
G01X60064Y21605D01*
G01X60125Y21635D01*
G01X60184Y21667D01*
G01X60239Y21701D01*
G01X60291Y21736D01*
G01X60339Y21773D01*
G01X60384Y21811D01*
G01X60426Y21851D01*
G01X60464Y21893D01*
G01X60499Y21935D01*
G01X60530Y21979D01*
G01X60558Y22024D01*
G01X60582Y22071D01*
G01X60602Y22119D01*
G01X60619Y22167D01*
G01X60632Y22218D01*
G01X60642Y22269D01*
G01X60648Y22321D01*
G01X60650Y22375D01*
G01X60650Y22514D01*
G01X60954Y22665D01*
G01X61259Y22815D01*
G01X61718Y22502D01*
G01X62176Y22189D01*
G01X62329Y22276D01*
G01X62388Y22314D01*
G01X62436Y22352D01*
G01X62469Y22388D01*
G01X62481Y22416D01*
G01X62477Y22440D01*
G01X62467Y22471D01*
G01X62449Y22508D01*
G01X62425Y22552D01*
G01X62396Y22600D01*
G01X62362Y22654D01*
G01X62322Y22710D01*
G01X62279Y22770D01*
G01X62232Y22833D01*
G01X62181Y22897D01*
G01X62128Y22963D01*
G01X62073Y23029D01*
G01X62016Y23094D01*
G01X61957Y23159D01*
G01X61898Y23223D01*
G01X61839Y23284D01*
G01X61797Y23326D01*
G01X61755Y23367D01*
G01X61711Y23407D01*
G01X61667Y23446D01*
G01X61623Y23486D01*
G01X61578Y23524D01*
G01X61532Y23562D01*
G01X61486Y23599D01*
G01X61392Y23671D01*
G01X61344Y23706D01*
G01X61246Y23774D01*
G01X61196Y23807D01*
G01X61146Y23839D01*
G01X61096Y23870D01*
G01X61044Y23901D01*
G01X60993Y23931D01*
G01X60941Y23960D01*
G01X60888Y23989D01*
G01X60835Y24016D01*
G01X60727Y24070D01*
G01X60619Y24120D01*
G01X60563Y24143D01*
G01X60508Y24167D01*
G01X60396Y24211D01*
G01X60339Y24231D01*
G01X60283Y24251D01*
G01X60225Y24270D01*
G01X60168Y24289D01*
G01X60052Y24323D01*
G01X59994Y24339D01*
G01X59876Y24367D01*
G01X59818Y24380D01*
G01X59759Y24393D01*
G01X59699Y24404D01*
G01X59639Y24414D01*
G01X59517Y24432D01*
G01X59456Y24439D01*
G01X59395Y24445D01*
G01X59334Y24449D01*
G01X59272Y24453D01*
G01X59210Y24456D01*
G01X59149Y24458D01*
G37*

%LPD*%
G36*
G01X48455Y23298D02*
G01X48327Y23580D01*
G01X48028Y23425D01*
G01X48111Y23252D01*
G01X48142Y23176D01*
G01X48159Y23112D01*
G01X48160Y23063D01*
G01X48146Y23032D01*
G01X48142Y23029D01*
G01X48134Y23025D01*
G01X48121Y23018D01*
G01X48105Y23011D01*
G01X48084Y23001D01*
G01X48059Y22990D01*
G01X48031Y22977D01*
G01X47999Y22963D01*
G01X47964Y22947D01*
G01X47926Y22930D01*
G01X47884Y22912D01*
G01X47839Y22892D01*
G01X47791Y22871D01*
G01X47740Y22849D01*
G01X47687Y22826D01*
G01X47630Y22802D01*
G01X47571Y22776D01*
G01X47510Y22750D01*
G01X47447Y22723D01*
G01X47381Y22695D01*
G01X47314Y22666D01*
G01X47244Y22636D01*
G01X47172Y22606D01*
G01X47100Y22575D01*
G01X47025Y22543D01*
G01X46949Y22510D01*
G01X46872Y22478D01*
G01X46793Y22444D01*
G01X46713Y22411D01*
G01X46633Y22376D01*
G01X46551Y22342D01*
G01X46469Y22307D01*
G01X46387Y22273D01*
G01X46303Y22237D01*
G01X46136Y22167D01*
G01X45968Y22096D01*
G01X45800Y22026D01*
G01X45717Y21991D01*
G01X45635Y21956D01*
G01X45552Y21922D01*
G01X45471Y21887D01*
G01X45390Y21854D01*
G01X45232Y21788D01*
G01X45155Y21756D01*
G01X45079Y21724D01*
G01X45005Y21693D01*
G01X44932Y21663D01*
G01X44860Y21633D01*
G01X44791Y21604D01*
G01X44723Y21577D01*
G01X44658Y21550D01*
G01X44595Y21524D01*
G01X44534Y21499D01*
G01X44475Y21474D01*
G01X44419Y21452D01*
G01X44366Y21430D01*
G01X44315Y21409D01*
G01X44267Y21390D01*
G01X44222Y21372D01*
G01X44181Y21355D01*
G01X44143Y21340D01*
G01X44108Y21326D01*
G01X44076Y21313D01*
G01X44048Y21303D01*
G01X43987Y21280D01*
G01X43975Y21276D01*
G01X43865Y21241D01*
G01X43787Y21430D01*
G01X43755Y21508D01*
G01X43730Y21566D01*
G01X43709Y21604D01*
G01X43690Y21625D01*
G01X43667Y21632D01*
G01X43639Y21627D01*
G01X43602Y21612D01*
G01X43552Y21589D01*
G01X43500Y21563D01*
G01X43462Y21537D01*
G01X43439Y21508D01*
G01X43431Y21470D01*
G01X43438Y21422D01*
G01X43458Y21357D01*
G01X43493Y21272D01*
G01X43543Y21164D01*
G01X43573Y21102D01*
G01X43603Y21047D01*
G01X43633Y21000D01*
G01X43662Y20961D01*
G01X43692Y20929D01*
G01X43721Y20904D01*
G01X43750Y20887D01*
G01X43779Y20876D01*
G01X43896Y20847D01*
G01X45528Y21524D01*
G01X45596Y21552D01*
G01X45663Y21580D01*
G01X45800Y21637D01*
G01X45869Y21665D01*
G01X46007Y21723D01*
G01X46076Y21751D01*
G01X46145Y21780D01*
G01X46351Y21866D01*
G01X46419Y21894D01*
G01X46486Y21922D01*
G01X46553Y21949D01*
G01X46619Y21977D01*
G01X46685Y22004D01*
G01X46813Y22058D01*
G01X46876Y22084D01*
G01X46938Y22110D01*
G01X46999Y22135D01*
G01X47059Y22160D01*
G01X47118Y22185D01*
G01X47175Y22208D01*
G01X47231Y22232D01*
G01X47285Y22255D01*
G01X47339Y22277D01*
G01X47390Y22298D01*
G01X47439Y22319D01*
G01X47487Y22339D01*
G01X47533Y22358D01*
G01X47577Y22377D01*
G01X47620Y22394D01*
G01X47660Y22411D01*
G01X47698Y22427D01*
G01X47734Y22442D01*
G01X47767Y22456D01*
G01X47799Y22470D01*
G01X47827Y22482D01*
G01X48495Y22763D01*
G01X48540Y22889D01*
G01X48584Y23016D01*
G01X48455Y23298D01*
G37*

%LPD*%
G36*
G01X45753Y19120D02*
G01X45440Y19120D01*
G01X45348Y19118D01*
G01X45266Y19112D01*
G01X45193Y19103D01*
G01X45129Y19089D01*
G01X45074Y19071D01*
G01X45028Y19048D01*
G01X44990Y19021D01*
G01X44959Y18988D01*
G01X44936Y18951D01*
G01X44919Y18908D01*
G01X44910Y18859D01*
G01X44907Y18804D01*
G01X44911Y18727D01*
G01X44925Y18660D01*
G01X44948Y18602D01*
G01X44981Y18552D01*
G01X45026Y18511D01*
G01X45081Y18477D01*
G01X45150Y18448D01*
G01X45230Y18426D01*
G01X45301Y18413D01*
G01X45372Y18407D01*
G01X45441Y18405D01*
G01X45509Y18409D01*
G01X45575Y18418D01*
G01X45639Y18433D01*
G01X45699Y18451D01*
G01X45755Y18474D01*
G01X45807Y18501D01*
G01X45854Y18532D01*
G01X45895Y18566D01*
G01X45930Y18604D01*
G01X45958Y18644D01*
G01X45979Y18688D01*
G01X45992Y18733D01*
G01X45996Y18781D01*
G01X45987Y18828D01*
G01X45960Y18884D01*
G01X45922Y18944D01*
G01X45874Y18998D01*
G01X45753Y19120D01*
G37*

%LPC*%
G36*
G01X45702Y18922D02*
G01X45152Y18922D01*
G01X45121Y18840D01*
G01X45106Y18787D01*
G01X45108Y18739D01*
G01X45125Y18698D01*
G01X45157Y18663D01*
G01X45203Y18636D01*
G01X45264Y18616D01*
G01X45339Y18604D01*
G01X45427Y18600D01*
G01X45515Y18604D01*
G01X45589Y18616D01*
G01X45650Y18636D01*
G01X45697Y18663D01*
G01X45729Y18698D01*
G01X45745Y18739D01*
G01X45747Y18787D01*
G01X45733Y18840D01*
G01X45702Y18922D01*
G37*

%LPD*%
G36*
G01X48574Y19120D02*
G01X48318Y19120D01*
G01X48333Y18761D01*
G01X48347Y18402D01*
G01X48546Y18402D01*
G01X48574Y19120D01*
G37*

%LPD*%
G36*
G01X46751Y19168D02*
G01X46442Y19169D01*
G01X46442Y19105D01*
G01X46459Y19038D01*
G01X46506Y18979D01*
G01X46572Y18937D01*
G01X46647Y18922D01*
G01X46733Y18922D01*
G01X46749Y18662D01*
G01X46763Y18402D01*
G01X46962Y18402D01*
G01X46976Y18662D01*
G01X46992Y18922D01*
G01X47112Y18922D01*
G01X47160Y18927D01*
G01X47196Y18942D01*
G01X47220Y18963D01*
G01X47231Y18990D01*
G01X47230Y19021D01*
G01X47216Y19054D01*
G01X47189Y19086D01*
G01X47147Y19116D01*
G01X47124Y19126D01*
G01X47089Y19136D01*
G01X47046Y19144D01*
G01X46995Y19152D01*
G01X46939Y19158D01*
G01X46878Y19163D01*
G01X46815Y19166D01*
G01X46751Y19168D01*
G37*

%LPD*%
G36*
G01X50505Y19120D02*
G01X49858Y19120D01*
G01X49759Y19021D01*
G01X49724Y18981D01*
G01X49696Y18940D01*
G01X49675Y18896D01*
G01X49661Y18852D01*
G01X49653Y18808D01*
G01X49652Y18763D01*
G01X49658Y18720D01*
G01X49669Y18676D01*
G01X49687Y18635D01*
G01X49710Y18595D01*
G01X49739Y18558D01*
G01X49773Y18523D01*
G01X49813Y18492D01*
G01X49858Y18466D01*
G01X49908Y18443D01*
G01X49963Y18425D01*
G01X50031Y18409D01*
G01X50097Y18398D01*
G01X50162Y18393D01*
G01X50226Y18393D01*
G01X50287Y18397D01*
G01X50345Y18405D01*
G01X50401Y18417D01*
G01X50453Y18434D01*
G01X50502Y18453D01*
G01X50548Y18476D01*
G01X50589Y18502D01*
G01X50626Y18531D01*
G01X50658Y18562D01*
G01X50686Y18596D01*
G01X50708Y18631D01*
G01X50725Y18668D01*
G01X50736Y18707D01*
G01X50741Y18747D01*
G01X50740Y18788D01*
G01X50732Y18830D01*
G01X50717Y18871D01*
G01X50694Y18914D01*
G01X50665Y18956D01*
G01X50627Y18998D01*
G01X50505Y19120D01*
G37*

%LPC*%
G36*
G01X50455Y18922D02*
G01X49914Y18922D01*
G01X49882Y18820D01*
G01X49869Y18762D01*
G01X49873Y18711D01*
G01X49891Y18669D01*
G01X49924Y18634D01*
G01X49971Y18608D01*
G01X50032Y18592D01*
G01X50107Y18583D01*
G01X50194Y18585D01*
G01X50277Y18595D01*
G01X50347Y18611D01*
G01X50405Y18635D01*
G01X50449Y18665D01*
G01X50480Y18701D01*
G01X50497Y18742D01*
G01X50499Y18789D01*
G01X50486Y18840D01*
G01X50455Y18922D01*
G37*

%LPD*%
G36*
G01X48866Y19158D02*
G01X48794Y19162D01*
G01X48740Y19160D01*
G01X48700Y19155D01*
G01X48678Y19146D01*
G01X48670Y19132D01*
G01X48677Y19089D01*
G01X48694Y19051D01*
G01X48723Y19018D01*
G01X48763Y18990D01*
G01X48816Y18967D01*
G01X48881Y18948D01*
G01X48959Y18933D01*
G01X49050Y18922D01*
G01X49336Y18897D01*
G01X49354Y18808D01*
G01X49358Y18751D01*
G01X49349Y18702D01*
G01X49324Y18662D01*
G01X49285Y18630D01*
G01X49229Y18606D01*
G01X49157Y18588D01*
G01X49068Y18578D01*
G01X48962Y18575D01*
G01X48673Y18575D01*
G01X48700Y18503D01*
G01X48721Y18467D01*
G01X48752Y18437D01*
G01X48793Y18414D01*
G01X48844Y18398D01*
G01X48906Y18388D01*
G01X48977Y18386D01*
G01X49058Y18390D01*
G01X49148Y18401D01*
G01X49212Y18412D01*
G01X49270Y18428D01*
G01X49323Y18447D01*
G01X49372Y18470D01*
G01X49415Y18496D01*
G01X49453Y18525D01*
G01X49485Y18558D01*
G01X49512Y18593D01*
G01X49533Y18632D01*
G01X49548Y18673D01*
G01X49557Y18717D01*
G01X49561Y18764D01*
G01X49558Y18816D01*
G01X49551Y18863D01*
G01X49539Y18906D01*
G01X49522Y18946D01*
G01X49500Y18980D01*
G01X49473Y19011D01*
G01X49440Y19038D01*
G01X49400Y19061D01*
G01X49355Y19081D01*
G01X49304Y19098D01*
G01X49247Y19112D01*
G01X49183Y19122D01*
G01X49060Y19139D01*
G01X48954Y19150D01*
G01X48866Y19158D01*
G37*

%LPD*%
G36*
G01X52263Y19118D02*
G01X51872Y19120D01*
G01X51959Y19023D01*
G01X52014Y18979D01*
G01X52088Y18946D01*
G01X52183Y18922D01*
G01X52301Y18909D01*
G01X52556Y18890D01*
G01X51989Y18872D01*
G01X51912Y18755D01*
G01X51886Y18708D01*
G01X51870Y18662D01*
G01X51863Y18617D01*
G01X51865Y18575D01*
G01X51876Y18537D01*
G01X51897Y18504D01*
G01X51926Y18477D01*
G01X51963Y18457D01*
G01X52001Y18447D01*
G01X52060Y18437D01*
G01X52135Y18426D01*
G01X52221Y18415D01*
G01X52314Y18406D01*
G01X52410Y18397D01*
G01X52503Y18390D01*
G01X52590Y18385D01*
G01X52665Y18382D01*
G01X52725Y18382D01*
G01X52764Y18385D01*
G01X52778Y18391D01*
G01X52776Y18408D01*
G01X52770Y18434D01*
G01X52760Y18464D01*
G01X52748Y18497D01*
G01X52718Y18575D01*
G01X52402Y18575D01*
G01X52310Y18577D01*
G01X52234Y18581D01*
G01X52174Y18587D01*
G01X52131Y18596D01*
G01X52105Y18606D01*
G01X52094Y18618D01*
G01X52101Y18630D01*
G01X52124Y18642D01*
G01X52164Y18655D01*
G01X52220Y18667D01*
G01X52294Y18678D01*
G01X52384Y18688D01*
G01X52445Y18694D01*
G01X52506Y18703D01*
G01X52563Y18713D01*
G01X52617Y18724D01*
G01X52664Y18736D01*
G01X52704Y18749D01*
G01X52734Y18762D01*
G01X52755Y18774D01*
G01X52787Y18808D01*
G01X52810Y18846D01*
G01X52822Y18887D01*
G01X52825Y18928D01*
G01X52818Y18968D01*
G01X52802Y19006D01*
G01X52776Y19040D01*
G01X52741Y19066D01*
G01X52716Y19076D01*
G01X52677Y19086D01*
G01X52626Y19094D01*
G01X52565Y19102D01*
G01X52496Y19109D01*
G01X52422Y19114D01*
G01X52343Y19117D01*
G01X52263Y19118D01*
G37*

%LPD*%
G36*
G01X46293Y19169D02*
G01X46095Y19169D01*
G01X46095Y18377D01*
G01X46293Y18377D01*
G01X46293Y19169D01*
G37*

%LPD*%
G36*
G01X51119Y19161D02*
G01X51059Y19161D01*
G01X51006Y19159D01*
G01X50960Y19155D01*
G01X50923Y19151D01*
G01X50896Y19144D01*
G01X50881Y19137D01*
G01X50867Y19112D01*
G01X50869Y19084D01*
G01X50886Y19056D01*
G01X50916Y19030D01*
G01X50956Y19006D01*
G01X51004Y18987D01*
G01X51057Y18974D01*
G01X51113Y18967D01*
G01X51182Y18963D01*
G01X51252Y18953D01*
G01X51317Y18939D01*
G01X51367Y18922D01*
G01X51467Y18879D01*
G01X51207Y18876D01*
G01X50949Y18872D01*
G01X50872Y18755D01*
G01X50847Y18712D01*
G01X50831Y18671D01*
G01X50823Y18632D01*
G01X50824Y18596D01*
G01X50833Y18562D01*
G01X50850Y18531D01*
G01X50876Y18503D01*
G01X50909Y18477D01*
G01X50950Y18454D01*
G01X50999Y18434D01*
G01X51056Y18417D01*
G01X51121Y18403D01*
G01X51192Y18391D01*
G01X51272Y18384D01*
G01X51359Y18379D01*
G01X51453Y18377D01*
G01X51746Y18377D01*
G01X51730Y18464D01*
G01X51713Y18550D01*
G01X51379Y18565D01*
G01X51250Y18574D01*
G01X51143Y18587D01*
G01X51072Y18603D01*
G01X51045Y18620D01*
G01X51069Y18638D01*
G01X51133Y18657D01*
G01X51228Y18674D01*
G01X51345Y18688D01*
G01X51455Y18700D01*
G01X51548Y18717D01*
G01X51625Y18737D01*
G01X51686Y18763D01*
G01X51732Y18794D01*
G01X51764Y18830D01*
G01X51782Y18872D01*
G01X51788Y18922D01*
G01X51784Y18962D01*
G01X51771Y18999D01*
G01X51750Y19031D01*
G01X51721Y19060D01*
G01X51682Y19084D01*
G01X51635Y19105D01*
G01X51580Y19120D01*
G01X51516Y19133D01*
G01X51452Y19141D01*
G01X51385Y19148D01*
G01X51317Y19153D01*
G01X51249Y19157D01*
G01X51182Y19160D01*
G01X51119Y19161D01*
G37*

%LPD*%
G36*
G01X53494Y19114D02*
G01X53470Y19120D01*
G01X53449Y19113D01*
G01X53420Y19095D01*
G01X53386Y19066D01*
G01X53347Y19028D01*
G01X53303Y18984D01*
G01X53258Y18933D01*
G01X53211Y18878D01*
G01X53164Y18820D01*
G01X53118Y18760D01*
G01X53074Y18701D01*
G01X53034Y18643D01*
G01X52999Y18589D01*
G01X52969Y18539D01*
G01X52946Y18496D01*
G01X52932Y18459D01*
G01X52927Y18433D01*
G01X52933Y18420D01*
G01X52951Y18409D01*
G01X52981Y18399D01*
G01X53023Y18391D01*
G01X53076Y18385D01*
G01X53140Y18381D01*
G01X53216Y18378D01*
G01X53302Y18377D01*
G01X53677Y18377D01*
G01X53660Y18464D01*
G01X53643Y18502D01*
G01X53607Y18532D01*
G01X53554Y18553D01*
G01X53483Y18566D01*
G01X53381Y18579D01*
G01X53334Y18601D01*
G01X53335Y18646D01*
G01X53374Y18727D01*
G01X53400Y18771D01*
G01X53425Y18800D01*
G01X53451Y18813D01*
G01X53480Y18808D01*
G01X53513Y18786D01*
G01X53554Y18744D01*
G01X53603Y18682D01*
G01X53664Y18600D01*
G01X53718Y18531D01*
G01X53770Y18474D01*
G01X53822Y18429D01*
G01X53870Y18397D01*
G01X53916Y18379D01*
G01X53958Y18375D01*
G01X53996Y18384D01*
G01X54029Y18407D01*
G01X54030Y18420D01*
G01X54021Y18445D01*
G01X54003Y18482D01*
G01X53978Y18529D01*
G01X53944Y18582D01*
G01X53905Y18643D01*
G01X53860Y18709D01*
G01X53811Y18778D01*
G01X53754Y18854D01*
G01X53701Y18921D01*
G01X53650Y18979D01*
G01X53604Y19028D01*
G01X53563Y19068D01*
G01X53525Y19096D01*
G01X53494Y19114D01*
G37*

%LPD*%
G36*
G01X44115Y19169D02*
G01X43917Y19169D01*
G01X43917Y18801D01*
G01X43918Y18726D01*
G01X43920Y18656D01*
G01X43924Y18591D01*
G01X43930Y18533D01*
G01X43936Y18484D01*
G01X43944Y18445D01*
G01X43952Y18418D01*
G01X43960Y18406D01*
G01X43991Y18408D01*
G01X44045Y18430D01*
G01X44114Y18468D01*
G01X44192Y18517D01*
G01X44270Y18571D01*
G01X44342Y18627D01*
G01X44399Y18678D01*
G01X44435Y18721D01*
G01X44460Y18754D01*
G01X44484Y18771D01*
G01X44505Y18773D01*
G01X44524Y18760D01*
G01X44539Y18733D01*
G01X44551Y18692D01*
G01X44558Y18638D01*
G01X44560Y18572D01*
G01X44560Y18370D01*
G01X44672Y18386D01*
G01X44715Y18397D01*
G01X44749Y18415D01*
G01X44772Y18439D01*
G01X44778Y18464D01*
G01X44776Y18511D01*
G01X44773Y18595D01*
G01X44769Y18702D01*
G01X44766Y18823D01*
G01X44758Y19120D01*
G01X44680Y19120D01*
G01X44633Y19106D01*
G01X44563Y19069D01*
G01X44478Y19014D01*
G01X44391Y18946D01*
G01X44306Y18879D01*
G01X44232Y18824D01*
G01X44176Y18787D01*
G01X44147Y18773D01*
G01X44135Y18789D01*
G01X44124Y18831D01*
G01X44117Y18894D01*
G01X44115Y18971D01*
G01X44115Y19169D01*
G37*

%LPD*%
G36*
G01X47701Y19099D02*
G01X47666Y19110D01*
G01X47631Y19109D01*
G01X47596Y19098D01*
G01X47557Y19075D01*
G01X47517Y19041D01*
G01X47474Y18994D01*
G01X47426Y18935D01*
G01X47373Y18863D01*
G01X47315Y18778D01*
G01X47268Y18708D01*
G01X47226Y18643D01*
G01X47187Y18582D01*
G01X47153Y18528D01*
G01X47125Y18481D01*
G01X47103Y18445D01*
G01X47090Y18419D01*
G01X47085Y18407D01*
G01X47093Y18401D01*
G01X47117Y18395D01*
G01X47153Y18390D01*
G01X47201Y18386D01*
G01X47260Y18382D01*
G01X47327Y18379D01*
G01X47402Y18378D01*
G01X47481Y18377D01*
G01X47561Y18378D01*
G01X47635Y18381D01*
G01X47702Y18384D01*
G01X47761Y18390D01*
G01X47809Y18396D01*
G01X47846Y18404D01*
G01X47869Y18412D01*
G01X47878Y18420D01*
G01X47857Y18475D01*
G01X47800Y18523D01*
G01X47716Y18561D01*
G01X47611Y18583D01*
G01X47469Y18600D01*
G01X47564Y18717D01*
G01X47659Y18833D01*
G01X47846Y18605D01*
G01X47910Y18534D01*
G01X47975Y18474D01*
G01X48038Y18426D01*
G01X48096Y18391D01*
G01X48148Y18372D01*
G01X48188Y18369D01*
G01X48214Y18384D01*
G01X48224Y18419D01*
G01X48218Y18438D01*
G01X48204Y18469D01*
G01X48180Y18509D01*
G01X48150Y18558D01*
G01X48114Y18612D01*
G01X48074Y18671D01*
G01X48030Y18732D01*
G01X47985Y18794D01*
G01X47939Y18855D01*
G01X47894Y18912D01*
G01X47852Y18963D01*
G01X47812Y19008D01*
G01X47773Y19048D01*
G01X47737Y19079D01*
G01X47701Y19099D01*
G37*

%LPD*%
G36*
G01X55715Y22493D02*
G01X55665Y22505D01*
G01X55634Y22501D01*
G01X55620Y22489D01*
G01X55604Y22469D01*
G01X55585Y22440D01*
G01X55565Y22405D01*
G01X55542Y22362D01*
G01X55517Y22314D01*
G01X55491Y22261D01*
G01X55464Y22204D01*
G01X55437Y22142D01*
G01X55410Y22078D01*
G01X55382Y22012D01*
G01X55354Y21943D01*
G01X55300Y21805D01*
G01X55275Y21736D01*
G01X55251Y21668D01*
G01X55229Y21602D01*
G01X55208Y21538D01*
G01X55191Y21478D01*
G01X55175Y21422D01*
G01X55164Y21376D01*
G01X55154Y21328D01*
G01X55144Y21278D01*
G01X55135Y21226D01*
G01X55127Y21171D01*
G01X55120Y21114D01*
G01X55112Y21056D01*
G01X55106Y20996D01*
G01X55101Y20935D01*
G01X55096Y20873D01*
G01X55092Y20810D01*
G01X55089Y20745D01*
G01X55087Y20681D01*
G01X55085Y20615D01*
G01X55083Y20550D01*
G01X55083Y20418D01*
G01X55085Y20352D01*
G01X55086Y20286D01*
G01X55089Y20221D01*
G01X55092Y20157D01*
G01X55095Y20094D01*
G01X55100Y20031D01*
G01X55105Y19970D01*
G01X55111Y19909D01*
G01X55118Y19851D01*
G01X55125Y19794D01*
G01X55133Y19739D01*
G01X55142Y19686D01*
G01X55152Y19635D01*
G01X55162Y19586D01*
G01X55173Y19540D01*
G01X55188Y19483D01*
G01X55204Y19425D01*
G01X55222Y19368D01*
G01X55240Y19310D01*
G01X55259Y19253D01*
G01X55280Y19196D01*
G01X55301Y19138D01*
G01X55323Y19081D01*
G01X55346Y19024D01*
G01X55371Y18967D01*
G01X55395Y18911D01*
G01X55421Y18855D01*
G01X55448Y18799D01*
G01X55476Y18743D01*
G01X55505Y18688D01*
G01X55534Y18632D01*
G01X55564Y18577D01*
G01X55596Y18523D01*
G01X55627Y18469D01*
G01X55660Y18415D01*
G01X55728Y18309D01*
G01X55798Y18205D01*
G01X55872Y18103D01*
G01X55909Y18053D01*
G01X55987Y17955D01*
G01X56067Y17859D01*
G01X56108Y17812D01*
G01X56192Y17720D01*
G01X56278Y17632D01*
G01X56321Y17589D01*
G01X56366Y17546D01*
G01X56456Y17464D01*
G01X56548Y17386D01*
G01X56595Y17348D01*
G01X56642Y17311D01*
G01X56690Y17275D01*
G01X56740Y17239D01*
G01X56792Y17203D01*
G01X56845Y17168D01*
G01X56955Y17100D01*
G01X57012Y17066D01*
G01X57130Y17000D01*
G01X57190Y16969D01*
G01X57251Y16938D01*
G01X57312Y16908D01*
G01X57375Y16879D01*
G01X57437Y16850D01*
G01X57500Y16822D01*
G01X57563Y16796D01*
G01X57627Y16770D01*
G01X57690Y16745D01*
G01X57753Y16722D01*
G01X57879Y16678D01*
G01X58003Y16640D01*
G01X58064Y16623D01*
G01X58125Y16607D01*
G01X58185Y16592D01*
G01X58244Y16579D01*
G01X58302Y16567D01*
G01X58359Y16557D01*
G01X58414Y16548D01*
G01X58468Y16541D01*
G01X58521Y16536D01*
G01X58694Y16520D01*
G01X58721Y16917D01*
G01X57260Y17882D01*
G01X55798Y18848D01*
G01X55798Y19000D01*
G01X55799Y19041D01*
G01X55801Y19095D01*
G01X55804Y19163D01*
G01X55807Y19241D01*
G01X55812Y19326D01*
G01X55818Y19417D01*
G01X55824Y19509D01*
G01X55830Y19603D01*
G01X55862Y20052D01*
G01X56124Y19878D01*
G01X56387Y19704D01*
G01X56463Y19479D01*
G01X56487Y19412D01*
G01X56512Y19347D01*
G01X56539Y19284D01*
G01X56568Y19222D01*
G01X56599Y19162D01*
G01X56631Y19104D01*
G01X56665Y19047D01*
G01X56700Y18992D01*
G01X56738Y18939D01*
G01X56776Y18888D01*
G01X56815Y18839D01*
G01X56856Y18792D01*
G01X56899Y18746D01*
G01X56942Y18704D01*
G01X56986Y18663D01*
G01X57032Y18624D01*
G01X57079Y18588D01*
G01X57127Y18554D01*
G01X57176Y18522D01*
G01X57226Y18493D01*
G01X57277Y18466D01*
G01X57329Y18442D01*
G01X57382Y18420D01*
G01X57436Y18401D01*
G01X57672Y18322D01*
G01X57870Y18375D01*
G01X57926Y18393D01*
G01X57980Y18417D01*
G01X58032Y18446D01*
G01X58082Y18479D01*
G01X58129Y18518D01*
G01X58174Y18562D01*
G01X58216Y18609D01*
G01X58254Y18661D01*
G01X58290Y18717D01*
G01X58322Y18775D01*
G01X58350Y18838D01*
G01X58375Y18903D01*
G01X58387Y18945D01*
G01X58396Y18991D01*
G01X58404Y19040D01*
G01X58410Y19091D01*
G01X58413Y19146D01*
G01X58415Y19203D01*
G01X58415Y19262D01*
G01X58413Y19322D01*
G01X58409Y19384D01*
G01X58403Y19446D01*
G01X58396Y19509D01*
G01X58387Y19572D01*
G01X58375Y19635D01*
G01X58363Y19697D01*
G01X58349Y19758D01*
G01X58333Y19818D01*
G01X58315Y19876D01*
G01X58297Y19932D01*
G01X58276Y19985D01*
G01X58255Y20036D01*
G01X58231Y20085D01*
G01X58205Y20134D01*
G01X58175Y20185D01*
G01X58142Y20236D01*
G01X58108Y20288D01*
G01X58071Y20339D01*
G01X58031Y20391D01*
G01X57991Y20442D01*
G01X57949Y20492D01*
G01X57906Y20541D01*
G01X57818Y20635D01*
G01X57773Y20678D01*
G01X57728Y20720D01*
G01X57683Y20759D01*
G01X57639Y20796D01*
G01X57596Y20829D01*
G01X57553Y20859D01*
G01X57512Y20885D01*
G01X57472Y20906D01*
G01X57414Y20932D01*
G01X57349Y20954D01*
G01X57281Y20972D01*
G01X57209Y20984D01*
G01X57136Y20993D01*
G01X57063Y20997D01*
G01X56992Y20996D01*
G01X56924Y20991D01*
G01X56861Y20982D01*
G01X56805Y20967D01*
G01X56756Y20949D01*
G01X56717Y20925D01*
G01X56667Y20891D01*
G01X56619Y20869D01*
G01X56571Y20859D01*
G01X56518Y20862D01*
G01X56458Y20879D01*
G01X56387Y20909D01*
G01X56301Y20954D01*
G01X56199Y21014D01*
G01X55931Y21175D01*
G01X55941Y21595D01*
G01X55943Y21683D01*
G01X55947Y21771D01*
G01X55951Y21857D01*
G01X55956Y21939D01*
G01X55961Y22013D01*
G01X55966Y22079D01*
G01X55972Y22134D01*
G01X55978Y22174D01*
G01X56006Y22333D01*
G01X55844Y22432D01*
G01X55777Y22468D01*
G01X55715Y22493D01*
G37*

%LPD*%
G36*
G01X62705Y22022D02*
G01X62633Y22193D01*
G01X62486Y22117D01*
G01X62426Y22083D01*
G01X62371Y22046D01*
G01X62328Y22011D01*
G01X62302Y21982D01*
G01X62301Y21976D01*
G01X62298Y21965D01*
G01X62296Y21947D01*
G01X62293Y21925D01*
G01X62290Y21898D01*
G01X62286Y21865D01*
G01X62283Y21827D01*
G01X62279Y21786D01*
G01X62275Y21740D01*
G01X62271Y21690D01*
G01X62267Y21635D01*
G01X62262Y21578D01*
G01X62257Y21517D01*
G01X62252Y21452D01*
G01X62247Y21385D01*
G01X62242Y21314D01*
G01X62237Y21241D01*
G01X62232Y21166D01*
G01X62226Y21088D01*
G01X62220Y21008D01*
G01X62215Y20927D01*
G01X62209Y20844D01*
G01X62204Y20759D01*
G01X62192Y20587D01*
G01X62187Y20500D01*
G01X62181Y20412D01*
G01X62170Y20235D01*
G01X62165Y20147D01*
G01X62159Y20059D01*
G01X62154Y19971D01*
G01X62149Y19884D01*
G01X62139Y19714D01*
G01X62134Y19630D01*
G01X62124Y19468D01*
G01X62120Y19390D01*
G01X62116Y19314D01*
G01X62112Y19241D01*
G01X62109Y19170D01*
G01X62105Y19102D01*
G01X62102Y19037D01*
G01X62099Y18975D01*
G01X62096Y18916D01*
G01X62094Y18861D01*
G01X62092Y18810D01*
G01X62090Y18763D01*
G01X62089Y18720D01*
G01X62088Y18682D01*
G01X62087Y18648D01*
G01X62085Y18499D01*
G01X61614Y18264D01*
G01X61519Y18218D01*
G01X61429Y18173D01*
G01X61347Y18134D01*
G01X61274Y18099D01*
G01X61214Y18071D01*
G01X61166Y18049D01*
G01X61134Y18035D01*
G01X61119Y18031D01*
G01X61110Y18055D01*
G01X61102Y18122D01*
G01X61097Y18222D01*
G01X61095Y18343D01*
G01X61095Y18655D01*
G01X61223Y18825D01*
G01X61270Y18890D01*
G01X61314Y18954D01*
G01X61355Y19017D01*
G01X61393Y19080D01*
G01X61427Y19142D01*
G01X61459Y19204D01*
G01X61488Y19265D01*
G01X61514Y19327D01*
G01X61538Y19389D01*
G01X61558Y19451D01*
G01X61576Y19514D01*
G01X61592Y19578D01*
G01X61605Y19642D01*
G01X61615Y19707D01*
G01X61623Y19773D01*
G01X61629Y19840D01*
G01X61651Y20190D01*
G01X61549Y20390D01*
G01X61513Y20455D01*
G01X61475Y20514D01*
G01X61435Y20566D01*
G01X61392Y20612D01*
G01X61346Y20651D01*
G01X61297Y20684D01*
G01X61245Y20712D01*
G01X61188Y20735D01*
G01X61127Y20751D01*
G01X61062Y20763D01*
G01X60992Y20769D01*
G01X60916Y20770D01*
G01X60664Y20767D01*
G01X60404Y20626D01*
G01X60352Y20596D01*
G01X60301Y20564D01*
G01X60251Y20531D01*
G01X60203Y20495D01*
G01X60155Y20457D01*
G01X60110Y20418D01*
G01X60065Y20377D01*
G01X60021Y20334D01*
G01X59980Y20291D01*
G01X59939Y20245D01*
G01X59900Y20199D01*
G01X59862Y20151D01*
G01X59826Y20102D01*
G01X59791Y20053D01*
G01X59758Y20002D01*
G01X59727Y19950D01*
G01X59697Y19898D01*
G01X59668Y19845D01*
G01X59642Y19791D01*
G01X59617Y19738D01*
G01X59594Y19683D01*
G01X59572Y19629D01*
G01X59552Y19574D01*
G01X59534Y19519D01*
G01X59518Y19464D01*
G01X59504Y19409D01*
G01X59491Y19355D01*
G01X59480Y19301D01*
G01X59472Y19246D01*
G01X59465Y19193D01*
G01X59460Y19140D01*
G01X59458Y19087D01*
G01X59457Y19036D01*
G01X59458Y18985D01*
G01X59462Y18935D01*
G01X59468Y18886D01*
G01X59476Y18838D01*
G01X59486Y18791D01*
G01X59498Y18745D01*
G01X59512Y18701D01*
G01X59529Y18659D01*
G01X59548Y18617D01*
G01X59570Y18577D01*
G01X59594Y18540D01*
G01X59619Y18504D01*
G01X59648Y18469D01*
G01X59679Y18437D01*
G01X59712Y18407D01*
G01X59858Y18284D01*
G01X59854Y18022D01*
G01X59853Y17964D01*
G01X59850Y17902D01*
G01X59846Y17838D01*
G01X59841Y17773D01*
G01X59836Y17709D01*
G01X59830Y17648D01*
G01X59824Y17593D01*
G01X59817Y17545D01*
G01X59784Y17331D01*
G01X58991Y16914D01*
G01X58961Y16496D01*
G01X59189Y16496D01*
G01X59232Y16497D01*
G01X59278Y16499D01*
G01X59327Y16502D01*
G01X59378Y16507D01*
G01X59430Y16513D01*
G01X59485Y16520D01*
G01X59541Y16528D01*
G01X59598Y16538D01*
G01X59657Y16548D01*
G01X59716Y16560D01*
G01X59776Y16572D01*
G01X59837Y16585D01*
G01X59898Y16600D01*
G01X59960Y16615D01*
G01X60082Y16647D01*
G01X60143Y16665D01*
G01X60203Y16682D01*
G01X60262Y16701D01*
G01X60319Y16720D01*
G01X60376Y16740D01*
G01X60432Y16760D01*
G01X60485Y16780D01*
G01X60537Y16801D01*
G01X60596Y16826D01*
G01X60654Y16852D01*
G01X60770Y16906D01*
G01X60826Y16934D01*
G01X60882Y16963D01*
G01X60938Y16993D01*
G01X60993Y17024D01*
G01X61047Y17055D01*
G01X61155Y17121D01*
G01X61207Y17154D01*
G01X61259Y17189D01*
G01X61311Y17225D01*
G01X61362Y17261D01*
G01X61412Y17297D01*
G01X61461Y17335D01*
G01X61511Y17373D01*
G01X61559Y17412D01*
G01X61607Y17452D01*
G01X61653Y17492D01*
G01X61700Y17533D01*
G01X61745Y17575D01*
G01X61791Y17618D01*
G01X61835Y17661D01*
G01X61921Y17749D01*
G01X61963Y17794D01*
G01X62005Y17840D01*
G01X62046Y17887D01*
G01X62086Y17934D01*
G01X62125Y17982D01*
G01X62163Y18031D01*
G01X62202Y18079D01*
G01X62239Y18129D01*
G01X62275Y18180D01*
G01X62345Y18282D01*
G01X62379Y18334D01*
G01X62412Y18387D01*
G01X62445Y18441D01*
G01X62477Y18495D01*
G01X62508Y18549D01*
G01X62538Y18604D01*
G01X62567Y18660D01*
G01X62595Y18717D01*
G01X62623Y18773D01*
G01X62650Y18830D01*
G01X62677Y18890D01*
G01X62702Y18949D01*
G01X62727Y19007D01*
G01X62750Y19064D01*
G01X62773Y19120D01*
G01X62793Y19176D01*
G01X62813Y19231D01*
G01X62831Y19286D01*
G01X62848Y19340D01*
G01X62865Y19395D01*
G01X62880Y19449D01*
G01X62894Y19503D01*
G01X62907Y19558D01*
G01X62919Y19613D01*
G01X62930Y19668D01*
G01X62940Y19724D01*
G01X62949Y19781D01*
G01X62957Y19838D01*
G01X62965Y19897D01*
G01X62971Y19956D01*
G01X62977Y20016D01*
G01X62982Y20078D01*
G01X62986Y20141D01*
G01X62989Y20205D01*
G01X62992Y20271D01*
G01X62994Y20340D01*
G01X62995Y20409D01*
G01X62996Y20481D01*
G01X62998Y21075D01*
G01X62887Y21462D01*
G01X62864Y21544D01*
G01X62839Y21626D01*
G01X62813Y21708D01*
G01X62788Y21786D01*
G01X62764Y21859D01*
G01X62742Y21924D01*
G01X62721Y21979D01*
G01X62705Y22022D01*
G37*

%LPD*%
G36*
G01X48075Y17387D02*
G01X47630Y17387D01*
G01X47630Y16939D01*
G01X47631Y16862D01*
G01X47632Y16789D01*
G01X47636Y16721D01*
G01X47641Y16656D01*
G01X47647Y16596D01*
G01X47656Y16539D01*
G01X47666Y16486D01*
G01X47678Y16437D01*
G01X47693Y16391D01*
G01X47709Y16348D01*
G01X47729Y16309D01*
G01X47750Y16273D01*
G01X47774Y16240D01*
G01X47801Y16210D01*
G01X47830Y16183D01*
G01X47863Y16158D01*
G01X47898Y16136D01*
G01X47937Y16117D01*
G01X47979Y16099D01*
G01X48024Y16085D01*
G01X48073Y16072D01*
G01X48125Y16061D01*
G01X48181Y16052D01*
G01X48241Y16045D01*
G01X48305Y16039D01*
G01X48373Y16035D01*
G01X48444Y16033D01*
G01X48521Y16032D01*
G01X48942Y16029D01*
G01X49100Y16114D01*
G01X49167Y16155D01*
G01X49234Y16206D01*
G01X49292Y16259D01*
G01X49334Y16309D01*
G01X49412Y16419D01*
G01X49412Y17387D01*
G01X49016Y17387D01*
G01X49016Y16976D01*
G01X49015Y16883D01*
G01X49013Y16800D01*
G01X49009Y16727D01*
G01X49003Y16663D01*
G01X48995Y16607D01*
G01X48983Y16559D01*
G01X48968Y16517D01*
G01X48948Y16483D01*
G01X48924Y16453D01*
G01X48896Y16429D01*
G01X48863Y16410D01*
G01X48823Y16394D01*
G01X48779Y16382D01*
G01X48727Y16372D01*
G01X48668Y16364D01*
G01X48603Y16358D01*
G01X48324Y16335D01*
G01X48200Y16417D01*
G01X48075Y16498D01*
G01X48075Y17387D01*
G37*

%LPD*%
G36*
G01X52729Y17387D02*
G01X52283Y17387D01*
G01X52283Y16964D01*
G01X52284Y16879D01*
G01X52286Y16799D01*
G01X52291Y16724D01*
G01X52297Y16653D01*
G01X52305Y16587D01*
G01X52316Y16527D01*
G01X52329Y16470D01*
G01X52344Y16418D01*
G01X52362Y16370D01*
G01X52382Y16325D01*
G01X52406Y16285D01*
G01X52433Y16248D01*
G01X52463Y16214D01*
G01X52496Y16183D01*
G01X52532Y16156D01*
G01X52573Y16131D01*
G01X52617Y16109D01*
G01X52664Y16090D01*
G01X52716Y16073D01*
G01X52772Y16059D01*
G01X52832Y16046D01*
G01X52897Y16035D01*
G01X52966Y16026D01*
G01X53040Y16018D01*
G01X53111Y16012D01*
G01X53181Y16010D01*
G01X53249Y16010D01*
G01X53315Y16013D01*
G01X53379Y16019D01*
G01X53441Y16027D01*
G01X53501Y16037D01*
G01X53558Y16051D01*
G01X53613Y16067D01*
G01X53666Y16085D01*
G01X53715Y16106D01*
G01X53763Y16130D01*
G01X53808Y16156D01*
G01X53850Y16184D01*
G01X53889Y16215D01*
G01X53925Y16249D01*
G01X54065Y16389D01*
G01X54065Y17387D01*
G01X53669Y17387D01*
G01X53669Y16508D01*
G01X53587Y16440D01*
G01X53564Y16425D01*
G01X53532Y16412D01*
G01X53492Y16401D01*
G01X53445Y16390D01*
G01X53391Y16383D01*
G01X53332Y16377D01*
G01X53267Y16373D01*
G01X53199Y16372D01*
G01X53131Y16373D01*
G01X53067Y16377D01*
G01X53007Y16383D01*
G01X52953Y16390D01*
G01X52906Y16401D01*
G01X52866Y16412D01*
G01X52834Y16425D01*
G01X52811Y16440D01*
G01X52729Y16508D01*
G01X52729Y17387D01*
G37*

%LPD*%
G36*
G01X50935Y17387D02*
G01X49548Y17387D01*
G01X49671Y17226D01*
G01X49795Y17065D01*
G01X50190Y17036D01*
G01X50221Y16704D01*
G01X50228Y16633D01*
G01X50234Y16561D01*
G01X50239Y16487D01*
G01X50244Y16415D01*
G01X50248Y16347D01*
G01X50250Y16285D01*
G01X50252Y16230D01*
G01X50253Y16187D01*
G01X50253Y16001D01*
G01X50650Y16001D01*
G01X50650Y17041D01*
G01X51199Y17041D01*
G01X50935Y17387D01*
G37*

%LPD*%
G36*
G01X52184Y17387D02*
G01X51792Y17387D01*
G01X51763Y16372D01*
G01X51255Y16347D01*
G01X50747Y16323D01*
G01X50971Y16003D01*
G01X52184Y16001D01*
G01X52184Y17387D01*
G37*

%LPD*%
G36*
G01X55427Y17385D02*
G01X54251Y17387D01*
G01X54374Y17226D01*
G01X54498Y17065D01*
G01X54945Y17041D01*
G01X55392Y17016D01*
G01X55496Y16921D01*
G01X55540Y16872D01*
G01X55571Y16816D01*
G01X55590Y16756D01*
G01X55596Y16694D01*
G01X55590Y16632D01*
G01X55571Y16572D01*
G01X55540Y16516D01*
G01X55496Y16467D01*
G01X55392Y16373D01*
G01X54829Y16355D01*
G01X54267Y16337D01*
G01X54523Y16001D01*
G01X54930Y16001D01*
G01X55015Y16002D01*
G01X55102Y16005D01*
G01X55187Y16010D01*
G01X55267Y16018D01*
G01X55342Y16026D01*
G01X55409Y16035D01*
G01X55464Y16046D01*
G01X55506Y16057D01*
G01X55564Y16078D01*
G01X55617Y16103D01*
G01X55668Y16130D01*
G01X55715Y16160D01*
G01X55760Y16192D01*
G01X55800Y16227D01*
G01X55838Y16263D01*
G01X55872Y16302D01*
G01X55902Y16342D01*
G01X55930Y16384D01*
G01X55953Y16427D01*
G01X55974Y16471D01*
G01X55991Y16516D01*
G01X56004Y16562D01*
G01X56014Y16609D01*
G01X56020Y16656D01*
G01X56023Y16702D01*
G01X56022Y16749D01*
G01X56018Y16796D01*
G01X56010Y16842D01*
G01X55998Y16888D01*
G01X55983Y16932D01*
G01X55964Y16976D01*
G01X55942Y17019D01*
G01X55916Y17060D01*
G01X55886Y17100D01*
G01X55852Y17138D01*
G01X55815Y17174D01*
G01X55773Y17207D01*
G01X55728Y17239D01*
G01X55679Y17268D01*
G01X55627Y17294D01*
G01X55427Y17385D01*
G37*

%LPD*%
G36*
G01X45355Y17387D02*
G01X43855Y17387D01*
G01X44103Y17065D01*
G01X44907Y17037D01*
G01X44907Y16892D01*
G01X44437Y16892D01*
G01X44342Y16891D01*
G01X44254Y16890D01*
G01X44174Y16887D01*
G01X44105Y16883D01*
G01X44047Y16879D01*
G01X44004Y16874D01*
G01X43976Y16868D01*
G01X43966Y16862D01*
G01X43975Y16839D01*
G01X43996Y16799D01*
G01X44029Y16747D01*
G01X44069Y16689D01*
G01X44171Y16545D01*
G01X44907Y16545D01*
G01X44907Y16347D01*
G01X43862Y16347D01*
G01X43995Y16172D01*
G01X44129Y15998D01*
G01X44728Y16012D01*
G01X45328Y16026D01*
G01X45355Y17387D01*
G37*

%LPD*%
G36*
G01X47209Y17385D02*
G01X46120Y17385D01*
G01X45914Y17291D01*
G01X45833Y17251D01*
G01X45766Y17208D01*
G01X45712Y17163D01*
G01X45670Y17112D01*
G01X45638Y17056D01*
G01X45616Y16993D01*
G01X45604Y16921D01*
G01X45600Y16841D01*
G01X45600Y16684D01*
G01X45898Y16406D01*
G01X45700Y16235D01*
G01X45622Y16167D01*
G01X45560Y16106D01*
G01X45517Y16059D01*
G01X45501Y16033D01*
G01X45522Y16021D01*
G01X45580Y16010D01*
G01X45665Y16003D01*
G01X45769Y16001D01*
G01X46036Y16001D01*
G01X46244Y16174D01*
G01X46451Y16347D01*
G01X47030Y16347D01*
G01X47045Y16187D01*
G01X47061Y16026D01*
G01X47481Y15995D01*
G01X47481Y16694D01*
G01X46743Y16694D01*
G01X46637Y16696D01*
G01X46542Y16699D01*
G01X46457Y16703D01*
G01X46381Y16708D01*
G01X46315Y16715D01*
G01X46257Y16723D01*
G01X46208Y16734D01*
G01X46166Y16745D01*
G01X46131Y16760D01*
G01X46103Y16776D01*
G01X46081Y16794D01*
G01X46065Y16815D01*
G01X46054Y16838D01*
G01X46048Y16864D01*
G01X46046Y16893D01*
G01X46047Y16915D01*
G01X46051Y16935D01*
G01X46059Y16953D01*
G01X46072Y16969D01*
G01X46090Y16983D01*
G01X46114Y16995D01*
G01X46145Y17006D01*
G01X46183Y17015D01*
G01X46230Y17022D01*
G01X46285Y17029D01*
G01X46350Y17035D01*
G01X46427Y17040D01*
G01X46514Y17044D01*
G01X46613Y17047D01*
G01X46725Y17050D01*
G01X46851Y17053D01*
G01X47433Y17065D01*
G01X47209Y17385D01*
G37*

%LPD*%
G36*
G01X52929Y15151D02*
G01X52899Y15159D01*
G01X52868Y15151D01*
G01X52846Y15129D01*
G01X52833Y15096D01*
G01X52829Y15058D01*
G01X52835Y15018D01*
G01X52849Y14980D01*
G01X52872Y14949D01*
G01X52904Y14929D01*
G01X52969Y14915D01*
G01X53007Y14931D01*
G01X53018Y14979D01*
G01X53002Y15056D01*
G01X52984Y15096D01*
G01X52959Y15129D01*
G01X52929Y15151D01*
G37*

%LPD*%
G36*
G01X45306Y15060D02*
G01X43855Y15060D01*
G01X44103Y14738D01*
G01X44480Y14724D01*
G01X44857Y14709D01*
G01X44857Y14565D01*
G01X44323Y14565D01*
G01X44239Y14563D01*
G01X44164Y14559D01*
G01X44097Y14555D01*
G01X44043Y14550D01*
G01X44001Y14544D01*
G01X43976Y14538D01*
G01X43966Y14531D01*
G01X43977Y14506D01*
G01X44006Y14466D01*
G01X44048Y14414D01*
G01X44100Y14357D01*
G01X44233Y14219D01*
G01X44857Y14219D01*
G01X44857Y14070D01*
G01X43855Y14070D01*
G01X44103Y13748D01*
G01X45278Y13748D01*
G01X45306Y15060D01*
G37*

%LPD*%
G36*
G01X45786Y15060D02*
G01X45402Y15060D01*
G01X45402Y14663D01*
G01X45403Y14581D01*
G01X45405Y14506D01*
G01X45409Y14435D01*
G01X45415Y14368D01*
G01X45422Y14306D01*
G01X45432Y14248D01*
G01X45444Y14194D01*
G01X45458Y14145D01*
G01X45475Y14099D01*
G01X45494Y14057D01*
G01X45516Y14018D01*
G01X45541Y13982D01*
G01X45569Y13950D01*
G01X45600Y13920D01*
G01X45635Y13894D01*
G01X45672Y13870D01*
G01X45713Y13848D01*
G01X45758Y13829D01*
G01X45807Y13811D01*
G01X45859Y13796D01*
G01X45916Y13782D01*
G01X45977Y13771D01*
G01X46042Y13760D01*
G01X46111Y13751D01*
G01X46185Y13743D01*
G01X46257Y13739D01*
G01X46328Y13738D01*
G01X46396Y13740D01*
G01X46463Y13744D01*
G01X46528Y13752D01*
G01X46590Y13762D01*
G01X46650Y13776D01*
G01X46707Y13792D01*
G01X46760Y13811D01*
G01X46811Y13833D01*
G01X46858Y13857D01*
G01X46902Y13884D01*
G01X46942Y13913D01*
G01X46979Y13945D01*
G01X47011Y13980D01*
G01X47135Y14127D01*
G01X47135Y15060D01*
G01X46739Y15060D01*
G01X46738Y14652D01*
G01X46737Y14568D01*
G01X46734Y14487D01*
G01X46730Y14412D01*
G01X46724Y14342D01*
G01X46717Y14282D01*
G01X46710Y14232D01*
G01X46701Y14194D01*
G01X46692Y14172D01*
G01X46676Y14155D01*
G01X46652Y14140D01*
G01X46619Y14126D01*
G01X46578Y14114D01*
G01X46528Y14103D01*
G01X46471Y14094D01*
G01X46406Y14087D01*
G01X46334Y14081D01*
G01X46021Y14062D01*
G01X45926Y14134D01*
G01X45831Y14205D01*
G01X45808Y14633D01*
G01X45786Y15060D01*
G37*

%LPD*%
G36*
G01X56937Y15110D02*
G01X56491Y15110D01*
G01X56491Y14688D01*
G01X56492Y14602D01*
G01X56494Y14523D01*
G01X56498Y14448D01*
G01X56504Y14378D01*
G01X56512Y14313D01*
G01X56523Y14253D01*
G01X56535Y14196D01*
G01X56550Y14145D01*
G01X56568Y14096D01*
G01X56588Y14052D01*
G01X56611Y14012D01*
G01X56637Y13975D01*
G01X56666Y13941D01*
G01X56698Y13911D01*
G01X56734Y13883D01*
G01X56774Y13859D01*
G01X56816Y13836D01*
G01X56863Y13817D01*
G01X56913Y13799D01*
G01X56968Y13784D01*
G01X57027Y13771D01*
G01X57090Y13759D01*
G01X57157Y13749D01*
G01X57229Y13741D01*
G01X57298Y13735D01*
G01X57367Y13732D01*
G01X57436Y13732D01*
G01X57502Y13735D01*
G01X57568Y13740D01*
G01X57632Y13748D01*
G01X57695Y13758D01*
G01X57755Y13772D01*
G01X57813Y13787D01*
G01X57869Y13805D01*
G01X57922Y13825D01*
G01X57972Y13847D01*
G01X58019Y13872D01*
G01X58062Y13899D01*
G01X58102Y13928D01*
G01X58137Y13959D01*
G01X58273Y14089D01*
G01X58273Y15110D01*
G01X57877Y15110D01*
G01X57877Y14674D01*
G01X57876Y14576D01*
G01X57873Y14487D01*
G01X57868Y14407D01*
G01X57862Y14338D01*
G01X57853Y14280D01*
G01X57843Y14234D01*
G01X57831Y14200D01*
G01X57818Y14179D01*
G01X57787Y14161D01*
G01X57735Y14146D01*
G01X57667Y14135D01*
G01X57587Y14127D01*
G01X57499Y14122D01*
G01X57407Y14120D01*
G01X57315Y14122D01*
G01X57227Y14127D01*
G01X57146Y14135D01*
G01X57079Y14146D01*
G01X57027Y14161D01*
G01X56996Y14179D01*
G01X56983Y14200D01*
G01X56971Y14234D01*
G01X56961Y14280D01*
G01X56952Y14338D01*
G01X56946Y14407D01*
G01X56941Y14487D01*
G01X56938Y14576D01*
G01X56937Y14674D01*
G01X56937Y15110D01*
G37*

%LPD*%
G36*
G01X48515Y15048D02*
G01X48421Y15049D01*
G01X48320Y15046D01*
G01X47896Y15030D01*
G01X47722Y14923D01*
G01X47671Y14888D01*
G01X47625Y14850D01*
G01X47583Y14809D01*
G01X47546Y14765D01*
G01X47514Y14719D01*
G01X47488Y14670D01*
G01X47466Y14619D01*
G01X47449Y14567D01*
G01X47438Y14512D01*
G01X47432Y14457D01*
G01X47431Y14401D01*
G01X47436Y14344D01*
G01X47446Y14286D01*
G01X47461Y14228D01*
G01X47483Y14170D01*
G01X47510Y14112D01*
G01X47588Y13961D01*
G01X47485Y13889D01*
G01X47445Y13858D01*
G01X47413Y13826D01*
G01X47390Y13798D01*
G01X47382Y13776D01*
G01X47389Y13771D01*
G01X47408Y13765D01*
G01X47439Y13760D01*
G01X47480Y13755D01*
G01X47532Y13750D01*
G01X47592Y13746D01*
G01X47661Y13742D01*
G01X47736Y13739D01*
G01X47819Y13736D01*
G01X47907Y13734D01*
G01X47999Y13732D01*
G01X48096Y13732D01*
G01X48810Y13727D01*
G01X49019Y13838D01*
G01X49080Y13874D01*
G01X49136Y13913D01*
G01X49187Y13955D01*
G01X49233Y14000D01*
G01X49274Y14048D01*
G01X49310Y14098D01*
G01X49340Y14151D01*
G01X49364Y14204D01*
G01X49382Y14260D01*
G01X49395Y14316D01*
G01X49402Y14373D01*
G01X49403Y14431D01*
G01X49397Y14488D01*
G01X49385Y14545D01*
G01X49366Y14602D01*
G01X49341Y14658D01*
G01X49307Y14719D01*
G01X49271Y14772D01*
G01X49232Y14818D01*
G01X49188Y14859D01*
G01X49137Y14895D01*
G01X49078Y14928D01*
G01X49010Y14960D01*
G01X48930Y14992D01*
G01X48880Y15008D01*
G01X48822Y15021D01*
G01X48756Y15032D01*
G01X48683Y15040D01*
G01X48602Y15046D01*
G01X48515Y15048D01*
G37*

%LPC*%
G36*
G01X48773Y14713D02*
G01X48045Y14713D01*
G01X47933Y14610D01*
G01X47886Y14557D01*
G01X47854Y14500D01*
G01X47838Y14439D01*
G01X47837Y14375D01*
G01X47853Y14244D01*
G01X48141Y14228D01*
G01X48430Y14214D01*
G01X48311Y14070D01*
G01X48773Y14070D01*
G01X48895Y14192D01*
G01X48942Y14245D01*
G01X48980Y14300D01*
G01X49006Y14352D01*
G01X49016Y14392D01*
G01X49006Y14432D01*
G01X48980Y14483D01*
G01X48942Y14539D01*
G01X48895Y14592D01*
G01X48773Y14713D01*
G37*

%LPD*%
G36*
G01X49957Y15110D02*
G01X49561Y15110D01*
G01X49561Y13723D01*
G01X49957Y13723D01*
G01X49957Y15110D01*
G37*

%LPD*%
G36*
G01X51929Y15110D02*
G01X51425Y15110D01*
G01X51323Y15109D01*
G01X51228Y15107D01*
G01X51140Y15104D01*
G01X51060Y15100D01*
G01X50985Y15094D01*
G01X50917Y15086D01*
G01X50855Y15077D01*
G01X50797Y15066D01*
G01X50744Y15053D01*
G01X50695Y15039D01*
G01X50651Y15022D01*
G01X50609Y15003D01*
G01X50570Y14982D01*
G01X50534Y14958D01*
G01X50501Y14932D01*
G01X50468Y14904D01*
G01X50352Y14795D01*
G01X50352Y14376D01*
G01X50498Y14253D01*
G01X50644Y14131D01*
G01X50179Y13728D01*
G01X50468Y13726D01*
G01X50757Y13723D01*
G01X50968Y13897D01*
G01X51180Y14070D01*
G01X51788Y14070D01*
G01X51788Y13723D01*
G01X51983Y13723D01*
G01X52061Y13728D01*
G01X52130Y13739D01*
G01X52183Y13755D01*
G01X52211Y13776D01*
G01X52220Y13819D01*
G01X52223Y13898D01*
G01X52220Y14002D01*
G01X52209Y14119D01*
G01X52175Y14409D01*
G01X51514Y14425D01*
G01X51406Y14428D01*
G01X51306Y14432D01*
G01X51216Y14436D01*
G01X51135Y14441D01*
G01X51062Y14447D01*
G01X50998Y14453D01*
G01X50943Y14460D01*
G01X50896Y14467D01*
G01X50857Y14476D01*
G01X50826Y14484D01*
G01X50804Y14494D01*
G01X50789Y14505D01*
G01X50726Y14568D01*
G01X50834Y14738D01*
G01X52182Y14788D01*
G01X52056Y14949D01*
G01X51929Y15110D01*
G37*

%LPD*%
G36*
G01X55819Y15105D02*
G01X55770Y15110D01*
G01X55739Y15107D01*
G01X55707Y15096D01*
G01X55674Y15080D01*
G01X55640Y15055D01*
G01X55604Y15023D01*
G01X55566Y14983D01*
G01X55526Y14934D01*
G01X55483Y14878D01*
G01X55438Y14811D01*
G01X55389Y14735D01*
G01X55336Y14649D01*
G01X55280Y14553D01*
G01X55225Y14461D01*
G01X55175Y14387D01*
G01X55136Y14338D01*
G01X55113Y14319D01*
G01X55101Y14327D01*
G01X55080Y14350D01*
G01X55052Y14386D01*
G01X55017Y14433D01*
G01X54976Y14489D01*
G01X54932Y14554D01*
G01X54883Y14627D01*
G01X54833Y14703D01*
G01X54585Y15085D01*
G01X54457Y15100D01*
G01X54403Y15101D01*
G01X54351Y15091D01*
G01X54307Y15074D01*
G01X54276Y15050D01*
G01X54268Y15037D01*
G01X54256Y15014D01*
G01X54243Y14982D01*
G01X54228Y14943D01*
G01X54211Y14897D01*
G01X54193Y14845D01*
G01X54174Y14787D01*
G01X54153Y14725D01*
G01X54132Y14658D01*
G01X54111Y14588D01*
G01X54089Y14516D01*
G01X54067Y14441D01*
G01X54046Y14367D01*
G01X54025Y14294D01*
G01X54004Y14223D01*
G01X53985Y14155D01*
G01X53967Y14091D01*
G01X53950Y14031D01*
G01X53934Y13977D01*
G01X53920Y13929D01*
G01X53908Y13887D01*
G01X53898Y13853D01*
G01X53891Y13827D01*
G01X53886Y13810D01*
G01X53861Y13723D01*
G01X54309Y13723D01*
G01X54360Y13912D01*
G01X54382Y13998D01*
G01X54405Y14092D01*
G01X54426Y14182D01*
G01X54442Y14258D01*
G01X54457Y14320D01*
G01X54474Y14370D01*
G01X54491Y14404D01*
G01X54505Y14417D01*
G01X54530Y14396D01*
G01X54574Y14340D01*
G01X54630Y14257D01*
G01X54693Y14156D01*
G01X54742Y14077D01*
G01X54787Y14007D01*
G01X54832Y13944D01*
G01X54874Y13890D01*
G01X54914Y13844D01*
G01X54953Y13806D01*
G01X54992Y13775D01*
G01X55029Y13752D01*
G01X55065Y13738D01*
G01X55101Y13731D01*
G01X55137Y13733D01*
G01X55172Y13741D01*
G01X55208Y13758D01*
G01X55245Y13783D01*
G01X55281Y13815D01*
G01X55319Y13856D01*
G01X55357Y13904D01*
G01X55397Y13960D01*
G01X55439Y14023D01*
G01X55482Y14095D01*
G01X55520Y14159D01*
G01X55557Y14220D01*
G01X55593Y14275D01*
G01X55625Y14322D01*
G01X55652Y14361D01*
G01X55675Y14391D01*
G01X55693Y14410D01*
G01X55703Y14417D01*
G01X55718Y14404D01*
G01X55736Y14370D01*
G01X55753Y14320D01*
G01X55768Y14258D01*
G01X55784Y14182D01*
G01X55805Y14092D01*
G01X55828Y13998D01*
G01X55850Y13912D01*
G01X55901Y13723D01*
G01X56122Y13723D01*
G01X56208Y13726D01*
G01X56278Y13733D01*
G01X56325Y13744D01*
G01X56343Y13756D01*
G01X56340Y13777D01*
G01X56333Y13812D01*
G01X56320Y13861D01*
G01X56305Y13919D01*
G01X56285Y13988D01*
G01X56264Y14064D01*
G01X56239Y14147D01*
G01X56213Y14233D01*
G01X56185Y14323D01*
G01X56156Y14415D01*
G01X56127Y14506D01*
G01X56099Y14595D01*
G01X56071Y14681D01*
G01X56044Y14762D01*
G01X56019Y14835D01*
G01X55996Y14901D01*
G01X55976Y14957D01*
G01X55959Y15000D01*
G01X55946Y15031D01*
G01X55936Y15047D01*
G01X55907Y15072D01*
G01X55866Y15091D01*
G01X55819Y15105D01*
G37*

%LPD*%
G36*
G01X58913Y15110D02*
G01X58521Y15110D01*
G01X58521Y13770D01*
G01X58598Y13740D01*
G01X58628Y13732D01*
G01X58661Y13729D01*
G01X58696Y13734D01*
G01X58735Y13744D01*
G01X58779Y13763D01*
G01X58828Y13789D01*
G01X58884Y13824D01*
G01X58947Y13869D01*
G01X59019Y13923D01*
G01X59100Y13986D01*
G01X59292Y14146D01*
G01X59684Y14480D01*
G01X59699Y14102D01*
G01X59713Y13723D01*
G01X60166Y13723D01*
G01X60126Y15017D01*
G01X60054Y15062D01*
G01X60028Y15078D01*
G01X60003Y15090D01*
G01X59979Y15099D01*
G01X59954Y15103D01*
G01X59928Y15103D01*
G01X59900Y15099D01*
G01X59870Y15088D01*
G01X59835Y15073D01*
G01X59797Y15051D01*
G01X59753Y15022D01*
G01X59703Y14987D01*
G01X59646Y14944D01*
G01X59581Y14893D01*
G01X59508Y14834D01*
G01X59426Y14767D01*
G01X59333Y14690D01*
G01X58942Y14364D01*
G01X58927Y14737D01*
G01X58913Y15110D01*
G37*

%LPD*%
G36*
G01X52861Y14912D02*
G01X52271Y14912D01*
G01X52395Y14751D01*
G01X52518Y14590D01*
G01X52920Y14576D01*
G01X53323Y14561D01*
G01X53323Y14417D01*
G01X52852Y14417D01*
G01X52758Y14416D01*
G01X52670Y14414D01*
G01X52590Y14411D01*
G01X52521Y14407D01*
G01X52463Y14403D01*
G01X52420Y14397D01*
G01X52392Y14391D01*
G01X52382Y14384D01*
G01X52392Y14358D01*
G01X52420Y14313D01*
G01X52460Y14253D01*
G01X52508Y14186D01*
G01X52635Y14021D01*
G01X53323Y14021D01*
G01X53323Y13872D01*
G01X52278Y13872D01*
G01X52542Y13526D01*
G01X53768Y13526D01*
G01X53768Y14912D01*
G01X53073Y14912D01*
G01X53104Y14788D01*
G01X53136Y14664D01*
G01X53055Y14664D01*
G01X53019Y14674D01*
G01X52981Y14701D01*
G01X52946Y14740D01*
G01X52918Y14788D01*
G01X52861Y14912D01*
G37*

%LPD*%

%LPD*%
G36*
G01X57932Y9818D02*
G01X57482Y9818D01*
G01X57482Y9704D01*
G01X57932Y9704D01*
G01X57932Y9818D01*
G37*

%LPD*%
G36*
G01X43555Y10565D02*
G01X43177Y10565D01*
G01X43113Y10563D01*
G01X43053Y10558D01*
G01X42996Y10547D01*
G01X42944Y10533D01*
G01X42898Y10514D01*
G01X42856Y10491D01*
G01X42819Y10464D01*
G01X42789Y10431D01*
G01X42765Y10393D01*
G01X42747Y10350D01*
G01X42737Y10301D01*
G01X42732Y10248D01*
G01X42736Y10200D01*
G01X42746Y10155D01*
G01X42762Y10113D01*
G01X42784Y10073D01*
G01X42812Y10039D01*
G01X42845Y10009D01*
G01X42884Y9984D01*
G01X42928Y9966D01*
G01X42928Y9958D01*
G01X42871Y9943D01*
G01X42818Y9922D01*
G01X42772Y9893D01*
G01X42732Y9857D01*
G01X42700Y9815D01*
G01X42677Y9766D01*
G01X42661Y9709D01*
G01X42656Y9646D01*
G01X42660Y9585D01*
G01X42673Y9529D01*
G01X42692Y9479D01*
G01X42719Y9434D01*
G01X42753Y9394D01*
G01X42793Y9360D01*
G01X42840Y9331D01*
G01X42891Y9307D01*
G01X42949Y9289D01*
G01X43011Y9275D01*
G01X43078Y9267D01*
G01X43149Y9265D01*
G01X43555Y9265D01*
G01X43555Y10565D01*
G37*

%LPC*%
G36*
G01X43408Y9895D02*
G01X43172Y9895D01*
G01X43088Y9891D01*
G01X43014Y9880D01*
G01X42951Y9862D01*
G01X42898Y9836D01*
G01X42856Y9802D01*
G01X42826Y9759D01*
G01X42808Y9710D01*
G01X42801Y9651D01*
G01X42808Y9586D01*
G01X42826Y9530D01*
G01X42857Y9484D01*
G01X42900Y9447D01*
G01X42953Y9418D01*
G01X43016Y9398D01*
G01X43090Y9386D01*
G01X43172Y9381D01*
G01X43408Y9381D01*
G01X43408Y9895D01*
G37*
G36*
G01X43408Y10448D02*
G01X43200Y10448D01*
G01X43125Y10446D01*
G01X43060Y10437D01*
G01X43005Y10421D01*
G01X42960Y10399D01*
G01X42925Y10370D01*
G01X42900Y10331D01*
G01X42885Y10285D01*
G01X42880Y10230D01*
G01X42884Y10181D01*
G01X42898Y10137D01*
G01X42922Y10100D01*
G01X42956Y10068D01*
G01X43001Y10043D01*
G01X43058Y10024D01*
G01X43127Y10013D01*
G01X43207Y10009D01*
G01X43408Y10009D01*
G01X43408Y10448D01*
G37*

%LPD*%
G36*
G01X48541Y10236D02*
G01X48463Y10250D01*
G01X48434Y10249D01*
G01X48408Y10246D01*
G01X48384Y10238D01*
G01X48361Y10227D01*
G01X48389Y10103D01*
G01X48412Y10109D01*
G01X48433Y10115D01*
G01X48455Y10117D01*
G01X48481Y10118D01*
G01X48544Y10106D01*
G01X48610Y10067D01*
G01X48672Y9996D01*
G01X48727Y9889D01*
G01X48727Y9265D01*
G01X48872Y9265D01*
G01X48872Y10225D01*
G01X48755Y10225D01*
G01X48740Y10050D01*
G01X48735Y10050D01*
G01X48679Y10131D01*
G01X48614Y10195D01*
G01X48541Y10236D01*
G37*

%LPD*%
G36*
G01X55783Y10679D02*
G01X55638Y10679D01*
G01X55638Y10288D01*
G01X55643Y10085D01*
G01X55609Y10118D01*
G01X55573Y10149D01*
G01X55536Y10177D01*
G01X55498Y10201D01*
G01X55457Y10222D01*
G01X55414Y10237D01*
G01X55369Y10247D01*
G01X55321Y10250D01*
G01X55251Y10244D01*
G01X55191Y10226D01*
G01X55140Y10196D01*
G01X55100Y10155D01*
G01X55068Y10102D01*
G01X55046Y10037D01*
G01X55033Y9961D01*
G01X55029Y9874D01*
G01X55029Y9265D01*
G01X55173Y9265D01*
G01X55173Y9856D01*
G01X55176Y9922D01*
G01X55185Y9976D01*
G01X55199Y10023D01*
G01X55219Y10060D01*
G01X55246Y10088D01*
G01X55279Y10108D01*
G01X55318Y10120D01*
G01X55364Y10123D01*
G01X55436Y10114D01*
G01X55502Y10084D01*
G01X55568Y10034D01*
G01X55638Y9966D01*
G01X55638Y9265D01*
G01X55783Y9265D01*
G01X55783Y10679D01*
G37*

%LPD*%
G36*
G01X56951Y10565D02*
G01X56007Y10565D01*
G01X56007Y10441D01*
G01X56405Y10441D01*
G01X56405Y9265D01*
G01X56553Y9265D01*
G01X56553Y10441D01*
G01X56951Y10441D01*
G01X56951Y10565D01*
G37*

%LPD*%
G36*
G01X58740Y10565D02*
G01X58592Y10565D01*
G01X58592Y9265D01*
G01X58740Y9265D01*
G01X58740Y10565D01*
G37*

%LPD*%
G36*
G01X59242Y10565D02*
G01X59103Y10565D01*
G01X59103Y9265D01*
G01X59255Y9265D01*
G01X59743Y10108D01*
G01X59885Y10375D01*
G01X59895Y10375D01*
G01X59892Y10326D01*
G01X59890Y10277D01*
G01X59884Y10179D01*
G01X59881Y10129D01*
G01X59880Y10079D01*
G01X59878Y10029D01*
G01X59877Y9978D01*
G01X59877Y9265D01*
G01X60015Y9265D01*
G01X60015Y10565D01*
G01X59865Y10565D01*
G01X59372Y9724D01*
G01X59232Y9458D01*
G01X59222Y9458D01*
G01X59226Y9507D01*
G01X59230Y9557D01*
G01X59239Y9710D01*
G01X59241Y9761D01*
G01X59242Y9812D01*
G01X59242Y10565D01*
G37*

%LPD*%
G36*
G01X60812Y10565D02*
G01X60650Y10565D01*
G01X60205Y9265D01*
G01X60360Y9265D01*
G01X60490Y9676D01*
G01X60975Y9676D01*
G01X61109Y9265D01*
G01X61257Y9265D01*
G01X60812Y10565D01*
G37*

%LPC*%
G36*
G01X60739Y10443D02*
G01X60731Y10443D01*
G01X60697Y10331D01*
G01X60681Y10276D01*
G01X60665Y10222D01*
G01X60648Y10167D01*
G01X60631Y10114D01*
G01X60614Y10059D01*
G01X60596Y10004D01*
G01X60528Y9790D01*
G01X60939Y9790D01*
G01X60871Y10004D01*
G01X60853Y10059D01*
G01X60836Y10113D01*
G01X60818Y10167D01*
G01X60786Y10275D01*
G01X60770Y10330D01*
G01X60754Y10386D01*
G01X60739Y10443D01*
G37*

%LPD*%
G36*
G01X61485Y10565D02*
G01X61318Y10565D01*
G01X61727Y10072D01*
G01X61257Y9265D01*
G01X61422Y9265D01*
G01X61821Y9958D01*
G01X62054Y9684D01*
G01X62054Y9265D01*
G01X62202Y9265D01*
G01X62202Y10565D01*
G01X62054Y10565D01*
G01X62054Y9897D01*
G01X62049Y9897D01*
G01X61485Y10565D01*
G37*

%LPD*%
G36*
G01X41323Y10497D02*
G01X41198Y10497D01*
G01X41198Y10225D01*
G01X40934Y10225D01*
G01X40934Y10105D01*
G01X41198Y10105D01*
G01X41198Y9549D01*
G01X41191Y9470D01*
G01X41166Y9411D01*
G01X41120Y9374D01*
G01X41048Y9361D01*
G01X41021Y9364D01*
G01X40991Y9369D01*
G01X40962Y9377D01*
G01X40937Y9387D01*
G01X40906Y9277D01*
G01X40948Y9265D01*
G01X40993Y9253D01*
G01X41037Y9245D01*
G01X41079Y9242D01*
G01X41148Y9247D01*
G01X41205Y9264D01*
G01X41251Y9291D01*
G01X41286Y9328D01*
G01X41313Y9373D01*
G01X41330Y9426D01*
G01X41340Y9487D01*
G01X41343Y9554D01*
G01X41343Y10105D01*
G01X41488Y10105D01*
G01X41488Y10215D01*
G01X41338Y10225D01*
G01X41323Y10497D01*
G37*

%LPD*%
G36*
G01X42100Y10247D02*
G01X42042Y10250D01*
G01X41984Y10247D01*
G01X41928Y10235D01*
G01X41874Y10216D01*
G01X41823Y10190D01*
G01X41776Y10157D01*
G01X41733Y10117D01*
G01X41695Y10071D01*
G01X41663Y10018D01*
G01X41636Y9958D01*
G01X41616Y9892D01*
G01X41604Y9820D01*
G01X41600Y9742D01*
G01X41604Y9666D01*
G01X41616Y9596D01*
G01X41636Y9531D01*
G01X41663Y9472D01*
G01X41695Y9420D01*
G01X41733Y9374D01*
G01X41776Y9334D01*
G01X41823Y9302D01*
G01X41874Y9276D01*
G01X41928Y9257D01*
G01X41984Y9246D01*
G01X42042Y9242D01*
G01X42100Y9246D01*
G01X42155Y9257D01*
G01X42209Y9276D01*
G01X42260Y9302D01*
G01X42307Y9334D01*
G01X42350Y9374D01*
G01X42389Y9420D01*
G01X42421Y9472D01*
G01X42447Y9531D01*
G01X42467Y9596D01*
G01X42480Y9666D01*
G01X42484Y9742D01*
G01X42480Y9820D01*
G01X42467Y9892D01*
G01X42447Y9958D01*
G01X42421Y10018D01*
G01X42389Y10071D01*
G01X42350Y10117D01*
G01X42307Y10157D01*
G01X42260Y10190D01*
G01X42209Y10216D01*
G01X42155Y10235D01*
G01X42100Y10247D01*
G37*

%LPC*%
G36*
G01X42104Y10119D02*
G01X42042Y10126D01*
G01X41980Y10119D01*
G01X41923Y10098D01*
G01X41873Y10065D01*
G01X41831Y10021D01*
G01X41797Y9965D01*
G01X41771Y9900D01*
G01X41755Y9825D01*
G01X41750Y9742D01*
G01X41755Y9661D01*
G01X41771Y9588D01*
G01X41797Y9523D01*
G01X41831Y9468D01*
G01X41873Y9424D01*
G01X41923Y9391D01*
G01X41980Y9371D01*
G01X42042Y9364D01*
G01X42104Y9371D01*
G01X42160Y9391D01*
G01X42210Y9424D01*
G01X42252Y9468D01*
G01X42287Y9523D01*
G01X42312Y9588D01*
G01X42329Y9661D01*
G01X42334Y9742D01*
G01X42329Y9825D01*
G01X42312Y9900D01*
G01X42287Y9965D01*
G01X42252Y10021D01*
G01X42210Y10065D01*
G01X42160Y10098D01*
G01X42104Y10119D01*
G37*

%LPD*%
G36*
G01X44444Y10679D02*
G01X44300Y10679D01*
G01X44300Y9265D01*
G01X44419Y9265D01*
G01X44434Y9379D01*
G01X44437Y9379D01*
G01X44499Y9326D01*
G01X44570Y9282D01*
G01X44649Y9252D01*
G01X44734Y9242D01*
G01X44792Y9246D01*
G01X44847Y9257D01*
G01X44898Y9275D01*
G01X44944Y9301D01*
G01X44986Y9333D01*
G01X45023Y9372D01*
G01X45055Y9418D01*
G01X45081Y9470D01*
G01X45102Y9529D01*
G01X45118Y9594D01*
G01X45127Y9665D01*
G01X45130Y9742D01*
G01X45126Y9818D01*
G01X45114Y9888D01*
G01X45096Y9954D01*
G01X45071Y10013D01*
G01X45040Y10066D01*
G01X45004Y10114D01*
G01X44963Y10154D01*
G01X44918Y10188D01*
G01X44870Y10215D01*
G01X44819Y10234D01*
G01X44766Y10246D01*
G01X44711Y10250D01*
G01X44633Y10243D01*
G01X44565Y10220D01*
G01X44500Y10184D01*
G01X44437Y10136D01*
G01X44444Y10304D01*
G01X44444Y10679D01*
G37*

%LPC*%
G36*
G01X44748Y10119D02*
G01X44688Y10126D01*
G01X44627Y10120D01*
G01X44567Y10102D01*
G01X44507Y10069D01*
G01X44444Y10019D01*
G01X44444Y9501D01*
G01X44507Y9441D01*
G01X44571Y9398D01*
G01X44636Y9372D01*
G01X44704Y9364D01*
G01X44766Y9370D01*
G01X44820Y9390D01*
G01X44868Y9422D01*
G01X44907Y9466D01*
G01X44937Y9521D01*
G01X44960Y9586D01*
G01X44973Y9661D01*
G01X44978Y9745D01*
G01X44972Y9825D01*
G01X44956Y9899D01*
G01X44930Y9964D01*
G01X44895Y10019D01*
G01X44852Y10064D01*
G01X44803Y10098D01*
G01X44748Y10119D01*
G37*

%LPD*%
G36*
G01X45734Y10246D02*
G01X45679Y10250D01*
G01X45621Y10247D01*
G01X45568Y10236D01*
G01X45519Y10219D01*
G01X45475Y10195D01*
G01X45435Y10165D01*
G01X45401Y10129D01*
G01X45371Y10088D01*
G01X45346Y10040D01*
G01X45326Y9988D01*
G01X45312Y9930D01*
G01X45303Y9868D01*
G01X45300Y9801D01*
G01X45302Y9753D01*
G01X45305Y9732D01*
G01X45308Y9712D01*
G01X45963Y9712D01*
G01X45955Y9635D01*
G01X45936Y9566D01*
G01X45907Y9505D01*
G01X45868Y9454D01*
G01X45821Y9412D01*
G01X45766Y9382D01*
G01X45704Y9363D01*
G01X45636Y9356D01*
G01X45568Y9362D01*
G01X45505Y9377D01*
G01X45447Y9402D01*
G01X45392Y9435D01*
G01X45339Y9338D01*
G01X45405Y9301D01*
G01X45477Y9270D01*
G01X45560Y9249D01*
G01X45653Y9242D01*
G01X45715Y9246D01*
G01X45774Y9257D01*
G01X45831Y9276D01*
G01X45883Y9302D01*
G01X45932Y9334D01*
G01X45975Y9374D01*
G01X46014Y9420D01*
G01X46046Y9472D01*
G01X46073Y9531D01*
G01X46092Y9596D01*
G01X46104Y9666D01*
G01X46108Y9742D01*
G01X46104Y9818D01*
G01X46092Y9888D01*
G01X46072Y9954D01*
G01X46046Y10013D01*
G01X46014Y10066D01*
G01X45977Y10114D01*
G01X45934Y10154D01*
G01X45889Y10188D01*
G01X45839Y10215D01*
G01X45788Y10234D01*
G01X45734Y10246D01*
G37*

%LPC*%
G36*
G01X45731Y10128D02*
G01X45679Y10133D01*
G01X45623Y10128D01*
G01X45574Y10113D01*
G01X45531Y10088D01*
G01X45495Y10053D01*
G01X45468Y10008D01*
G01X45447Y9955D01*
G01X45435Y9891D01*
G01X45430Y9818D01*
G01X45966Y9818D01*
G01X45954Y9889D01*
G01X45933Y9951D01*
G01X45904Y10005D01*
G01X45868Y10050D01*
G01X45827Y10086D01*
G01X45781Y10112D01*
G01X45731Y10128D01*
G37*

%LPD*%
G36*
G01X47607Y10225D02*
G01X47462Y10225D01*
G01X47462Y9265D01*
G01X47581Y9265D01*
G01X47594Y9417D01*
G01X47599Y9417D01*
G01X47634Y9380D01*
G01X47669Y9346D01*
G01X47706Y9316D01*
G01X47744Y9291D01*
G01X47784Y9270D01*
G01X47826Y9254D01*
G01X47871Y9245D01*
G01X47919Y9242D01*
G01X47989Y9248D01*
G01X48050Y9266D01*
G01X48100Y9295D01*
G01X48141Y9336D01*
G01X48172Y9389D01*
G01X48194Y9453D01*
G01X48207Y9528D01*
G01X48211Y9615D01*
G01X48211Y10225D01*
G01X48066Y10225D01*
G01X48066Y9633D01*
G01X48064Y9568D01*
G01X48056Y9514D01*
G01X48043Y9468D01*
G01X48023Y9431D01*
G01X47997Y9404D01*
G01X47964Y9384D01*
G01X47924Y9373D01*
G01X47876Y9369D01*
G01X47806Y9378D01*
G01X47740Y9409D01*
G01X47676Y9461D01*
G01X47607Y9536D01*
G01X47607Y10225D01*
G37*

%LPD*%
G36*
G01X49352Y10679D02*
G01X49207Y10679D01*
G01X49207Y9265D01*
G01X49326Y9265D01*
G01X49342Y9379D01*
G01X49344Y9379D01*
G01X49407Y9326D01*
G01X49478Y9282D01*
G01X49556Y9252D01*
G01X49641Y9242D01*
G01X49700Y9246D01*
G01X49755Y9257D01*
G01X49805Y9275D01*
G01X49852Y9301D01*
G01X49893Y9333D01*
G01X49930Y9372D01*
G01X49962Y9418D01*
G01X49989Y9470D01*
G01X50010Y9529D01*
G01X50025Y9594D01*
G01X50034Y9665D01*
G01X50038Y9742D01*
G01X50033Y9818D01*
G01X50022Y9888D01*
G01X50003Y9954D01*
G01X49978Y10013D01*
G01X49947Y10066D01*
G01X49911Y10114D01*
G01X49870Y10154D01*
G01X49826Y10188D01*
G01X49777Y10215D01*
G01X49726Y10234D01*
G01X49673Y10246D01*
G01X49618Y10250D01*
G01X49541Y10243D01*
G01X49472Y10220D01*
G01X49408Y10184D01*
G01X49344Y10136D01*
G01X49352Y10304D01*
G01X49352Y10679D01*
G37*

%LPC*%
G36*
G01X49656Y10119D02*
G01X49596Y10126D01*
G01X49535Y10120D01*
G01X49475Y10102D01*
G01X49415Y10069D01*
G01X49352Y10019D01*
G01X49352Y9501D01*
G01X49415Y9441D01*
G01X49479Y9398D01*
G01X49544Y9372D01*
G01X49611Y9364D01*
G01X49673Y9370D01*
G01X49728Y9390D01*
G01X49775Y9422D01*
G01X49814Y9466D01*
G01X49844Y9521D01*
G01X49867Y9586D01*
G01X49881Y9661D01*
G01X49885Y9745D01*
G01X49880Y9825D01*
G01X49863Y9899D01*
G01X49837Y9964D01*
G01X49802Y10019D01*
G01X49760Y10064D01*
G01X49710Y10098D01*
G01X49656Y10119D01*
G37*

%LPD*%
G36*
G01X50664Y10247D02*
G01X50606Y10250D01*
G01X50551Y10247D01*
G01X50501Y10237D01*
G01X50457Y10222D01*
G01X50419Y10201D01*
G01X50385Y10174D01*
G01X50357Y10142D01*
G01X50333Y10106D01*
G01X50314Y10064D01*
G01X50300Y10019D01*
G01X50289Y9969D01*
G01X50283Y9916D01*
G01X50281Y9859D01*
G01X50281Y9265D01*
G01X50401Y9265D01*
G01X50413Y9381D01*
G01X50419Y9381D01*
G01X50491Y9327D01*
G01X50569Y9282D01*
G01X50653Y9252D01*
G01X50741Y9242D01*
G01X50799Y9246D01*
G01X50851Y9260D01*
G01X50899Y9281D01*
G01X50940Y9312D01*
G01X50974Y9350D01*
G01X50999Y9396D01*
G01X51015Y9450D01*
G01X51021Y9511D01*
G01X51017Y9562D01*
G01X51005Y9608D01*
G01X50985Y9650D01*
G01X50958Y9688D01*
G01X50922Y9722D01*
G01X50878Y9752D01*
G01X50825Y9780D01*
G01X50763Y9804D01*
G01X50693Y9825D01*
G01X50613Y9843D01*
G01X50524Y9859D01*
G01X50426Y9872D01*
G01X50428Y9920D01*
G01X50434Y9967D01*
G01X50446Y10010D01*
G01X50465Y10049D01*
G01X50492Y10082D01*
G01X50528Y10106D01*
G01X50573Y10123D01*
G01X50629Y10128D01*
G01X50714Y10119D01*
G01X50792Y10094D01*
G01X50862Y10060D01*
G01X50921Y10022D01*
G01X50980Y10123D01*
G01X50946Y10145D01*
G01X50908Y10167D01*
G01X50866Y10188D01*
G01X50820Y10208D01*
G01X50771Y10225D01*
G01X50719Y10238D01*
G01X50664Y10247D01*
G37*

%LPC*%
G36*
G01X50543Y9756D02*
G01X50426Y9773D01*
G01X50426Y9493D01*
G01X50496Y9435D01*
G01X50564Y9393D01*
G01X50632Y9367D01*
G01X50703Y9359D01*
G01X50772Y9368D01*
G01X50828Y9396D01*
G01X50867Y9447D01*
G01X50881Y9521D01*
G01X50875Y9568D01*
G01X50857Y9611D01*
G01X50826Y9649D01*
G01X50780Y9682D01*
G01X50719Y9711D01*
G01X50640Y9736D01*
G01X50543Y9756D01*
G37*

%LPD*%
G36*
G01X51440Y10225D02*
G01X51295Y10225D01*
G01X51295Y9265D01*
G01X51414Y9265D01*
G01X51427Y9417D01*
G01X51432Y9417D01*
G01X51466Y9380D01*
G01X51501Y9346D01*
G01X51537Y9316D01*
G01X51575Y9291D01*
G01X51615Y9270D01*
G01X51658Y9254D01*
G01X51703Y9245D01*
G01X51752Y9242D01*
G01X51822Y9248D01*
G01X51883Y9266D01*
G01X51933Y9295D01*
G01X51974Y9336D01*
G01X52005Y9389D01*
G01X52027Y9453D01*
G01X52040Y9528D01*
G01X52044Y9615D01*
G01X52044Y10225D01*
G01X51899Y10225D01*
G01X51899Y9633D01*
G01X51897Y9568D01*
G01X51889Y9514D01*
G01X51875Y9468D01*
G01X51855Y9431D01*
G01X51828Y9404D01*
G01X51796Y9384D01*
G01X51756Y9373D01*
G01X51709Y9369D01*
G01X51637Y9378D01*
G01X51572Y9409D01*
G01X51507Y9461D01*
G01X51440Y9536D01*
G01X51440Y10225D01*
G37*

%LPD*%
G36*
G01X54413Y10246D02*
G01X54358Y10250D01*
G01X54300Y10247D01*
G01X54246Y10236D01*
G01X54198Y10219D01*
G01X54153Y10195D01*
G01X54113Y10165D01*
G01X54079Y10129D01*
G01X54049Y10088D01*
G01X54024Y10040D01*
G01X54005Y9988D01*
G01X53991Y9930D01*
G01X53983Y9868D01*
G01X53980Y9801D01*
G01X53980Y9777D01*
G01X53982Y9753D01*
G01X53984Y9732D01*
G01X53987Y9712D01*
G01X54643Y9712D01*
G01X54633Y9635D01*
G01X54614Y9566D01*
G01X54585Y9505D01*
G01X54546Y9454D01*
G01X54499Y9412D01*
G01X54444Y9382D01*
G01X54382Y9363D01*
G01X54312Y9356D01*
G01X54245Y9362D01*
G01X54183Y9377D01*
G01X54126Y9402D01*
G01X54071Y9435D01*
G01X54018Y9338D01*
G01X54082Y9301D01*
G01X54155Y9270D01*
G01X54237Y9249D01*
G01X54330Y9242D01*
G01X54393Y9246D01*
G01X54453Y9257D01*
G01X54509Y9276D01*
G01X54562Y9302D01*
G01X54611Y9334D01*
G01X54654Y9374D01*
G01X54693Y9420D01*
G01X54725Y9472D01*
G01X54752Y9531D01*
G01X54771Y9596D01*
G01X54783Y9666D01*
G01X54787Y9742D01*
G01X54783Y9818D01*
G01X54771Y9888D01*
G01X54751Y9954D01*
G01X54725Y10013D01*
G01X54693Y10066D01*
G01X54656Y10114D01*
G01X54614Y10154D01*
G01X54568Y10188D01*
G01X54519Y10215D01*
G01X54467Y10234D01*
G01X54413Y10246D01*
G37*

%LPC*%
G36*
G01X54408Y10128D02*
G01X54356Y10133D01*
G01X54301Y10128D01*
G01X54251Y10113D01*
G01X54209Y10088D01*
G01X54173Y10053D01*
G01X54145Y10008D01*
G01X54124Y9955D01*
G01X54111Y9891D01*
G01X54107Y9818D01*
G01X54645Y9818D01*
G01X54633Y9889D01*
G01X54612Y9951D01*
G01X54582Y10005D01*
G01X54546Y10050D01*
G01X54504Y10086D01*
G01X54458Y10112D01*
G01X54408Y10128D01*
G37*

%LPD*%
G36*
G01X52913Y10587D02*
G01X52854Y10591D01*
G01X52795Y10587D01*
G01X52738Y10579D01*
G01X52683Y10564D01*
G01X52631Y10544D01*
G01X52583Y10518D01*
G01X52537Y10487D01*
G01X52495Y10452D01*
G01X52457Y10411D01*
G01X52423Y10365D01*
G01X52392Y10314D01*
G01X52366Y10259D01*
G01X52344Y10199D01*
G01X52327Y10136D01*
G01X52314Y10068D01*
G01X52306Y9996D01*
G01X52303Y9920D01*
G01X52306Y9851D01*
G01X52312Y9784D01*
G01X52323Y9721D01*
G01X52337Y9662D01*
G01X52356Y9606D01*
G01X52377Y9553D01*
G01X52403Y9504D01*
G01X52432Y9459D01*
G01X52464Y9418D01*
G01X52499Y9381D01*
G01X52538Y9348D01*
G01X52579Y9320D01*
G01X52622Y9295D01*
G01X52669Y9275D01*
G01X52717Y9260D01*
G01X52768Y9249D01*
G01X52743Y9207D01*
G01X52713Y9170D01*
G01X52678Y9138D01*
G01X52638Y9112D01*
G01X52594Y9092D01*
G01X52547Y9078D01*
G01X52496Y9070D01*
G01X52443Y9067D01*
G01X52402Y9069D01*
G01X52366Y9073D01*
G01X52335Y9078D01*
G01X52308Y9084D01*
G01X52280Y8970D01*
G01X52313Y8959D01*
G01X52355Y8951D01*
G01X52404Y8945D01*
G01X52458Y8942D01*
G01X52543Y8948D01*
G01X52621Y8965D01*
G01X52691Y8992D01*
G01X52754Y9029D01*
G01X52809Y9074D01*
G01X52856Y9125D01*
G01X52895Y9183D01*
G01X52926Y9247D01*
G01X52978Y9257D01*
G01X53028Y9271D01*
G01X53075Y9291D01*
G01X53120Y9314D01*
G01X53162Y9343D01*
G01X53202Y9375D01*
G01X53238Y9412D01*
G01X53271Y9454D01*
G01X53301Y9499D01*
G01X53327Y9549D01*
G01X53350Y9601D01*
G01X53368Y9658D01*
G01X53384Y9719D01*
G01X53394Y9783D01*
G01X53401Y9850D01*
G01X53403Y9920D01*
G01X53400Y9996D01*
G01X53393Y10068D01*
G01X53380Y10136D01*
G01X53362Y10199D01*
G01X53341Y10259D01*
G01X53314Y10314D01*
G01X53284Y10365D01*
G01X53249Y10411D01*
G01X53210Y10452D01*
G01X53169Y10487D01*
G01X53124Y10518D01*
G01X53075Y10544D01*
G01X53024Y10564D01*
G01X52970Y10579D01*
G01X52913Y10587D01*
G37*

%LPC*%
G36*
G01X52912Y10454D02*
G01X52854Y10458D01*
G01X52796Y10454D01*
G01X52741Y10442D01*
G01X52690Y10421D01*
G01X52643Y10393D01*
G01X52601Y10357D01*
G01X52563Y10314D01*
G01X52531Y10264D01*
G01X52504Y10208D01*
G01X52482Y10145D01*
G01X52466Y10075D01*
G01X52457Y10001D01*
G01X52453Y9920D01*
G01X52457Y9838D01*
G01X52466Y9761D01*
G01X52482Y9691D01*
G01X52504Y9626D01*
G01X52531Y9567D01*
G01X52563Y9515D01*
G01X52601Y9470D01*
G01X52643Y9433D01*
G01X52690Y9403D01*
G01X52741Y9381D01*
G01X52796Y9368D01*
G01X52854Y9364D01*
G01X52912Y9368D01*
G01X52967Y9381D01*
G01X53017Y9403D01*
G01X53064Y9433D01*
G01X53106Y9470D01*
G01X53143Y9515D01*
G01X53176Y9567D01*
G01X53203Y9626D01*
G01X53225Y9691D01*
G01X53240Y9761D01*
G01X53250Y9838D01*
G01X53253Y9920D01*
G01X53250Y10001D01*
G01X53240Y10075D01*
G01X53225Y10145D01*
G01X53203Y10208D01*
G01X53176Y10264D01*
G01X53143Y10314D01*
G01X53106Y10357D01*
G01X53064Y10393D01*
G01X53017Y10421D01*
G01X52967Y10442D01*
G01X52912Y10454D01*
G37*

%LPD*%
G36*
G01X46763Y10239D02*
G01X46680Y10250D01*
G01X46620Y10246D01*
G01X46565Y10234D01*
G01X46515Y10215D01*
G01X46470Y10189D01*
G01X46430Y10155D01*
G01X46395Y10116D01*
G01X46365Y10070D01*
G01X46340Y10018D01*
G01X46321Y9961D01*
G01X46307Y9899D01*
G01X46299Y9832D01*
G01X46296Y9760D01*
G01X46300Y9681D01*
G01X46312Y9608D01*
G01X46331Y9541D01*
G01X46356Y9480D01*
G01X46387Y9426D01*
G01X46423Y9378D01*
G01X46464Y9337D01*
G01X46508Y9303D01*
G01X46557Y9277D01*
G01X46608Y9258D01*
G01X46661Y9246D01*
G01X46715Y9242D01*
G01X46782Y9249D01*
G01X46850Y9271D01*
G01X46918Y9306D01*
G01X46987Y9354D01*
G01X46982Y9183D01*
G01X46982Y8853D01*
G01X47127Y8853D01*
G01X47127Y10225D01*
G01X47010Y10225D01*
G01X46995Y10113D01*
G01X46990Y10113D01*
G01X46919Y10164D01*
G01X46843Y10209D01*
G01X46763Y10239D01*
G37*

%LPC*%
G36*
G01X46779Y10117D02*
G01X46715Y10126D01*
G01X46649Y10119D01*
G01X46592Y10099D01*
G01X46546Y10067D01*
G01X46509Y10024D01*
G01X46482Y9971D01*
G01X46463Y9908D01*
G01X46452Y9838D01*
G01X46449Y9760D01*
G01X46454Y9673D01*
G01X46470Y9595D01*
G01X46496Y9528D01*
G01X46531Y9470D01*
G01X46573Y9425D01*
G01X46622Y9392D01*
G01X46678Y9371D01*
G01X46738Y9364D01*
G01X46792Y9369D01*
G01X46851Y9387D01*
G01X46916Y9420D01*
G01X46982Y9468D01*
G01X46982Y9989D01*
G01X46911Y10049D01*
G01X46844Y10092D01*
G01X46779Y10117D01*
G37*

%LPD*%

%LPD*%
G36*
G01X56373Y8033D02*
G01X56294Y8047D01*
G01X56266Y8046D01*
G01X56240Y8042D01*
G01X56216Y8035D01*
G01X56192Y8025D01*
G01X56222Y7900D01*
G01X56244Y7907D01*
G01X56265Y7911D01*
G01X56287Y7914D01*
G01X56311Y7915D01*
G01X56376Y7903D01*
G01X56443Y7864D01*
G01X56505Y7793D01*
G01X56560Y7687D01*
G01X56560Y7062D01*
G01X56702Y7062D01*
G01X56702Y8022D01*
G01X56586Y8022D01*
G01X56573Y7847D01*
G01X56565Y7847D01*
G01X56511Y7928D01*
G01X56447Y7992D01*
G01X56373Y8033D01*
G37*

%LPD*%
G36*
G01X57622Y8362D02*
G01X56883Y8362D01*
G01X56883Y8238D01*
G01X57475Y8238D01*
G01X57475Y7781D01*
G01X56974Y7781D01*
G01X56974Y7656D01*
G01X57475Y7656D01*
G01X57475Y7062D01*
G01X57622Y7062D01*
G01X57622Y8362D01*
G37*

%LPD*%
G36*
G01X60063Y8362D02*
G01X59684Y8362D01*
G01X59620Y8360D01*
G01X59560Y8354D01*
G01X59504Y8344D01*
G01X59452Y8330D01*
G01X59405Y8312D01*
G01X59363Y8288D01*
G01X59327Y8260D01*
G01X59297Y8227D01*
G01X59272Y8190D01*
G01X59255Y8147D01*
G01X59244Y8098D01*
G01X59240Y8045D01*
G01X59244Y7997D01*
G01X59253Y7952D01*
G01X59269Y7909D01*
G01X59291Y7870D01*
G01X59319Y7836D01*
G01X59353Y7806D01*
G01X59392Y7781D01*
G01X59436Y7763D01*
G01X59436Y7755D01*
G01X59378Y7740D01*
G01X59326Y7718D01*
G01X59280Y7690D01*
G01X59240Y7654D01*
G01X59208Y7612D01*
G01X59184Y7562D01*
G01X59169Y7506D01*
G01X59164Y7443D01*
G01X59168Y7382D01*
G01X59180Y7326D01*
G01X59200Y7276D01*
G01X59227Y7231D01*
G01X59261Y7192D01*
G01X59301Y7157D01*
G01X59347Y7128D01*
G01X59399Y7104D01*
G01X59456Y7085D01*
G01X59519Y7072D01*
G01X59586Y7065D01*
G01X59657Y7062D01*
G01X60063Y7062D01*
G01X60063Y8362D01*
G37*

%LPC*%
G36*
G01X59916Y8246D02*
G01X59707Y8246D01*
G01X59633Y8243D01*
G01X59568Y8234D01*
G01X59512Y8219D01*
G01X59468Y8196D01*
G01X59432Y8166D01*
G01X59408Y8129D01*
G01X59392Y8082D01*
G01X59387Y8027D01*
G01X59392Y7978D01*
G01X59406Y7935D01*
G01X59429Y7897D01*
G01X59463Y7865D01*
G01X59509Y7840D01*
G01X59566Y7821D01*
G01X59634Y7810D01*
G01X59715Y7806D01*
G01X59916Y7806D01*
G01X59916Y8246D01*
G37*
G36*
G01X59916Y7692D02*
G01X59679Y7692D01*
G01X59596Y7688D01*
G01X59522Y7677D01*
G01X59458Y7659D01*
G01X59406Y7632D01*
G01X59364Y7598D01*
G01X59333Y7557D01*
G01X59315Y7506D01*
G01X59309Y7448D01*
G01X59315Y7383D01*
G01X59334Y7328D01*
G01X59365Y7281D01*
G01X59408Y7244D01*
G01X59460Y7215D01*
G01X59524Y7195D01*
G01X59597Y7182D01*
G01X59679Y7179D01*
G01X59916Y7179D01*
G01X59916Y7692D01*
G37*

%LPD*%
G36*
G01X52660Y7262D02*
G01X52618Y7270D01*
G01X52575Y7262D01*
G01X52539Y7238D01*
G01X52516Y7202D01*
G01X52506Y7153D01*
G01X52516Y7106D01*
G01X52539Y7070D01*
G01X52575Y7047D01*
G01X52618Y7039D01*
G01X52660Y7047D01*
G01X52694Y7070D01*
G01X52717Y7106D01*
G01X52725Y7153D01*
G01X52717Y7202D01*
G01X52694Y7238D01*
G01X52660Y7262D01*
G37*

%LPD*%
G36*
G01X53134Y8362D02*
G01X52986Y8362D01*
G01X52986Y7438D01*
G01X52989Y7384D01*
G01X52995Y7331D01*
G01X53006Y7282D01*
G01X53022Y7236D01*
G01X53042Y7194D01*
G01X53068Y7155D01*
G01X53098Y7122D01*
G01X53135Y7093D01*
G01X53176Y7070D01*
G01X53224Y7053D01*
G01X53278Y7043D01*
G01X53337Y7039D01*
G01X53395Y7042D01*
G01X53449Y7052D01*
G01X53498Y7068D01*
G01X53544Y7090D01*
G01X53585Y7119D01*
G01X53622Y7153D01*
G01X53656Y7195D01*
G01X53685Y7242D01*
G01X53578Y7316D01*
G01X53532Y7248D01*
G01X53478Y7202D01*
G01X53417Y7176D01*
G01X53347Y7169D01*
G01X53297Y7172D01*
G01X53254Y7184D01*
G01X53217Y7205D01*
G01X53187Y7234D01*
G01X53164Y7273D01*
G01X53148Y7322D01*
G01X53137Y7380D01*
G01X53134Y7451D01*
G01X53134Y8362D01*
G37*

%LPD*%
G36*
G01X54460Y8477D02*
G01X54315Y8477D01*
G01X54315Y7062D01*
G01X54434Y7062D01*
G01X54450Y7176D01*
G01X54452Y7176D01*
G01X54515Y7122D01*
G01X54586Y7079D01*
G01X54664Y7050D01*
G01X54749Y7039D01*
G01X54808Y7043D01*
G01X54863Y7054D01*
G01X54913Y7072D01*
G01X54960Y7098D01*
G01X55001Y7130D01*
G01X55038Y7169D01*
G01X55070Y7215D01*
G01X55097Y7267D01*
G01X55118Y7326D01*
G01X55133Y7391D01*
G01X55142Y7462D01*
G01X55145Y7539D01*
G01X55141Y7615D01*
G01X55130Y7685D01*
G01X55111Y7750D01*
G01X55086Y7810D01*
G01X55056Y7863D01*
G01X55019Y7910D01*
G01X54979Y7951D01*
G01X54934Y7985D01*
G01X54886Y8012D01*
G01X54836Y8031D01*
G01X54783Y8043D01*
G01X54729Y8047D01*
G01X54650Y8039D01*
G01X54580Y8017D01*
G01X54516Y7981D01*
G01X54452Y7933D01*
G01X54460Y8101D01*
G01X54460Y8477D01*
G37*

%LPC*%
G36*
G01X54765Y7915D02*
G01X54706Y7923D01*
G01X54645Y7917D01*
G01X54584Y7899D01*
G01X54523Y7866D01*
G01X54460Y7816D01*
G01X54460Y7298D01*
G01X54524Y7238D01*
G01X54588Y7195D01*
G01X54652Y7169D01*
G01X54719Y7161D01*
G01X54781Y7168D01*
G01X54836Y7187D01*
G01X54883Y7219D01*
G01X54923Y7263D01*
G01X54954Y7317D01*
G01X54977Y7383D01*
G01X54991Y7458D01*
G01X54996Y7542D01*
G01X54990Y7622D01*
G01X54973Y7695D01*
G01X54947Y7760D01*
G01X54912Y7816D01*
G01X54869Y7861D01*
G01X54820Y7895D01*
G01X54765Y7915D01*
G37*

%LPD*%
G36*
G01X55749Y8043D02*
G01X55694Y8047D01*
G01X55637Y8044D01*
G01X55583Y8033D01*
G01X55535Y8016D01*
G01X55490Y7992D01*
G01X55450Y7962D01*
G01X55416Y7926D01*
G01X55386Y7884D01*
G01X55361Y7837D01*
G01X55342Y7785D01*
G01X55327Y7727D01*
G01X55319Y7664D01*
G01X55316Y7598D01*
G01X55316Y7574D01*
G01X55318Y7550D01*
G01X55320Y7529D01*
G01X55323Y7509D01*
G01X55979Y7509D01*
G01X55970Y7432D01*
G01X55952Y7363D01*
G01X55923Y7302D01*
G01X55885Y7251D01*
G01X55838Y7209D01*
G01X55782Y7179D01*
G01X55721Y7160D01*
G01X55651Y7153D01*
G01X55583Y7158D01*
G01X55521Y7174D01*
G01X55462Y7199D01*
G01X55407Y7232D01*
G01X55354Y7136D01*
G01X55420Y7098D01*
G01X55492Y7067D01*
G01X55575Y7046D01*
G01X55669Y7039D01*
G01X55731Y7043D01*
G01X55790Y7054D01*
G01X55846Y7073D01*
G01X55898Y7099D01*
G01X55947Y7132D01*
G01X55991Y7171D01*
G01X56029Y7217D01*
G01X56061Y7270D01*
G01X56088Y7328D01*
G01X56107Y7393D01*
G01X56119Y7463D01*
G01X56123Y7539D01*
G01X56119Y7615D01*
G01X56107Y7685D01*
G01X56088Y7750D01*
G01X56061Y7810D01*
G01X56029Y7863D01*
G01X55992Y7910D01*
G01X55950Y7951D01*
G01X55904Y7985D01*
G01X55855Y8012D01*
G01X55803Y8031D01*
G01X55749Y8043D01*
G37*

%LPC*%
G36*
G01X55746Y7925D02*
G01X55694Y7931D01*
G01X55638Y7926D01*
G01X55589Y7910D01*
G01X55546Y7885D01*
G01X55511Y7850D01*
G01X55483Y7806D01*
G01X55462Y7751D01*
G01X55450Y7688D01*
G01X55445Y7616D01*
G01X55981Y7616D01*
G01X55969Y7686D01*
G01X55948Y7748D01*
G01X55919Y7802D01*
G01X55884Y7847D01*
G01X55842Y7883D01*
G01X55796Y7909D01*
G01X55746Y7925D01*
G37*

%LPD*%
G36*
G01X58366Y8022D02*
G01X58224Y8022D01*
G01X58590Y6973D01*
G01X58616Y6906D01*
G01X58645Y6844D01*
G01X58679Y6788D01*
G01X58719Y6739D01*
G01X58763Y6699D01*
G01X58815Y6668D01*
G01X58874Y6649D01*
G01X58940Y6643D01*
G01X58971Y6644D01*
G01X59000Y6648D01*
G01X59026Y6655D01*
G01X59049Y6663D01*
G01X59019Y6780D01*
G01X59004Y6774D01*
G01X58986Y6769D01*
G01X58966Y6766D01*
G01X58945Y6765D01*
G01X58871Y6781D01*
G01X58809Y6827D01*
G01X58760Y6895D01*
G01X58722Y6981D01*
G01X58699Y7057D01*
G01X59088Y8022D01*
G01X58938Y8022D01*
G01X58732Y7473D01*
G01X58709Y7408D01*
G01X58685Y7339D01*
G01X58660Y7270D01*
G01X58635Y7202D01*
G01X58628Y7202D01*
G01X58607Y7270D01*
G01X58587Y7339D01*
G01X58566Y7408D01*
G01X58547Y7473D01*
G01X58366Y8022D01*
G37*

%LPD*%

%LPD*%
G36*
G01X45854Y7418D02*
G01X45534Y7418D01*
G01X45534Y7339D01*
G01X45854Y7339D01*
G01X45854Y7418D01*
G37*

%LPD*%
G36*
G01X41422Y7954D02*
G01X41343Y7954D01*
G01X41343Y7110D01*
G01X41153Y7110D01*
G01X41153Y7024D01*
G01X41653Y7024D01*
G01X41653Y7110D01*
G01X41445Y7110D01*
G01X41445Y7821D01*
G01X41610Y7821D01*
G01X41610Y7890D01*
G01X41553Y7902D01*
G01X41504Y7917D01*
G01X41460Y7934D01*
G01X41422Y7954D01*
G37*

%LPD*%
G36*
G01X42920Y7959D02*
G01X42839Y7969D01*
G01X42781Y7964D01*
G01X42728Y7949D01*
G01X42682Y7926D01*
G01X42644Y7895D01*
G01X42614Y7856D01*
G01X42591Y7810D01*
G01X42578Y7757D01*
G01X42572Y7700D01*
G01X42576Y7652D01*
G01X42585Y7604D01*
G01X42599Y7556D01*
G01X42619Y7508D01*
G01X42645Y7460D01*
G01X42675Y7410D01*
G01X42710Y7361D01*
G01X42750Y7311D01*
G01X42793Y7261D01*
G01X42841Y7210D01*
G01X42893Y7158D01*
G01X42948Y7105D01*
G01X42910Y7108D01*
G01X42871Y7111D01*
G01X42832Y7112D01*
G01X42796Y7113D01*
G01X42529Y7113D01*
G01X42529Y7024D01*
G01X43103Y7024D01*
G01X43103Y7085D01*
G01X43033Y7148D01*
G01X42969Y7209D01*
G01X42911Y7267D01*
G01X42860Y7322D01*
G01X42816Y7375D01*
G01X42778Y7427D01*
G01X42746Y7475D01*
G01X42719Y7523D01*
G01X42699Y7568D01*
G01X42685Y7612D01*
G01X42677Y7654D01*
G01X42674Y7694D01*
G01X42685Y7770D01*
G01X42718Y7831D01*
G01X42774Y7870D01*
G01X42852Y7885D01*
G01X42908Y7876D01*
G01X42960Y7853D01*
G01X43007Y7818D01*
G01X43050Y7776D01*
G01X43111Y7834D01*
G01X43053Y7890D01*
G01X42991Y7932D01*
G01X42920Y7959D01*
G37*

%LPD*%
G36*
G01X46653Y7959D02*
G01X46573Y7969D01*
G01X46515Y7964D01*
G01X46462Y7949D01*
G01X46416Y7926D01*
G01X46378Y7895D01*
G01X46347Y7856D01*
G01X46325Y7810D01*
G01X46311Y7757D01*
G01X46306Y7700D01*
G01X46309Y7652D01*
G01X46318Y7604D01*
G01X46333Y7556D01*
G01X46353Y7508D01*
G01X46378Y7460D01*
G01X46408Y7410D01*
G01X46443Y7361D01*
G01X46483Y7311D01*
G01X46526Y7261D01*
G01X46573Y7210D01*
G01X46625Y7158D01*
G01X46680Y7105D01*
G01X46643Y7108D01*
G01X46603Y7111D01*
G01X46527Y7113D01*
G01X46261Y7113D01*
G01X46261Y7024D01*
G01X46837Y7024D01*
G01X46837Y7085D01*
G01X46767Y7148D01*
G01X46703Y7209D01*
G01X46645Y7267D01*
G01X46594Y7322D01*
G01X46550Y7375D01*
G01X46511Y7427D01*
G01X46479Y7475D01*
G01X46453Y7523D01*
G01X46433Y7568D01*
G01X46419Y7612D01*
G01X46411Y7654D01*
G01X46408Y7694D01*
G01X46419Y7770D01*
G01X46451Y7831D01*
G01X46505Y7870D01*
G01X46583Y7885D01*
G01X46640Y7876D01*
G01X46692Y7853D01*
G01X46739Y7818D01*
G01X46781Y7776D01*
G01X46842Y7834D01*
G01X46785Y7890D01*
G01X46723Y7932D01*
G01X46653Y7959D01*
G37*

%LPD*%
G36*
G01X47589Y7954D02*
G01X47510Y7954D01*
G01X47510Y7110D01*
G01X47320Y7110D01*
G01X47320Y7024D01*
G01X47820Y7024D01*
G01X47820Y7110D01*
G01X47612Y7110D01*
G01X47612Y7821D01*
G01X47777Y7821D01*
G01X47777Y7890D01*
G01X47720Y7902D01*
G01X47671Y7917D01*
G01X47628Y7934D01*
G01X47589Y7954D01*
G37*

%LPD*%
G36*
G01X48612Y7717D02*
G01X48554Y7727D01*
G01X48535Y7726D01*
G01X48517Y7724D01*
G01X48500Y7720D01*
G01X48483Y7712D01*
G01X48503Y7623D01*
G01X48520Y7628D01*
G01X48534Y7631D01*
G01X48550Y7633D01*
G01X48567Y7633D01*
G01X48613Y7625D01*
G01X48660Y7597D01*
G01X48705Y7547D01*
G01X48745Y7471D01*
G01X48745Y7024D01*
G01X48846Y7024D01*
G01X48846Y7710D01*
G01X48762Y7710D01*
G01X48752Y7583D01*
G01X48750Y7583D01*
G01X48710Y7643D01*
G01X48663Y7688D01*
G01X48612Y7717D01*
G37*

%LPD*%
G36*
G01X49753Y7954D02*
G01X49646Y7954D01*
G01X49944Y7024D01*
G01X50063Y7024D01*
G01X50363Y7954D01*
G01X50251Y7954D01*
G01X50096Y7440D01*
G01X50073Y7360D01*
G01X50051Y7285D01*
G01X50029Y7211D01*
G01X50005Y7133D01*
G01X49999Y7133D01*
G01X49975Y7211D01*
G01X49953Y7285D01*
G01X49930Y7360D01*
G01X49905Y7440D01*
G01X49753Y7954D01*
G37*

%LPD*%
G36*
G01X40804Y7963D02*
G01X40751Y7969D01*
G01X40708Y7966D01*
G01X40666Y7956D01*
G01X40627Y7941D01*
G01X40591Y7919D01*
G01X40558Y7892D01*
G01X40529Y7859D01*
G01X40503Y7819D01*
G01X40482Y7774D01*
G01X40465Y7722D01*
G01X40452Y7664D01*
G01X40444Y7601D01*
G01X40441Y7532D01*
G01X40445Y7441D01*
G01X40455Y7361D01*
G01X40470Y7289D01*
G01X40490Y7226D01*
G01X40515Y7172D01*
G01X40545Y7126D01*
G01X40578Y7088D01*
G01X40613Y7057D01*
G01X40652Y7035D01*
G01X40692Y7018D01*
G01X40734Y7009D01*
G01X40777Y7006D01*
G01X40845Y7013D01*
G01X40903Y7033D01*
G01X40953Y7062D01*
G01X40995Y7100D01*
G01X40937Y7164D01*
G01X40904Y7135D01*
G01X40866Y7113D01*
G01X40824Y7100D01*
G01X40779Y7095D01*
G01X40735Y7100D01*
G01X40692Y7115D01*
G01X40652Y7143D01*
G01X40617Y7183D01*
G01X40587Y7237D01*
G01X40564Y7307D01*
G01X40548Y7393D01*
G01X40540Y7496D01*
G01X40588Y7448D01*
G01X40642Y7410D01*
G01X40699Y7386D01*
G01X40759Y7377D01*
G01X40814Y7382D01*
G01X40864Y7396D01*
G01X40908Y7419D01*
G01X40944Y7452D01*
G01X40974Y7493D01*
G01X40995Y7544D01*
G01X41008Y7603D01*
G01X41013Y7672D01*
G01X41008Y7735D01*
G01X40992Y7792D01*
G01X40968Y7842D01*
G01X40936Y7885D01*
G01X40897Y7920D01*
G01X40852Y7947D01*
G01X40804Y7963D01*
G37*

%LPC*%
G36*
G01X40815Y7874D02*
G01X40751Y7890D01*
G01X40707Y7884D01*
G01X40666Y7869D01*
G01X40632Y7844D01*
G01X40602Y7809D01*
G01X40579Y7766D01*
G01X40560Y7713D01*
G01X40548Y7652D01*
G01X40540Y7583D01*
G01X40591Y7524D01*
G01X40642Y7485D01*
G01X40692Y7462D01*
G01X40741Y7456D01*
G01X40818Y7471D01*
G01X40872Y7515D01*
G01X40904Y7583D01*
G01X40914Y7672D01*
G01X40902Y7759D01*
G01X40867Y7828D01*
G01X40815Y7874D01*
G37*

%LPD*%
G36*
G01X42158Y7965D02*
G01X42115Y7969D01*
G01X42073Y7965D01*
G01X42033Y7956D01*
G01X41997Y7939D01*
G01X41964Y7916D01*
G01X41934Y7887D01*
G01X41907Y7851D01*
G01X41885Y7808D01*
G01X41866Y7758D01*
G01X41851Y7702D01*
G01X41840Y7639D01*
G01X41833Y7568D01*
G01X41831Y7491D01*
G01X41833Y7414D01*
G01X41840Y7343D01*
G01X41851Y7279D01*
G01X41866Y7222D01*
G01X41885Y7171D01*
G01X41907Y7128D01*
G01X41934Y7090D01*
G01X41964Y7060D01*
G01X41997Y7037D01*
G01X42033Y7019D01*
G01X42073Y7009D01*
G01X42115Y7006D01*
G01X42158Y7009D01*
G01X42198Y7019D01*
G01X42234Y7037D01*
G01X42267Y7060D01*
G01X42297Y7090D01*
G01X42324Y7128D01*
G01X42346Y7171D01*
G01X42365Y7222D01*
G01X42380Y7279D01*
G01X42391Y7343D01*
G01X42398Y7414D01*
G01X42400Y7491D01*
G01X42398Y7568D01*
G01X42391Y7639D01*
G01X42380Y7702D01*
G01X42365Y7758D01*
G01X42346Y7808D01*
G01X42324Y7851D01*
G01X42297Y7887D01*
G01X42267Y7916D01*
G01X42234Y7939D01*
G01X42198Y7956D01*
G01X42158Y7965D01*
G37*

%LPC*%
G36*
G01X42155Y7879D02*
G01X42115Y7885D01*
G01X42076Y7879D01*
G01X42041Y7862D01*
G01X42010Y7832D01*
G01X41983Y7790D01*
G01X41962Y7735D01*
G01X41946Y7667D01*
G01X41936Y7586D01*
G01X41932Y7491D01*
G01X41936Y7395D01*
G01X41946Y7312D01*
G01X41962Y7243D01*
G01X41983Y7187D01*
G01X42010Y7144D01*
G01X42041Y7114D01*
G01X42076Y7095D01*
G01X42115Y7090D01*
G01X42155Y7095D01*
G01X42190Y7114D01*
G01X42222Y7144D01*
G01X42249Y7187D01*
G01X42271Y7243D01*
G01X42287Y7312D01*
G01X42298Y7395D01*
G01X42301Y7491D01*
G01X42298Y7586D01*
G01X42287Y7667D01*
G01X42271Y7735D01*
G01X42249Y7790D01*
G01X42222Y7832D01*
G01X42190Y7862D01*
G01X42155Y7879D01*
G37*

%LPD*%
G36*
G01X43474Y7905D02*
G01X43388Y7905D01*
G01X43388Y7710D01*
G01X43197Y7710D01*
G01X43197Y7623D01*
G01X43388Y7623D01*
G01X43388Y7227D01*
G01X43383Y7171D01*
G01X43365Y7128D01*
G01X43331Y7102D01*
G01X43279Y7092D01*
G01X43259Y7093D01*
G01X43238Y7098D01*
G01X43219Y7103D01*
G01X43200Y7110D01*
G01X43180Y7031D01*
G01X43209Y7023D01*
G01X43240Y7015D01*
G01X43272Y7009D01*
G01X43301Y7006D01*
G01X43391Y7022D01*
G01X43449Y7068D01*
G01X43480Y7139D01*
G01X43489Y7232D01*
G01X43489Y7623D01*
G01X43594Y7623D01*
G01X43594Y7705D01*
G01X43487Y7710D01*
G01X43474Y7905D01*
G37*

%LPD*%
G36*
G01X43929Y7721D02*
G01X43865Y7727D01*
G01X43802Y7721D01*
G01X43749Y7703D01*
G01X43704Y7677D01*
G01X43665Y7646D01*
G01X43718Y7578D01*
G01X43750Y7602D01*
G01X43784Y7622D01*
G01X43820Y7636D01*
G01X43860Y7641D01*
G01X43907Y7636D01*
G01X43950Y7621D01*
G01X43988Y7597D01*
G01X44021Y7564D01*
G01X44047Y7524D01*
G01X44068Y7477D01*
G01X44080Y7423D01*
G01X44084Y7364D01*
G01X44080Y7306D01*
G01X44068Y7253D01*
G01X44049Y7207D01*
G01X44023Y7169D01*
G01X43991Y7137D01*
G01X43953Y7114D01*
G01X43911Y7100D01*
G01X43863Y7095D01*
G01X43817Y7100D01*
G01X43773Y7115D01*
G01X43733Y7137D01*
G01X43698Y7164D01*
G01X43652Y7095D01*
G01X43701Y7058D01*
G01X43754Y7030D01*
G01X43812Y7012D01*
G01X43873Y7006D01*
G01X43938Y7012D01*
G01X43999Y7030D01*
G01X44053Y7059D01*
G01X44100Y7100D01*
G01X44138Y7151D01*
G01X44167Y7213D01*
G01X44184Y7284D01*
G01X44190Y7364D01*
G01X44184Y7446D01*
G01X44164Y7518D01*
G01X44134Y7581D01*
G01X44093Y7632D01*
G01X44044Y7673D01*
G01X43989Y7703D01*
G01X43929Y7721D01*
G37*

%LPD*%
G36*
G01X44783Y7965D02*
G01X44726Y7969D01*
G01X44671Y7965D01*
G01X44617Y7954D01*
G01X44567Y7936D01*
G01X44522Y7911D01*
G01X44480Y7879D01*
G01X44443Y7841D01*
G01X44411Y7797D01*
G01X44383Y7747D01*
G01X44362Y7691D01*
G01X44346Y7629D01*
G01X44336Y7563D01*
G01X44333Y7491D01*
G01X44336Y7420D01*
G01X44346Y7353D01*
G01X44362Y7291D01*
G01X44383Y7234D01*
G01X44411Y7183D01*
G01X44443Y7138D01*
G01X44480Y7099D01*
G01X44522Y7066D01*
G01X44567Y7040D01*
G01X44617Y7021D01*
G01X44671Y7010D01*
G01X44726Y7006D01*
G01X44783Y7010D01*
G01X44836Y7021D01*
G01X44885Y7040D01*
G01X44932Y7066D01*
G01X44973Y7099D01*
G01X45010Y7138D01*
G01X45042Y7183D01*
G01X45070Y7234D01*
G01X45091Y7291D01*
G01X45107Y7353D01*
G01X45117Y7420D01*
G01X45120Y7491D01*
G01X45117Y7563D01*
G01X45107Y7629D01*
G01X45091Y7691D01*
G01X45070Y7747D01*
G01X45042Y7797D01*
G01X45010Y7841D01*
G01X44973Y7879D01*
G01X44932Y7911D01*
G01X44885Y7936D01*
G01X44836Y7954D01*
G01X44783Y7965D01*
G37*

%LPC*%
G36*
G01X44788Y7870D02*
G01X44726Y7877D01*
G01X44665Y7870D01*
G01X44609Y7850D01*
G01X44561Y7818D01*
G01X44520Y7774D01*
G01X44487Y7718D01*
G01X44462Y7652D01*
G01X44447Y7576D01*
G01X44442Y7491D01*
G01X44447Y7406D01*
G01X44462Y7330D01*
G01X44487Y7264D01*
G01X44520Y7207D01*
G01X44561Y7162D01*
G01X44609Y7128D01*
G01X44665Y7107D01*
G01X44726Y7100D01*
G01X44788Y7107D01*
G01X44844Y7128D01*
G01X44893Y7162D01*
G01X44934Y7207D01*
G01X44967Y7264D01*
G01X44991Y7330D01*
G01X45006Y7406D01*
G01X45011Y7491D01*
G01X45006Y7576D01*
G01X44991Y7652D01*
G01X44967Y7718D01*
G01X44934Y7774D01*
G01X44893Y7818D01*
G01X44844Y7850D01*
G01X44788Y7870D01*
G37*

%LPD*%
G36*
G01X47096Y7167D02*
G01X47066Y7174D01*
G01X47035Y7167D01*
G01X47010Y7150D01*
G01X46994Y7123D01*
G01X46987Y7090D01*
G01X46994Y7056D01*
G01X47010Y7029D01*
G01X47035Y7012D01*
G01X47066Y7006D01*
G01X47096Y7012D01*
G01X47122Y7029D01*
G01X47138Y7056D01*
G01X47144Y7090D01*
G01X47138Y7123D01*
G01X47122Y7150D01*
G01X47096Y7167D01*
G37*

%LPD*%
G36*
G01X48420Y7167D02*
G01X48389Y7174D01*
G01X48359Y7167D01*
G01X48334Y7150D01*
G01X48317Y7123D01*
G01X48310Y7090D01*
G01X48317Y7056D01*
G01X48334Y7029D01*
G01X48359Y7012D01*
G01X48389Y7006D01*
G01X48420Y7012D01*
G01X48445Y7029D01*
G01X48462Y7056D01*
G01X48468Y7090D01*
G01X48462Y7123D01*
G01X48445Y7150D01*
G01X48420Y7167D01*
G37*

%LPD*%
G36*
G01X49349Y7721D02*
G01X49291Y7727D01*
G01X49230Y7721D01*
G01X49177Y7705D01*
G01X49131Y7678D01*
G01X49093Y7641D01*
G01X49062Y7594D01*
G01X49040Y7539D01*
G01X49026Y7477D01*
G01X49022Y7407D01*
G01X49022Y7389D01*
G01X49023Y7372D01*
G01X49024Y7357D01*
G01X49027Y7344D01*
G01X49494Y7344D01*
G01X49488Y7289D01*
G01X49475Y7240D01*
G01X49454Y7197D01*
G01X49427Y7160D01*
G01X49393Y7130D01*
G01X49354Y7108D01*
G01X49310Y7094D01*
G01X49260Y7090D01*
G01X49212Y7093D01*
G01X49166Y7104D01*
G01X49125Y7122D01*
G01X49085Y7146D01*
G01X49047Y7077D01*
G01X49095Y7050D01*
G01X49147Y7027D01*
G01X49206Y7012D01*
G01X49273Y7006D01*
G01X49339Y7012D01*
G01X49400Y7030D01*
G01X49455Y7060D01*
G01X49504Y7101D01*
G01X49543Y7152D01*
G01X49573Y7214D01*
G01X49592Y7284D01*
G01X49598Y7364D01*
G01X49592Y7444D01*
G01X49572Y7515D01*
G01X49543Y7577D01*
G01X49504Y7629D01*
G01X49457Y7671D01*
G01X49406Y7702D01*
G01X49349Y7721D01*
G37*

%LPC*%
G36*
G01X49364Y7628D02*
G01X49291Y7644D01*
G01X49216Y7629D01*
G01X49160Y7587D01*
G01X49125Y7516D01*
G01X49113Y7418D01*
G01X49497Y7418D01*
G01X49473Y7513D01*
G01X49426Y7584D01*
G01X49364Y7628D01*
G37*

%LPD*%
M00*
M02*
