G04 Layer: TopSolderMaskLayer*
G04 EasyEDA v6.2.44, 2019-10-04T11:08:35+02:00*
G04 41162be0d33c4ba8b269e90eca5c5aeb,6fbb11cf78c9446ebbc1c763f74fa548,10*
G04 Gerber Generator version 0.2*
G04 Scale: 100 percent, Rotated: No, Reflected: No *
G04 Dimensions in millimeters *
G04 leading zeros omitted , absolute positions ,3 integer and 3 decimal *
%FSLAX33Y33*%
%MOMM*%
G90*
G71D02*

%ADD22C,1.854200*%
%ADD24C,2.743200*%

%LPD*%
G36*
G01X60468Y2686D02*
G01X60468Y4413D01*
G01X62195Y4413D01*
G01X62195Y2686D01*
G01X60468Y2686D01*
G37*
G36*
G01X57928Y2686D02*
G01X57928Y4413D01*
G01X59655Y4413D01*
G01X59655Y2686D01*
G01X57928Y2686D01*
G37*
G36*
G01X55388Y2686D02*
G01X55388Y4413D01*
G01X57115Y4413D01*
G01X57115Y2686D01*
G01X55388Y2686D01*
G37*
G36*
G01X52848Y2686D02*
G01X52848Y4413D01*
G01X54575Y4413D01*
G01X54575Y2686D01*
G01X52848Y2686D01*
G37*
G36*
G01X50308Y2686D02*
G01X50308Y4413D01*
G01X52035Y4413D01*
G01X52035Y2686D01*
G01X50308Y2686D01*
G37*
G36*
G01X47768Y2686D02*
G01X47768Y4413D01*
G01X49495Y4413D01*
G01X49495Y2686D01*
G01X47768Y2686D01*
G37*
G36*
G01X45228Y2686D02*
G01X45228Y4413D01*
G01X46955Y4413D01*
G01X46955Y2686D01*
G01X45228Y2686D01*
G37*
G36*
G01X42688Y2686D02*
G01X42688Y4413D01*
G01X44415Y4413D01*
G01X44415Y2686D01*
G01X42688Y2686D01*
G37*
G36*
G01X60468Y25546D02*
G01X60468Y27273D01*
G01X62195Y27273D01*
G01X62195Y25546D01*
G01X60468Y25546D01*
G37*
G36*
G01X57928Y25546D02*
G01X57928Y27273D01*
G01X59655Y27273D01*
G01X59655Y25546D01*
G01X57928Y25546D01*
G37*
G36*
G01X55388Y25546D02*
G01X55388Y27273D01*
G01X57115Y27273D01*
G01X57115Y25546D01*
G01X55388Y25546D01*
G37*
G36*
G01X52848Y25546D02*
G01X52848Y27273D01*
G01X54575Y27273D01*
G01X54575Y25546D01*
G01X52848Y25546D01*
G37*
G36*
G01X50308Y25546D02*
G01X50308Y27273D01*
G01X52035Y27273D01*
G01X52035Y25546D01*
G01X50308Y25546D01*
G37*
G36*
G01X47768Y25546D02*
G01X47768Y27273D01*
G01X49495Y27273D01*
G01X49495Y25546D01*
G01X47768Y25546D01*
G37*
G36*
G01X45228Y25546D02*
G01X45228Y27273D01*
G01X46955Y27273D01*
G01X46955Y25546D01*
G01X45228Y25546D01*
G37*
G36*
G01X42688Y25546D02*
G01X42688Y27273D01*
G01X44415Y27273D01*
G01X44415Y25546D01*
G01X42688Y25546D01*
G37*
G36*
G01X23575Y22942D02*
G01X23575Y24796D01*
G01X25429Y24796D01*
G01X25429Y22942D01*
G01X23575Y22942D01*
G37*
G54D22*
G01X27042Y23868D03*
G01X29582Y23868D03*
G36*
G01X23575Y20402D02*
G01X23575Y22256D01*
G01X25429Y22256D01*
G01X25429Y20402D01*
G01X23575Y20402D01*
G37*
G01X27042Y21328D03*
G01X29582Y21328D03*
G36*
G01X23575Y17862D02*
G01X23575Y19716D01*
G01X25429Y19716D01*
G01X25429Y17862D01*
G01X23575Y17862D01*
G37*
G01X27042Y18788D03*
G01X29582Y18788D03*
G36*
G01X23575Y15322D02*
G01X23575Y17176D01*
G01X25429Y17176D01*
G01X25429Y15322D01*
G01X23575Y15322D01*
G37*
G01X27042Y16248D03*
G01X29582Y16248D03*
G36*
G01X23575Y12782D02*
G01X23575Y14636D01*
G01X25429Y14636D01*
G01X25429Y12782D01*
G01X23575Y12782D01*
G37*
G01X27042Y13708D03*
G01X29582Y13708D03*
G36*
G01X23575Y10242D02*
G01X23575Y12096D01*
G01X25429Y12096D01*
G01X25429Y10242D01*
G01X23575Y10242D01*
G37*
G01X27042Y11168D03*
G01X29582Y11168D03*
G36*
G01X23575Y7702D02*
G01X23575Y9556D01*
G01X25429Y9556D01*
G01X25429Y7702D01*
G01X23575Y7702D01*
G37*
G01X27042Y8628D03*
G01X29582Y8628D03*
G36*
G01X23575Y5162D02*
G01X23575Y7016D01*
G01X25429Y7016D01*
G01X25429Y5162D01*
G01X23575Y5162D01*
G37*
G01X27042Y6088D03*
G01X29582Y6088D03*
G36*
G01X2333Y11606D02*
G01X2333Y15810D01*
G01X6536Y15810D01*
G01X6536Y11606D01*
G01X2333Y11606D01*
G37*
G36*
G01X2333Y16686D02*
G01X2333Y20890D01*
G01X6536Y20890D01*
G01X6536Y16686D01*
G01X2333Y16686D01*
G37*
G54D24*
G01X10724Y26384D03*
G01X18344Y26384D03*
G01X10724Y3524D03*
G01X18344Y3524D03*
M00*
M02*
