;Layer: Drill PTH
;EasyEDA v6.2.44, 2019-10-04T11:08:35+02:00
;41162be0d33c4ba8b269e90eca5c5aeb,6fbb11cf78c9446ebbc1c763f74fa548,10
;Gerber Generator version 0.2
M48
METRIC,LZ,000.000
;Holesize 1 = 0.798 METRIC
T01C0.798
;Holesize 2 = 0.889 METRIC
T02C0.889
;Holesize 3 = 0.915 METRIC
T03C0.915
;Holesize 4 = 1.101 METRIC
T04C1.101
%
G05
G90
T01
X+061332Y+003548
X+058792Y+003548
X+056252Y+003548
X+053712Y+003548
X+051172Y+003548
X+048632Y+003548
X+046092Y+003548
X+043552Y+003529G85X+043552Y+003568
X+061332Y+026408
X+058792Y+026408
X+056252Y+026408
X+053712Y+026408
X+051172Y+026408
X+048632Y+026408
X+046092Y+026408
X+043552Y+026408
T02
X+024502Y+023868
X+027042Y+023868
X+029582Y+023868
X+024502Y+021328
X+027042Y+021328
X+029582Y+021328
X+024502Y+018788
X+027042Y+018788
X+029582Y+018788
X+024502Y+016248
X+027042Y+016248
X+029582Y+016248
X+024502Y+013708
X+027042Y+013708
X+029582Y+013708
X+024502Y+011168
X+027042Y+011168
X+029582Y+011168
X+024502Y+008628
X+027042Y+008628
X+029582Y+008628
X+024502Y+006088
X+027042Y+006088
X+029582Y+006088
T03
X+010724Y+026384
X+018344Y+026384
X+010724Y+003524
X+018344Y+003524
T04
X+004436Y+013708
X+004436Y+018788
M30
